<svg xmlns="http://www.w3.org/2000/svg" xmlns:xlink="http://www.w3.org/1999/xlink" width="500" zoomAndPan="magnify" viewBox="0 0 375 374.999991" height="500" preserveAspectRatio="xMidYMid meet" version="1.0"><defs><g/><clipPath id="dc116aaa72"><path d="M 155 124.183594 L 220 124.183594 L 220 157.933594 L 155 157.933594 Z M 155 124.183594 " clip-rule="nonzero"/></clipPath></defs><g clip-path="url(#dc116aaa72)"><path fill="#000000" d="M 157.472656 139.53125 L 158.519531 138.925781 C 158.328125 138.875 158.132812 138.808594 157.945312 138.722656 C 157.511719 138.519531 157.175781 138.234375 156.980469 137.886719 C 156.835938 137.625 156.773438 137.324219 156.796875 137.046875 C 156.578125 137.191406 156.367188 137.339844 156.160156 137.503906 C 156.125 137.777344 156.167969 138.082031 156.304688 138.363281 C 156.476562 138.714844 156.78125 139.042969 157.226562 139.367188 C 157.304688 139.421875 157.390625 139.476562 157.472656 139.53125 Z M 160.082031 136.105469 C 160.210938 135.894531 160.246094 135.65625 160.191406 135.464844 C 159.585938 135.652344 158.972656 135.878906 158.375 136.160156 C 158.347656 136.195312 158.316406 136.222656 158.269531 136.234375 C 158.132812 136.28125 158.019531 136.402344 157.980469 136.546875 C 157.941406 136.6875 157.984375 136.851562 158.082031 136.960938 C 158.214844 137.101562 158.453125 137.164062 158.699219 137.109375 C 158.960938 137.054688 159.199219 136.894531 159.40625 136.75 C 159.710938 136.539062 159.9375 136.351562 160.082031 136.105469 Z M 160.398438 140.886719 C 160.382812 140.886719 160.367188 140.886719 160.351562 140.886719 C 159.140625 140.875 157.933594 140.472656 156.949219 139.765625 C 156.671875 139.566406 156.445312 139.363281 156.257812 139.148438 C 156.433594 139.488281 156.664062 139.835938 156.964844 140.199219 C 157.53125 140.878906 158.125 141.539062 158.734375 142.167969 C 159.277344 141.722656 159.828125 141.296875 160.398438 140.886719 Z M 160.667969 143.996094 L 162.621094 141.980469 C 162.605469 141.972656 162.585938 141.960938 162.574219 141.949219 C 162.527344 141.902344 162.503906 141.835938 162.503906 141.773438 C 162.519531 141.390625 162.132812 141.070312 161.769531 140.964844 C 161.570312 140.90625 161.355469 140.886719 161.132812 140.882812 C 160.410156 141.382812 159.710938 141.910156 159.035156 142.46875 C 159.5625 142.996094 160.105469 143.507812 160.667969 143.996094 Z M 163.597656 138.867188 C 163.761719 138.773438 163.921875 138.683594 164.089844 138.597656 C 163.808594 138.4375 163.570312 138.222656 163.398438 137.976562 C 163.179688 137.65625 163.074219 137.269531 163.089844 136.898438 C 162.351562 137.289062 161.621094 137.707031 160.910156 138.117188 L 157.960938 139.8125 C 158.703125 140.1875 159.53125 140.390625 160.355469 140.398438 C 160.476562 140.398438 160.597656 140.398438 160.714844 140.394531 C 160.84375 140.394531 160.96875 140.394531 161.097656 140.394531 C 161.859375 139.878906 162.644531 139.398438 163.445312 138.949219 C 163.480469 138.902344 163.527344 138.871094 163.589844 138.867188 C 163.59375 138.867188 163.59375 138.867188 163.597656 138.867188 Z M 163.027344 141.5625 L 164.46875 140.078125 C 164.34375 140.074219 164.222656 140.058594 164.105469 140.011719 C 163.832031 139.90625 163.605469 139.679688 163.492188 139.410156 C 162.902344 139.742188 162.324219 140.09375 161.761719 140.464844 C 161.8125 140.472656 161.855469 140.480469 161.902344 140.496094 C 162.386719 140.636719 162.867188 141.03125 162.96875 141.550781 C 162.988281 141.554688 163.007812 141.558594 163.027344 141.5625 Z M 164.867188 143.738281 C 164.820312 143.707031 164.785156 143.65625 164.769531 143.601562 C 164.65625 143.167969 164.394531 142.773438 164.042969 142.496094 C 163.789062 142.292969 163.449219 142.144531 163.117188 142.074219 L 160.984375 144.269531 C 161.625 144.816406 162.285156 145.335938 162.964844 145.828125 C 163.601562 145.046875 164.222656 144.363281 164.867188 143.738281 Z M 164.957031 139.492188 C 164.972656 139.476562 164.992188 139.464844 165.011719 139.457031 C 164.863281 139.296875 164.726562 139.125 164.605469 138.9375 C 164.582031 138.902344 164.574219 138.859375 164.570312 138.824219 C 164.332031 138.945312 164.097656 139.070312 163.863281 139.199219 C 163.929688 139.390625 164.070312 139.550781 164.257812 139.617188 C 164.484375 139.707031 164.769531 139.660156 164.957031 139.492188 Z M 166.996094 141.945312 C 166.691406 141.898438 166.398438 141.78125 166.152344 141.605469 C 165.609375 141.222656 165.257812 140.574219 165.214844 139.910156 L 163.503906 141.675781 C 163.808594 141.773438 164.097656 141.921875 164.339844 142.113281 C 164.722656 142.414062 165.015625 142.820312 165.175781 143.285156 C 165.230469 143.277344 165.289062 143.285156 165.34375 143.285156 C 165.863281 142.8125 166.410156 142.375 166.996094 141.945312 Z M 167.015625 134.679688 C 166.109375 134.660156 165.203125 134.667969 164.304688 134.726562 C 163.210938 134.800781 161.921875 134.976562 160.597656 135.34375 C 160.683594 135.652344 160.628906 136.011719 160.445312 136.324219 C 160.246094 136.648438 159.945312 136.890625 159.648438 137.097656 C 159.40625 137.265625 159.121094 137.453125 158.785156 137.523438 C 158.699219 137.542969 158.609375 137.554688 158.523438 137.554688 C 158.226562 137.554688 157.949219 137.441406 157.773438 137.242188 C 157.609375 137.066406 157.535156 136.820312 157.558594 136.582031 C 157.476562 136.625 157.402344 136.664062 157.324219 136.710938 C 157.320312 136.730469 157.316406 136.75 157.308594 136.765625 C 157.164062 137.023438 157.179688 137.378906 157.347656 137.675781 C 157.535156 138.019531 157.871094 138.222656 158.121094 138.335938 C 158.410156 138.472656 158.734375 138.554688 159.050781 138.625 L 160.671875 137.691406 C 161.53125 137.199219 162.425781 136.6875 163.332031 136.226562 C 163.335938 136.226562 163.339844 136.222656 163.34375 136.222656 C 163.402344 136.195312 163.460938 136.160156 163.515625 136.132812 C 164.644531 135.570312 165.816406 135.085938 167.015625 134.679688 Z M 167.972656 145.445312 C 167.722656 144.980469 167.359375 144.582031 166.910156 144.300781 C 166.421875 143.996094 165.910156 143.816406 165.433594 143.777344 C 164.703125 144.457031 164.015625 145.203125 163.308594 146.070312 C 163.984375 146.542969 164.675781 147 165.386719 147.421875 C 165.714844 147.617188 166.035156 147.792969 166.347656 147.957031 C 166.835938 147.089844 167.378906 146.25 167.972656 145.445312 Z M 168.136719 141.15625 C 168.132812 141.136719 168.132812 141.117188 168.132812 141.09375 C 167.328125 140.921875 166.421875 140.601562 165.652344 140.027344 C 165.722656 140.515625 165.988281 140.976562 166.390625 141.257812 C 166.65625 141.441406 166.976562 141.546875 167.292969 141.554688 L 167.359375 141.554688 C 167.414062 141.558594 167.476562 141.558594 167.535156 141.558594 C 167.730469 141.429688 167.929688 141.289062 168.136719 141.15625 Z M 168.636719 140.699219 C 168.863281 140.738281 169.078125 140.761719 169.285156 140.78125 C 168.984375 140.71875 168.691406 140.613281 168.453125 140.394531 C 168.140625 140.105469 167.972656 139.664062 167.949219 139.078125 C 167.929688 138.601562 168.007812 138.125 168.167969 137.660156 L 168.203125 137.5625 C 168.25 137.429688 168.300781 137.285156 168.355469 137.148438 C 167.886719 137.320312 167.414062 137.507812 166.953125 137.703125 C 166.324219 138.046875 165.71875 138.433594 165.140625 138.855469 C 166.027344 140.027344 167.515625 140.507812 168.636719 140.699219 Z M 169.789062 143.234375 C 169.585938 143.238281 169.394531 143.222656 169.214844 143.1875 C 168.828125 143.105469 168.496094 142.925781 168.246094 142.660156 C 168.15625 142.5625 168.089844 142.460938 168.027344 142.363281 C 167.957031 142.261719 167.898438 142.164062 167.820312 142.097656 C 167.765625 142.042969 167.710938 142.015625 167.644531 142 C 167.015625 142.4375 166.445312 142.882812 165.902344 143.359375 C 166.324219 143.449219 166.757812 143.628906 167.164062 143.886719 C 167.621094 144.171875 168.007812 144.566406 168.285156 145.027344 C 168.761719 144.410156 169.261719 143.808594 169.789062 143.234375 Z M 170.226562 142.78125 C 170.402344 142.597656 170.578125 142.421875 170.761719 142.25 C 169.929688 142.246094 169.097656 141.96875 168.4375 141.460938 C 168.300781 141.550781 168.171875 141.640625 168.039062 141.730469 C 168.0625 141.75 168.085938 141.765625 168.109375 141.789062 C 168.21875 141.894531 168.296875 142.011719 168.371094 142.128906 C 168.433594 142.21875 168.488281 142.300781 168.550781 142.371094 C 168.742188 142.570312 168.996094 142.710938 169.300781 142.773438 C 169.566406 142.828125 169.859375 142.832031 170.226562 142.78125 Z M 171.03125 146.988281 C 171.015625 146.980469 171.003906 146.964844 170.992188 146.953125 C 170.34375 146.199219 169.347656 145.816406 168.394531 145.960938 C 168.3125 145.976562 168.226562 145.941406 168.175781 145.878906 C 167.652344 146.609375 167.164062 147.367188 166.722656 148.144531 C 167.84375 148.695312 168.878906 149.035156 169.832031 149.171875 C 170.203125 148.429688 170.601562 147.699219 171.03125 146.988281 Z M 171.234375 141.796875 C 171.605469 141.457031 171.980469 141.125 172.363281 140.808594 C 171.707031 141.074219 171.066406 141.234375 170.445312 141.289062 C 170.277344 141.300781 170.109375 141.308594 169.9375 141.308594 C 169.582031 141.308594 169.203125 141.269531 168.808594 141.214844 C 169.507812 141.703125 170.398438 141.921875 171.234375 141.796875 Z M 171.855469 138.152344 C 171.855469 138.09375 171.851562 138.039062 171.84375 137.980469 C 171.824219 137.816406 171.761719 137.660156 171.671875 137.53125 C 171.332031 137.050781 170.789062 136.914062 170.390625 136.875 C 170.355469 136.875 170.3125 136.875 170.277344 136.875 C 170.027344 136.875 169.804688 136.945312 169.65625 137.074219 C 169.511719 137.210938 169.410156 137.414062 169.316406 137.636719 C 169.203125 137.898438 169.101562 138.160156 169.085938 138.421875 C 169.058594 138.851562 169.285156 139.285156 169.652344 139.5 C 169.96875 139.6875 170.394531 139.738281 170.960938 139.65625 C 171.136719 139.628906 171.316406 139.59375 171.429688 139.492188 C 171.542969 139.394531 171.605469 139.226562 171.664062 139.0625 C 171.761719 138.769531 171.855469 138.460938 171.855469 138.152344 Z M 172.671875 139.625 C 172.84375 139.304688 172.894531 138.890625 172.816406 138.460938 C 172.753906 138.113281 172.609375 137.738281 172.355469 137.292969 C 172.207031 137.023438 171.753906 136.226562 171.277344 136.234375 C 171.054688 136.289062 170.832031 136.355469 170.613281 136.414062 C 171.238281 136.503906 171.738281 136.789062 172.058594 137.242188 C 172.199219 137.4375 172.289062 137.671875 172.320312 137.917969 C 172.382812 138.378906 172.253906 138.835938 172.117188 139.226562 C 172.046875 139.441406 171.949219 139.6875 171.746094 139.863281 C 171.535156 140.046875 171.265625 140.101562 171.027344 140.140625 C 170.832031 140.167969 170.652344 140.179688 170.476562 140.179688 C 170.054688 140.179688 169.703125 140.09375 169.40625 139.921875 C 168.886719 139.613281 168.5625 139 168.601562 138.394531 C 168.621094 138.050781 168.746094 137.738281 168.875 137.441406 C 168.960938 137.238281 169.0625 137.023438 169.210938 136.847656 C 169.125 136.875 169.042969 136.90625 168.957031 136.9375 C 168.796875 137.136719 168.699219 137.40625 168.597656 137.703125 L 168.5625 137.800781 C 168.417969 138.210938 168.355469 138.636719 168.367188 139.0625 C 168.378906 139.386719 168.449219 139.824219 168.738281 140.082031 C 168.972656 140.296875 169.328125 140.375 169.675781 140.429688 C 170.195312 140.511719 170.800781 140.589844 171.375 140.480469 C 171.957031 140.367188 172.441406 140.046875 172.671875 139.625 Z M 173.738281 148.351562 C 173.410156 147.886719 173.089844 147.550781 172.75 147.328125 C 172.355469 147.070312 171.914062 146.949219 171.53125 146.976562 C 171.082031 147.710938 170.664062 148.457031 170.277344 149.222656 C 170.988281 149.277344 171.652344 149.210938 172.28125 149.027344 C 172.800781 148.871094 173.28125 148.644531 173.738281 148.351562 Z M 173.566406 143.339844 C 173.296875 143.375 173.023438 143.46875 172.738281 143.570312 C 172.632812 143.609375 172.523438 143.644531 172.414062 143.679688 C 171.683594 143.921875 171.078125 143.875 170.667969 143.558594 C 170.574219 143.484375 170.511719 143.402344 170.453125 143.332031 C 170.414062 143.285156 170.390625 143.257812 170.367188 143.238281 C 169.707031 143.933594 169.082031 144.667969 168.5 145.433594 C 168.503906 145.441406 168.511719 145.445312 168.515625 145.457031 C 169.523438 145.371094 170.546875 145.765625 171.253906 146.519531 C 171.277344 146.515625 171.300781 146.515625 171.324219 146.511719 C 172.007812 145.414062 172.757812 144.351562 173.566406 143.339844 Z M 173.921875 142.902344 C 174.011719 142.792969 174.105469 142.683594 174.199219 142.570312 C 173.265625 142.761719 172.265625 142.648438 171.367188 142.246094 C 171.125 142.46875 170.890625 142.699219 170.664062 142.929688 C 170.707031 142.976562 170.746094 143.023438 170.777344 143.066406 C 170.828125 143.125 170.871094 143.179688 170.925781 143.222656 C 171.296875 143.511719 171.871094 143.414062 172.289062 143.277344 C 172.390625 143.242188 172.496094 143.207031 172.601562 143.167969 C 173.019531 143.019531 173.453125 142.867188 173.921875 142.902344 Z M 174.382812 135.152344 C 174.1875 135.144531 173.996094 135.132812 173.800781 135.121094 C 172.980469 135.070312 172.148438 135.003906 171.339844 134.941406 C 170.386719 134.863281 169.417969 134.789062 168.445312 134.734375 C 168.4375 134.742188 168.433594 134.746094 168.425781 134.75 C 166.808594 135.210938 165.234375 135.820312 163.730469 136.570312 C 163.667969 136.601562 163.609375 136.632812 163.546875 136.664062 C 163.453125 137.011719 163.519531 137.414062 163.742188 137.738281 C 163.929688 138.007812 164.21875 138.222656 164.558594 138.351562 C 165.113281 138.070312 165.671875 137.800781 166.238281 137.554688 C 168.707031 136.089844 171.527344 135.261719 174.382812 135.152344 Z M 175.832031 137.976562 C 175.6875 137.753906 175.636719 137.492188 175.597656 137.261719 L 175.582031 137.171875 C 175.480469 136.632812 175.289062 136.109375 175.023438 135.632812 C 175 135.632812 174.980469 135.632812 174.960938 135.632812 C 174.601562 135.632812 174.242188 135.644531 173.878906 135.671875 C 173.230469 135.78125 172.582031 135.914062 171.9375 136.070312 C 172.316406 136.367188 172.589844 136.851562 172.71875 137.078125 C 172.992188 137.574219 173.15625 137.984375 173.230469 138.386719 C 173.320312 138.910156 173.253906 139.421875 173.035156 139.828125 C 173 139.894531 172.960938 139.957031 172.917969 140.015625 C 173.058594 139.945312 173.199219 139.867188 173.34375 139.78125 C 174.222656 139.265625 175.042969 138.613281 175.832031 137.976562 Z M 176.265625 145.976562 C 176.148438 145.734375 175.953125 145.5 175.667969 145.273438 C 175.503906 145.144531 175.328125 145.027344 175.144531 144.902344 C 174.9375 144.761719 174.722656 144.617188 174.515625 144.449219 C 174.222656 144.199219 174.003906 143.925781 173.863281 143.640625 C 173.136719 144.558594 172.457031 145.511719 171.828125 146.496094 C 172.222656 146.527344 172.636719 146.671875 173.011719 146.917969 C 173.507812 147.242188 173.875 147.695312 174.136719 148.074219 C 174.890625 147.515625 175.582031 146.789062 176.265625 145.976562 Z M 176.558594 145.628906 C 176.699219 145.449219 176.84375 145.269531 176.988281 145.085938 C 176.609375 144.351562 175.910156 143.796875 175.289062 143.300781 C 175.128906 143.175781 174.976562 143.007812 174.824219 142.851562 C 174.769531 142.789062 174.714844 142.734375 174.660156 142.675781 C 174.492188 142.871094 174.328125 143.070312 174.167969 143.265625 C 174.273438 143.632812 174.550781 143.925781 174.785156 144.121094 C 174.96875 144.277344 175.167969 144.410156 175.378906 144.550781 C 175.558594 144.671875 175.746094 144.800781 175.925781 144.945312 C 176.199219 145.15625 176.40625 145.390625 176.558594 145.628906 Z M 177.785156 138.949219 C 177.527344 138.820312 177.261719 138.707031 176.988281 138.625 L 176.875 138.59375 C 176.734375 138.550781 176.585938 138.507812 176.445312 138.449219 C 176.4375 138.519531 176.40625 138.585938 176.335938 138.625 C 174.679688 139.53125 173.125 140.652344 171.707031 141.929688 C 172.601562 142.289062 173.589844 142.34375 174.472656 142.070312 C 174.519531 142.058594 174.574219 142.066406 174.621094 142.085938 C 175.605469 140.96875 176.667969 139.917969 177.785156 138.949219 Z M 177.269531 144.730469 L 180.074219 141.1875 C 180.070312 141.183594 180.0625 141.179688 180.0625 141.175781 C 179.632812 140.355469 178.964844 139.65625 178.175781 139.167969 C 178.171875 139.171875 178.171875 139.175781 178.167969 139.175781 C 177.023438 140.15625 175.941406 141.222656 174.941406 142.359375 C 175.003906 142.425781 175.066406 142.492188 175.128906 142.5625 C 175.273438 142.714844 175.414062 142.859375 175.550781 142.972656 C 176.132812 143.433594 176.832031 143.992188 177.269531 144.730469 Z M 180.390625 140.78125 L 181.269531 139.671875 C 180.816406 138.6875 180.003906 137.886719 179.007812 137.46875 L 178.90625 137.429688 C 178.699219 137.34375 178.460938 137.25 178.273438 137.074219 C 178.011719 136.832031 177.898438 136.488281 177.800781 136.214844 L 177.460938 135.199219 C 176.734375 135.222656 176.019531 135.214844 175.324219 135.195312 C 175.679688 135.769531 175.933594 136.414062 176.054688 137.085938 L 176.074219 137.175781 C 176.109375 137.390625 176.144531 137.589844 176.246094 137.734375 C 176.398438 137.949219 176.695312 138.03125 177.007812 138.125 L 177.121094 138.15625 C 178.503906 138.566406 179.683594 139.519531 180.390625 140.78125 Z M 183.550781 132.582031 C 182.042969 132.5 180.5625 132.800781 179 133.117188 C 177.609375 133.402344 176.171875 133.699219 174.710938 133.6875 C 174.125 133.683594 173.535156 133.675781 172.945312 133.671875 C 170.953125 133.644531 168.890625 133.621094 166.875 133.761719 L 166.546875 133.785156 C 163.898438 133.96875 161.164062 134.160156 158.835938 135.292969 L 158.671875 135.371094 C 158.113281 135.640625 157.25 136.058594 156.640625 136.5625 C 158.664062 135.242188 161.265625 134.449219 164.273438 134.242188 C 166.644531 134.082031 169.050781 134.269531 171.378906 134.453125 C 172.183594 134.519531 173.011719 134.585938 173.832031 134.636719 C 176.714844 134.8125 180.074219 134.839844 183.175781 133.730469 C 183.183594 133.726562 183.199219 133.730469 183.207031 133.726562 C 183.253906 133.335938 183.375 132.949219 183.550781 132.582031 Z M 181.597656 139.25 L 184.015625 136.195312 C 183.527344 135.695312 183.222656 134.992188 183.191406 134.238281 C 181.476562 134.835938 179.695312 135.09375 177.964844 135.179688 L 178.261719 136.058594 C 178.339844 136.289062 178.429688 136.554688 178.601562 136.710938 C 178.722656 136.832031 178.898438 136.898438 179.085938 136.972656 L 179.195312 137.023438 C 180.226562 137.453125 181.082031 138.261719 181.597656 139.25 Z M 185.398438 155.550781 C 185.773438 155.5625 186.101562 155.574219 186.363281 155.460938 C 185.613281 155.273438 184.824219 155.242188 184.066406 155.394531 C 183.800781 155.445312 183.527344 155.519531 183.269531 155.589844 C 182.886719 155.695312 182.492188 155.800781 182.082031 155.847656 C 181.925781 155.867188 181.761719 155.875 181.597656 155.875 C 181.011719 155.875 180.367188 155.761719 179.601562 155.527344 C 177.984375 155.03125 176.628906 154.269531 175.582031 153.261719 C 174.449219 152.1875 173.710938 150.835938 173.464844 149.433594 C 173.210938 149.550781 172.957031 149.660156 172.6875 149.746094 C 172.195312 151.515625 173.136719 153.394531 174.289062 154.480469 C 175.726562 155.828125 177.65625 156.464844 179.183594 156.867188 C 180.09375 157.109375 181.042969 157.285156 181.84375 156.976562 C 182.1875 156.84375 182.507812 156.621094 182.847656 156.386719 C 183.335938 156.042969 183.847656 155.691406 184.484375 155.582031 C 184.792969 155.527344 185.101562 155.542969 185.398438 155.550781 Z M 185.707031 151.453125 C 186.046875 151.464844 186.363281 151.542969 186.632812 151.675781 C 186.363281 151.40625 186.03125 151.183594 185.71875 150.996094 C 185.625 150.941406 185.53125 150.886719 185.4375 150.832031 C 184.96875 150.554688 184.476562 150.269531 184.089844 149.851562 C 183.429688 149.152344 183.089844 148.121094 183.125 146.9375 C 183.136719 146.539062 183.1875 146.148438 183.261719 145.761719 C 183.226562 145.683594 183.191406 145.585938 183.15625 145.488281 C 183.007812 145.046875 182.890625 144.402344 182.917969 143.6875 C 182.949219 142.972656 183.117188 142.34375 183.300781 141.917969 C 183.484375 141.488281 183.667969 141.265625 183.734375 141.292969 C 183.875 141.359375 183.507812 142.390625 183.460938 143.710938 C 183.441406 144.121094 183.457031 144.507812 183.480469 144.839844 C 183.5625 144.546875 183.648438 144.253906 183.734375 143.964844 L 184.710938 140.703125 C 184.714844 140.683594 184.722656 140.671875 184.734375 140.660156 C 184.5625 140.046875 184.460938 139.414062 184.363281 138.765625 C 184.28125 138.21875 184.222656 137.625 184.347656 137.078125 L 182.707031 139.160156 C 182.625 139.371094 182.367188 139.742188 182.152344 140.210938 C 181.851562 140.847656 181.742188 141.429688 181.589844 141.429688 C 181.519531 141.429688 181.449219 141.265625 181.4375 140.996094 C 181.433594 140.921875 181.441406 140.835938 181.449219 140.75 L 177.722656 145.457031 C 176.6875 146.769531 175.691406 147.957031 174.519531 148.796875 C 174.886719 150.1875 175.890625 151.417969 177.183594 152.027344 C 177.703125 152.269531 178.292969 152.433594 178.9375 152.511719 C 179.496094 152.582031 180.0625 152.582031 180.621094 152.519531 C 181.289062 152.441406 181.949219 152.269531 182.585938 152.101562 L 184.128906 151.699219 C 184.632812 151.570312 185.15625 151.429688 185.707031 151.453125 Z M 186.671875 130.070312 C 186.800781 129.914062 186.789062 129.421875 186.785156 129.179688 L 186.78125 129.070312 C 186.78125 128.863281 186.757812 128.664062 186.726562 128.460938 C 186.707031 128.472656 186.6875 128.492188 186.671875 128.503906 C 186.515625 128.613281 186.375 128.65625 186.269531 128.667969 C 186.046875 128.6875 185.96875 128.613281 185.96875 128.550781 C 185.964844 128.480469 186.03125 128.429688 186.160156 128.339844 C 186.265625 128.257812 186.457031 128.132812 186.578125 127.882812 C 186.5625 127.835938 186.546875 127.78125 186.527344 127.734375 C 186.480469 127.605469 186.425781 127.480469 186.363281 127.363281 C 186.25 127.652344 186.109375 127.847656 186.003906 127.972656 C 185.832031 128.160156 185.71875 128.1875 185.671875 128.148438 C 185.617188 128.105469 185.636719 128 185.714844 127.789062 C 185.789062 127.585938 185.933594 127.285156 186.011719 126.800781 C 185.925781 126.683594 185.835938 126.570312 185.738281 126.460938 C 185.691406 126.789062 185.613281 127.023438 185.539062 127.183594 C 185.425781 127.445312 185.324219 127.523438 185.265625 127.5 C 185.199219 127.476562 185.183594 127.359375 185.210938 127.09375 C 185.230469 126.867188 185.285156 126.527344 185.292969 126.035156 C 185.179688 125.9375 185.058594 125.847656 184.9375 125.765625 C 184.9375 125.890625 184.9375 126.007812 184.925781 126.113281 C 184.902344 126.363281 184.855469 126.550781 184.8125 126.691406 C 184.722656 126.96875 184.640625 127.0625 184.578125 127.050781 C 184.511719 127.039062 184.476562 126.917969 184.472656 126.640625 C 184.476562 126.5 184.476562 126.320312 184.476562 126.089844 C 184.476562 125.910156 184.464844 125.691406 184.414062 125.457031 C 184.328125 125.414062 184.242188 125.375 184.148438 125.339844 C 184.1875 125.59375 184.195312 125.796875 184.1875 125.933594 C 184.164062 126.164062 184.105469 126.25 184.035156 126.253906 C 183.96875 126.257812 183.910156 126.175781 183.84375 125.96875 C 183.785156 125.796875 183.726562 125.53125 183.628906 125.160156 C 183.492188 125.125 183.355469 125.089844 183.210938 125.0625 C 183.265625 125.40625 183.265625 125.65625 183.246094 125.824219 C 183.21875 126.054688 183.15625 126.140625 183.089844 126.148438 C 183.023438 126.148438 182.960938 126.066406 182.902344 125.847656 C 182.851562 125.667969 182.800781 125.386719 182.714844 124.992188 C 182.394531 124.960938 182.070312 124.96875 181.75 125.003906 C 181.816406 125.1875 181.917969 125.335938 182.015625 125.449219 C 182.160156 125.597656 182.304688 125.6875 182.417969 125.753906 C 182.652344 125.878906 182.757812 125.925781 182.753906 126 C 182.753906 126.058594 182.628906 126.140625 182.300781 126.078125 C 182.167969 126.050781 182 125.984375 181.816406 125.855469 C 181.890625 126.027344 181.972656 126.191406 182.066406 126.351562 C 182.472656 126.527344 182.730469 126.5625 182.917969 126.542969 C 183.136719 126.527344 183.238281 126.492188 183.285156 126.546875 C 183.324219 126.585938 183.296875 126.746094 183.003906 126.878906 C 182.882812 126.929688 182.71875 126.960938 182.519531 126.953125 C 182.558594 126.996094 182.601562 127.042969 182.644531 127.085938 C 182.644531 127.089844 182.652344 127.089844 182.652344 127.089844 C 183.226562 127.15625 183.53125 127.117188 183.734375 127.0625 C 183.9375 127.011719 184.03125 126.976562 184.082031 127.027344 C 184.128906 127.066406 184.117188 127.203125 183.886719 127.375 C 183.769531 127.457031 183.597656 127.535156 183.375 127.574219 C 183.339844 127.578125 183.292969 127.574219 183.253906 127.578125 C 183.378906 127.671875 183.507812 127.757812 183.640625 127.847656 C 183.660156 127.863281 183.679688 127.875 183.699219 127.886719 C 184.046875 127.824219 184.28125 127.726562 184.441406 127.675781 C 184.621094 127.613281 184.714844 127.605469 184.757812 127.660156 C 184.796875 127.710938 184.78125 127.8125 184.621094 127.96875 C 184.53125 128.050781 184.394531 128.15625 184.199219 128.242188 C 184.28125 128.304688 184.367188 128.375 184.449219 128.441406 C 184.800781 128.394531 184.96875 128.332031 185.09375 128.265625 C 185.226562 128.203125 185.296875 128.160156 185.363281 128.183594 C 185.417969 128.207031 185.460938 128.320312 185.324219 128.519531 C 185.257812 128.613281 185.144531 128.71875 184.96875 128.796875 C 184.9375 128.8125 184.902344 128.816406 184.867188 128.832031 C 184.902344 128.871094 184.941406 128.914062 184.980469 128.949219 C 185.265625 128.90625 185.449219 128.828125 185.574219 128.796875 C 185.707031 128.761719 185.785156 128.769531 185.832031 128.820312 C 185.871094 128.871094 185.871094 128.960938 185.757812 129.089844 C 185.683594 129.171875 185.542969 129.28125 185.324219 129.359375 C 185.363281 129.414062 185.40625 129.460938 185.445312 129.515625 C 185.691406 129.523438 185.859375 129.476562 185.976562 129.46875 C 186.101562 129.453125 186.179688 129.464844 186.21875 129.523438 C 186.253906 129.574219 186.25 129.664062 186.132812 129.777344 C 186.058594 129.839844 185.941406 129.910156 185.773438 129.957031 C 185.777344 129.960938 185.777344 129.960938 185.78125 129.960938 C 185.921875 130.175781 185.925781 130.183594 186.113281 130.175781 L 186.230469 130.167969 C 186.386719 130.164062 186.605469 130.152344 186.671875 130.070312 Z M 186.980469 153.941406 C 186.980469 153.933594 186.980469 153.925781 186.980469 153.917969 C 185.980469 153.589844 184.867188 153.753906 184.089844 153.917969 C 183.804688 153.980469 183.515625 154.046875 183.226562 154.121094 C 182.457031 154.308594 181.660156 154.5 180.847656 154.527344 C 180.777344 154.53125 180.714844 154.53125 180.644531 154.53125 C 179.160156 154.53125 177.632812 153.976562 176.320312 152.960938 C 175.601562 152.398438 174.945312 151.699219 174.363281 150.882812 C 174.714844 151.632812 175.222656 152.34375 175.867188 152.957031 C 176.871094 153.914062 178.171875 154.648438 179.726562 155.125 C 180.644531 155.40625 181.378906 155.5 182.039062 155.429688 C 182.414062 155.382812 182.773438 155.285156 183.160156 155.183594 C 183.429688 155.109375 183.707031 155.035156 183.984375 154.980469 C 184.898438 154.800781 185.84375 154.855469 186.734375 155.132812 C 186.90625 154.824219 186.957031 154.386719 186.980469 153.941406 Z M 187.011719 153.164062 C 187.003906 152.933594 186.992188 152.699219 186.988281 152.464844 C 186.957031 152.453125 186.925781 152.433594 186.902344 152.40625 C 186.648438 152.089844 186.207031 151.894531 185.691406 151.875 C 185.207031 151.859375 184.710938 151.988281 184.234375 152.109375 L 182.695312 152.511719 C 182.039062 152.683594 181.367188 152.859375 180.671875 152.941406 C 180.386719 152.972656 180.09375 152.988281 179.808594 152.988281 C 179.5 152.988281 179.191406 152.96875 178.886719 152.929688 C 178.199219 152.84375 177.566406 152.671875 177.007812 152.410156 C 175.652344 151.773438 174.582031 150.496094 174.15625 149.046875 C 174.058594 149.109375 173.957031 149.171875 173.851562 149.226562 C 173.855469 149.230469 173.855469 149.234375 173.855469 149.234375 C 174.597656 150.652344 175.507812 151.796875 176.574219 152.625 C 177.867188 153.628906 179.378906 154.15625 180.832031 154.105469 C 181.601562 154.082031 182.378906 153.890625 183.128906 153.710938 C 183.421875 153.640625 183.710938 153.566406 184.003906 153.503906 C 184.800781 153.335938 185.9375 153.164062 187 153.480469 C 187.003906 153.375 187.007812 153.265625 187.011719 153.164062 Z M 187.007812 147.363281 C 187.007812 147.320312 187.011719 147.273438 187.011719 147.230469 C 186.996094 146.882812 186.984375 146.527344 186.964844 146.179688 C 186.90625 145.988281 186.847656 145.800781 186.761719 145.609375 C 186.527344 145.0625 186.171875 144.652344 185.871094 144.417969 C 185.570312 144.175781 185.324219 144.085938 185.339844 144.007812 C 185.34375 143.9375 185.644531 143.886719 186.070312 144.085938 C 186.332031 144.203125 186.625 144.429688 186.871094 144.738281 C 186.847656 144.421875 186.824219 144.101562 186.796875 143.785156 C 186.792969 143.730469 186.800781 143.675781 186.816406 143.628906 C 186.113281 143.234375 185.507812 142.558594 185.109375 141.699219 C 185.054688 141.578125 185.003906 141.460938 184.957031 141.339844 L 184.132812 144.085938 C 183.859375 145.015625 183.570312 145.976562 183.542969 146.949219 C 183.519531 147.566406 183.609375 148.730469 184.390625 149.5625 C 184.738281 149.933594 185.179688 150.195312 185.648438 150.46875 C 185.746094 150.523438 185.835938 150.578125 185.933594 150.636719 C 186.207031 150.796875 186.488281 150.984375 186.746094 151.207031 C 186.609375 150.847656 186.382812 150.425781 186.046875 150.003906 C 185.660156 149.53125 185.234375 149.144531 184.9375 148.84375 C 184.636719 148.546875 184.464844 148.332031 184.507812 148.273438 C 184.550781 148.214844 184.804688 148.3125 185.175781 148.539062 C 185.539062 148.765625 186.035156 149.125 186.46875 149.660156 C 186.679688 149.917969 186.839844 150.195312 186.957031 150.460938 C 186.957031 150.414062 186.957031 150.371094 186.957031 150.328125 C 186.863281 149.964844 186.722656 149.550781 186.496094 149.128906 C 185.90625 147.972656 184.976562 147.390625 185.054688 147.25 C 185.085938 147.1875 185.375 147.25 185.769531 147.503906 C 186.105469 147.71875 186.5 148.101562 186.820312 148.601562 C 186.734375 148.183594 186.59375 147.660156 186.316406 147.132812 C 185.691406 145.933594 184.683594 145.335938 184.761719 145.199219 C 184.792969 145.140625 185.09375 145.199219 185.507812 145.460938 C 185.925781 145.71875 186.4375 146.199219 186.792969 146.878906 C 186.878906 147.035156 186.949219 147.199219 187.007812 147.363281 Z M 187.417969 130.304688 C 187.453125 130.285156 187.496094 130.277344 187.539062 130.277344 C 187.46875 130.121094 187.429688 129.941406 187.417969 129.761719 C 187.398438 129.941406 187.363281 130.121094 187.289062 130.277344 C 187.335938 130.277344 187.375 130.285156 187.417969 130.304688 Z M 189.898438 135.90625 C 190.539062 135.527344 190.917969 134.679688 190.832031 133.847656 C 190.742188 133.070312 190.285156 132.300781 189.570312 131.730469 C 188.886719 131.183594 188.445312 131.089844 187.546875 131.089844 C 187.5 131.089844 187.457031 131.078125 187.417969 131.0625 C 187.375 131.078125 187.328125 131.089844 187.285156 131.089844 C 186.386719 131.089844 185.945312 131.183594 185.261719 131.730469 C 184.546875 132.300781 184.085938 133.070312 184 133.847656 C 183.914062 134.679688 184.292969 135.527344 184.929688 135.90625 C 184.96875 135.929688 184.996094 135.964844 185.027344 135.992188 C 185.304688 135.773438 185.65625 135.621094 186.054688 135.542969 C 186.515625 135.457031 186.972656 135.480469 187.417969 135.5 C 187.855469 135.480469 188.316406 135.457031 188.777344 135.542969 C 189.175781 135.621094 189.523438 135.773438 189.804688 135.992188 C 189.832031 135.964844 189.863281 135.929688 189.898438 135.90625 Z M 190.4375 149.5625 C 191.222656 148.730469 191.308594 147.566406 191.292969 146.949219 C 191.261719 145.976562 190.972656 145.015625 190.699219 144.085938 L 189.875 141.339844 C 189.828125 141.460938 189.777344 141.578125 189.722656 141.699219 C 189.324219 142.558594 188.714844 143.234375 188.015625 143.628906 C 188.03125 143.675781 188.039062 143.730469 188.03125 143.785156 C 188.003906 144.101562 187.984375 144.421875 187.957031 144.738281 C 188.207031 144.429688 188.496094 144.203125 188.761719 144.085938 C 189.1875 143.886719 189.484375 143.9375 189.488281 144.007812 C 189.503906 144.085938 189.261719 144.175781 188.957031 144.417969 C 188.65625 144.652344 188.304688 145.0625 188.070312 145.609375 C 187.984375 145.800781 187.921875 145.988281 187.867188 146.179688 C 187.847656 146.527344 187.832031 146.882812 187.820312 147.230469 C 187.820312 147.273438 187.824219 147.320312 187.824219 147.363281 C 187.882812 147.199219 187.953125 147.035156 188.039062 146.878906 C 188.394531 146.199219 188.90625 145.71875 189.316406 145.460938 C 189.734375 145.199219 190.039062 145.140625 190.070312 145.199219 C 190.148438 145.335938 189.140625 145.933594 188.515625 147.132812 C 188.238281 147.660156 188.097656 148.183594 188.007812 148.601562 C 188.328125 148.101562 188.726562 147.71875 189.0625 147.503906 C 189.453125 147.25 189.746094 147.1875 189.773438 147.25 C 189.855469 147.390625 188.921875 147.972656 188.332031 149.128906 C 188.105469 149.550781 187.96875 149.964844 187.875 150.328125 C 187.875 150.371094 187.875 150.414062 187.875 150.460938 C 187.992188 150.195312 188.152344 149.917969 188.363281 149.660156 C 188.796875 149.125 189.292969 148.765625 189.65625 148.539062 C 190.023438 148.3125 190.273438 148.214844 190.320312 148.273438 C 190.367188 148.332031 190.195312 148.546875 189.890625 148.84375 C 189.597656 149.144531 189.171875 149.53125 188.785156 150.003906 C 188.445312 150.425781 188.21875 150.847656 188.085938 151.207031 C 188.34375 150.984375 188.625 150.796875 188.898438 150.636719 C 188.988281 150.578125 189.085938 150.523438 189.179688 150.46875 C 189.648438 150.195312 190.089844 149.933594 190.4375 149.5625 Z M 192.765625 126.351562 C 192.859375 126.191406 192.941406 126.027344 193.015625 125.855469 C 192.832031 125.984375 192.664062 126.050781 192.527344 126.078125 C 192.203125 126.140625 192.074219 126.058594 192.074219 126 C 192.070312 125.925781 192.183594 125.878906 192.410156 125.753906 C 192.527344 125.6875 192.667969 125.597656 192.808594 125.449219 C 192.914062 125.335938 193.015625 125.1875 193.082031 125.003906 C 192.757812 124.96875 192.4375 124.960938 192.117188 124.992188 C 192.027344 125.386719 191.980469 125.667969 191.929688 125.847656 C 191.867188 126.066406 191.808594 126.148438 191.742188 126.148438 C 191.675781 126.140625 191.609375 126.054688 191.582031 125.824219 C 191.566406 125.65625 191.566406 125.40625 191.613281 125.0625 C 191.476562 125.089844 191.335938 125.125 191.203125 125.160156 C 191.101562 125.53125 191.039062 125.796875 190.988281 125.96875 C 190.921875 126.175781 190.859375 126.257812 190.789062 126.253906 C 190.726562 126.25 190.667969 126.164062 190.644531 125.933594 C 190.636719 125.796875 190.644531 125.59375 190.679688 125.339844 C 190.589844 125.375 190.503906 125.414062 190.417969 125.457031 C 190.363281 125.691406 190.351562 125.910156 190.347656 126.089844 C 190.351562 126.320312 190.355469 126.5 190.355469 126.640625 C 190.355469 126.917969 190.316406 127.039062 190.253906 127.050781 C 190.183594 127.0625 190.105469 126.96875 190.019531 126.691406 C 189.976562 126.550781 189.929688 126.363281 189.90625 126.113281 C 189.894531 126.007812 189.890625 125.890625 189.894531 125.765625 C 189.769531 125.847656 189.652344 125.9375 189.535156 126.035156 C 189.546875 126.527344 189.601562 126.867188 189.617188 127.09375 C 189.644531 127.359375 189.628906 127.476562 189.5625 127.5 C 189.503906 127.523438 189.40625 127.445312 189.285156 127.183594 C 189.21875 127.023438 189.140625 126.789062 189.089844 126.460938 C 188.996094 126.570312 188.902344 126.683594 188.816406 126.800781 C 188.898438 127.285156 189.042969 127.585938 189.113281 127.789062 C 189.195312 128 189.214844 128.105469 189.160156 128.148438 C 189.109375 128.1875 188.996094 128.160156 188.824219 127.972656 C 188.722656 127.847656 188.578125 127.652344 188.46875 127.363281 C 188.40625 127.480469 188.347656 127.605469 188.300781 127.734375 C 188.28125 127.78125 188.269531 127.835938 188.253906 127.882812 C 188.375 128.132812 188.5625 128.257812 188.667969 128.339844 C 188.796875 128.429688 188.867188 128.480469 188.863281 128.550781 C 188.863281 128.613281 188.78125 128.6875 188.5625 128.667969 C 188.457031 128.65625 188.3125 128.613281 188.160156 128.503906 C 188.140625 128.492188 188.125 128.472656 188.105469 128.460938 C 188.070312 128.664062 188.050781 128.863281 188.046875 129.070312 L 188.046875 129.179688 C 188.039062 129.421875 188.03125 129.914062 188.15625 130.070312 C 188.21875 130.152344 188.4375 130.164062 188.601562 130.167969 L 188.714844 130.175781 C 188.902344 130.183594 188.90625 130.175781 189.050781 129.960938 C 189.050781 129.960938 189.054688 129.960938 189.054688 129.957031 C 188.890625 129.910156 188.769531 129.839844 188.703125 129.777344 C 188.578125 129.664062 188.574219 129.574219 188.613281 129.523438 C 188.652344 129.464844 188.726562 129.453125 188.855469 129.46875 C 188.972656 129.476562 189.140625 129.523438 189.386719 129.515625 C 189.425781 129.460938 189.464844 129.414062 189.503906 129.359375 C 189.285156 129.28125 189.148438 129.171875 189.070312 129.089844 C 188.957031 128.960938 188.957031 128.871094 189 128.820312 C 189.042969 128.769531 189.121094 128.761719 189.253906 128.796875 C 189.382812 128.828125 189.566406 128.90625 189.851562 128.949219 C 189.886719 128.914062 189.925781 128.871094 189.964844 128.832031 C 189.929688 128.816406 189.890625 128.8125 189.859375 128.796875 C 189.6875 128.71875 189.574219 128.613281 189.503906 128.519531 C 189.371094 128.320312 189.414062 128.207031 189.46875 128.183594 C 189.535156 128.160156 189.605469 128.203125 189.738281 128.265625 C 189.859375 128.332031 190.027344 128.394531 190.382812 128.441406 C 190.460938 128.375 190.546875 128.304688 190.632812 128.242188 C 190.4375 128.15625 190.296875 128.050781 190.207031 127.96875 C 190.050781 127.8125 190.035156 127.710938 190.074219 127.660156 C 190.117188 127.605469 190.210938 127.613281 190.390625 127.675781 C 190.546875 127.726562 190.78125 127.824219 191.128906 127.886719 C 191.152344 127.875 191.171875 127.863281 191.191406 127.847656 C 191.324219 127.757812 191.449219 127.671875 191.578125 127.578125 C 191.539062 127.574219 191.492188 127.578125 191.457031 127.574219 C 191.226562 127.535156 191.058594 127.457031 190.945312 127.375 C 190.710938 127.203125 190.703125 127.066406 190.75 127.027344 C 190.800781 126.976562 190.894531 127.011719 191.09375 127.0625 C 191.296875 127.117188 191.605469 127.15625 192.179688 127.089844 C 192.183594 127.089844 192.183594 127.089844 192.183594 127.085938 C 192.230469 127.042969 192.269531 126.996094 192.3125 126.953125 C 192.113281 126.960938 191.949219 126.929688 191.824219 126.878906 C 191.53125 126.746094 191.503906 126.585938 191.542969 126.546875 C 191.59375 126.492188 191.691406 126.527344 191.914062 126.542969 C 192.101562 126.5625 192.359375 126.527344 192.765625 126.351562 Z M 196.566406 136.058594 L 196.867188 135.179688 C 195.136719 135.09375 193.355469 134.835938 191.640625 134.238281 C 191.609375 134.992188 191.304688 135.695312 190.8125 136.195312 L 193.226562 139.25 C 193.746094 138.261719 194.601562 137.453125 195.632812 137.023438 L 195.746094 136.972656 C 195.929688 136.898438 196.105469 136.832031 196.230469 136.710938 C 196.398438 136.554688 196.492188 136.289062 196.566406 136.058594 Z M 199.507812 135.195312 C 198.808594 135.214844 198.09375 135.222656 197.371094 135.199219 L 197.023438 136.214844 C 196.933594 136.488281 196.816406 136.832031 196.554688 137.074219 C 196.367188 137.25 196.132812 137.34375 195.925781 137.429688 L 195.816406 137.46875 C 194.828125 137.886719 194.011719 138.6875 193.5625 139.671875 L 194.441406 140.78125 C 195.148438 139.519531 196.328125 138.566406 197.707031 138.15625 L 197.820312 138.125 C 198.136719 138.03125 198.429688 137.949219 198.582031 137.734375 C 198.6875 137.589844 198.722656 137.390625 198.757812 137.175781 L 198.773438 137.085938 C 198.898438 136.414062 199.152344 135.769531 199.507812 135.195312 Z M 198.964844 152.957031 C 199.609375 152.34375 200.113281 151.632812 200.46875 150.882812 C 199.886719 151.699219 199.230469 152.398438 198.507812 152.960938 C 197.199219 153.976562 195.671875 154.53125 194.183594 154.53125 C 194.117188 154.53125 194.050781 154.53125 193.984375 154.527344 C 193.171875 154.5 192.375 154.308594 191.601562 154.121094 C 191.316406 154.046875 191.027344 153.980469 190.738281 153.917969 C 189.964844 153.753906 188.847656 153.589844 187.851562 153.917969 C 187.851562 153.925781 187.851562 153.933594 187.851562 153.941406 C 187.875 154.386719 187.921875 154.824219 188.097656 155.132812 C 188.984375 154.855469 189.933594 154.800781 190.84375 154.980469 C 191.125 155.035156 191.402344 155.109375 191.667969 155.183594 C 192.050781 155.285156 192.417969 155.382812 192.792969 155.429688 C 193.453125 155.503906 194.183594 155.40625 195.105469 155.125 C 196.660156 154.648438 197.957031 153.914062 198.964844 152.957031 Z M 197.644531 152.027344 C 198.9375 151.417969 199.945312 150.1875 200.308594 148.796875 C 199.140625 147.957031 198.144531 146.769531 197.101562 145.457031 L 193.378906 140.75 C 193.390625 140.839844 193.398438 140.921875 193.390625 140.996094 C 193.382812 141.265625 193.3125 141.429688 193.238281 141.429688 C 193.082031 141.429688 192.972656 140.847656 192.675781 140.210938 C 192.464844 139.742188 192.207031 139.371094 192.128906 139.160156 L 190.480469 137.078125 C 190.609375 137.625 190.546875 138.21875 190.46875 138.765625 C 190.371094 139.414062 190.269531 140.046875 190.097656 140.660156 C 190.105469 140.671875 190.117188 140.683594 190.121094 140.703125 L 191.097656 143.964844 C 191.183594 144.253906 191.269531 144.546875 191.351562 144.839844 C 191.375 144.507812 191.390625 144.121094 191.367188 143.710938 C 191.324219 142.390625 190.953125 141.359375 191.097656 141.292969 C 191.160156 141.265625 191.34375 141.488281 191.527344 141.917969 C 191.714844 142.34375 191.882812 142.972656 191.910156 143.6875 C 191.941406 144.402344 191.824219 145.046875 191.675781 145.488281 C 191.640625 145.585938 191.605469 145.683594 191.570312 145.761719 C 191.644531 146.148438 191.695312 146.539062 191.707031 146.9375 C 191.742188 148.121094 191.402344 149.152344 190.742188 149.851562 C 190.351562 150.269531 189.863281 150.554688 189.394531 150.832031 C 189.296875 150.886719 189.203125 150.941406 189.113281 150.996094 C 188.800781 151.183594 188.46875 151.40625 188.195312 151.675781 C 188.46875 151.542969 188.785156 151.464844 189.121094 151.453125 C 189.667969 151.429688 190.195312 151.570312 190.699219 151.699219 L 192.238281 152.101562 C 192.882812 152.269531 193.542969 152.441406 194.207031 152.519531 C 194.769531 152.582031 195.335938 152.582031 195.894531 152.511719 C 196.535156 152.433594 197.125 152.269531 197.644531 152.027344 Z M 199.703125 142.5625 C 199.761719 142.492188 199.828125 142.425781 199.890625 142.359375 C 198.886719 141.222656 197.808594 140.15625 196.664062 139.175781 C 196.660156 139.175781 196.660156 139.171875 196.65625 139.167969 C 195.867188 139.65625 195.195312 140.355469 194.773438 141.175781 C 194.769531 141.179688 194.761719 141.183594 194.757812 141.1875 L 197.5625 144.730469 C 198 143.992188 198.695312 143.433594 199.28125 142.972656 C 199.417969 142.859375 199.558594 142.714844 199.703125 142.5625 Z M 200.664062 143.265625 C 200.5 143.070312 200.335938 142.871094 200.171875 142.675781 C 200.117188 142.734375 200.0625 142.789062 200.003906 142.851562 C 199.855469 143.007812 199.703125 143.175781 199.539062 143.300781 C 198.914062 143.796875 198.222656 144.351562 197.839844 145.085938 C 197.984375 145.269531 198.132812 145.449219 198.273438 145.628906 C 198.421875 145.390625 198.632812 145.15625 198.902344 144.945312 C 199.082031 144.800781 199.269531 144.671875 199.453125 144.550781 C 199.664062 144.410156 199.859375 144.277344 200.042969 144.121094 C 200.277344 143.925781 200.558594 143.632812 200.664062 143.265625 Z M 200.976562 149.234375 C 200.976562 149.234375 200.976562 149.230469 200.976562 149.226562 C 200.875 149.171875 200.773438 149.109375 200.675781 149.046875 C 200.25 150.496094 199.179688 151.773438 197.820312 152.410156 C 197.265625 152.671875 196.632812 152.84375 195.945312 152.929688 C 195.640625 152.96875 195.332031 152.988281 195.023438 152.988281 C 194.730469 152.988281 194.445312 152.972656 194.160156 152.941406 C 193.464844 152.859375 192.789062 152.683594 192.136719 152.511719 L 190.597656 152.109375 C 190.121094 151.988281 189.621094 151.859375 189.140625 151.875 C 188.625 151.894531 188.183594 152.089844 187.929688 152.40625 C 187.90625 152.433594 187.875 152.453125 187.84375 152.464844 C 187.835938 152.699219 187.828125 152.933594 187.820312 153.164062 C 187.824219 153.265625 187.828125 153.375 187.832031 153.480469 C 188.894531 153.164062 190.03125 153.335938 190.828125 153.503906 C 191.117188 153.566406 191.410156 153.640625 191.703125 153.710938 C 192.453125 153.890625 193.226562 154.082031 194 154.105469 C 195.453125 154.15625 196.960938 153.628906 198.253906 152.625 C 199.320312 151.796875 200.230469 150.652344 200.976562 149.234375 Z M 200.359375 142.070312 C 201.238281 142.34375 202.230469 142.289062 203.121094 141.929688 C 201.703125 140.652344 200.148438 139.53125 198.492188 138.625 C 198.425781 138.585938 198.390625 138.519531 198.386719 138.449219 C 198.242188 138.507812 198.09375 138.550781 197.957031 138.59375 L 197.84375 138.625 C 197.566406 138.707031 197.300781 138.820312 197.042969 138.949219 C 198.164062 139.917969 199.226562 140.96875 200.210938 142.085938 C 200.253906 142.066406 200.308594 142.054688 200.359375 142.070312 Z M 201.816406 146.917969 C 202.195312 146.671875 202.605469 146.527344 203 146.496094 C 202.375 145.511719 201.691406 144.558594 200.964844 143.640625 C 200.828125 143.925781 200.609375 144.199219 200.308594 144.449219 C 200.109375 144.617188 199.894531 144.761719 199.683594 144.902344 C 199.503906 145.027344 199.328125 145.144531 199.164062 145.273438 C 198.878906 145.5 198.683594 145.734375 198.5625 145.976562 C 199.246094 146.789062 199.9375 147.515625 200.691406 148.074219 C 200.953125 147.695312 201.320312 147.242188 201.816406 146.917969 Z M 202.109375 137.078125 C 202.242188 136.851562 202.515625 136.367188 202.894531 136.070312 C 202.25 135.914062 201.601562 135.78125 200.953125 135.671875 C 200.589844 135.644531 200.230469 135.632812 199.867188 135.632812 C 199.847656 135.632812 199.828125 135.632812 199.808594 135.632812 C 199.539062 136.109375 199.347656 136.632812 199.25 137.171875 L 199.234375 137.261719 C 199.191406 137.492188 199.144531 137.753906 199 137.976562 C 199.789062 138.613281 200.601562 139.265625 201.484375 139.78125 C 201.625 139.867188 201.769531 139.945312 201.910156 140.015625 C 201.867188 139.957031 201.828125 139.894531 201.789062 139.828125 C 201.570312 139.421875 201.503906 138.910156 201.601562 138.386719 C 201.671875 137.988281 201.835938 137.574219 202.109375 137.078125 Z M 200.539062 154.480469 C 201.695312 153.394531 202.632812 151.515625 202.140625 149.746094 C 201.875 149.660156 201.613281 149.550781 201.367188 149.433594 C 201.117188 150.835938 200.382812 152.1875 199.25 153.261719 C 198.199219 154.269531 196.847656 155.03125 195.230469 155.527344 C 194.464844 155.761719 193.816406 155.875 193.234375 155.875 C 193.0625 155.875 192.90625 155.867188 192.746094 155.847656 C 192.339844 155.800781 191.941406 155.695312 191.558594 155.589844 C 191.300781 155.519531 191.03125 155.445312 190.765625 155.394531 C 190.003906 155.25 189.21875 155.273438 188.46875 155.460938 C 188.730469 155.574219 189.058594 155.5625 189.433594 155.550781 C 189.726562 155.542969 190.039062 155.527344 190.347656 155.582031 C 190.984375 155.691406 191.492188 156.042969 191.984375 156.386719 C 192.324219 156.621094 192.644531 156.84375 192.988281 156.976562 C 193.785156 157.285156 194.738281 157.109375 195.648438 156.867188 C 197.167969 156.464844 199.105469 155.828125 200.539062 154.480469 Z M 204.050781 143.066406 C 204.085938 143.023438 204.125 142.976562 204.167969 142.929688 C 203.9375 142.699219 203.703125 142.46875 203.464844 142.246094 C 202.566406 142.648438 201.5625 142.761719 200.632812 142.574219 C 200.726562 142.683594 200.820312 142.792969 200.910156 142.902344 C 201.375 142.871094 201.808594 143.019531 202.230469 143.167969 C 202.332031 143.207031 202.4375 143.242188 202.542969 143.277344 C 202.957031 143.414062 203.53125 143.511719 203.90625 143.222656 C 203.960938 143.179688 204.003906 143.125 204.050781 143.066406 Z M 202.546875 149.027344 C 203.171875 149.210938 203.84375 149.277344 204.554688 149.222656 C 204.167969 148.457031 203.75 147.710938 203.300781 146.976562 C 202.917969 146.945312 202.476562 147.070312 202.078125 147.328125 C 201.734375 147.550781 201.421875 147.886719 201.09375 148.351562 C 201.546875 148.644531 202.03125 148.871094 202.546875 149.027344 Z M 206.023438 141.214844 C 205.628906 141.269531 205.246094 141.308594 204.894531 141.308594 C 204.722656 141.308594 204.550781 141.300781 204.386719 141.289062 C 203.765625 141.234375 203.121094 141.074219 202.464844 140.808594 C 202.851562 141.125 203.226562 141.457031 203.589844 141.796875 C 204.429688 141.921875 205.324219 141.703125 206.023438 141.214844 Z M 205.179688 139.5 C 205.542969 139.285156 205.773438 138.851562 205.746094 138.421875 C 205.730469 138.160156 205.628906 137.898438 205.511719 137.636719 C 205.417969 137.414062 205.324219 137.210938 205.167969 137.074219 C 205 136.925781 204.734375 136.851562 204.4375 136.875 C 204.042969 136.914062 203.5 137.050781 203.160156 137.53125 C 203.070312 137.660156 203.007812 137.816406 202.984375 137.980469 C 202.9375 138.339844 203.042969 138.710938 203.167969 139.0625 C 203.226562 139.226562 203.289062 139.394531 203.398438 139.492188 C 203.515625 139.59375 203.695312 139.628906 203.875 139.65625 C 204.433594 139.738281 204.863281 139.6875 205.179688 139.5 Z M 206.316406 145.457031 C 206.320312 145.445312 206.324219 145.441406 206.324219 145.433594 C 205.746094 144.667969 205.121094 143.933594 204.457031 143.238281 C 204.4375 143.257812 204.414062 143.285156 204.378906 143.332031 C 204.320312 143.402344 204.25 143.484375 204.160156 143.558594 C 203.75 143.875 203.148438 143.921875 202.414062 143.679688 C 202.304688 143.644531 202.195312 143.609375 202.085938 143.570312 C 201.804688 143.46875 201.53125 143.375 201.261719 143.339844 C 202.074219 144.351562 202.820312 145.414062 203.507812 146.511719 C 203.53125 146.515625 203.554688 146.515625 203.578125 146.519531 C 204.285156 145.765625 205.308594 145.371094 206.316406 145.457031 Z M 206.460938 139.0625 C 206.476562 138.636719 206.410156 138.210938 206.269531 137.800781 L 206.234375 137.703125 C 206.128906 137.40625 206.035156 137.136719 205.875 136.9375 C 205.789062 136.90625 205.707031 136.875 205.617188 136.847656 C 205.765625 137.023438 205.871094 137.238281 205.957031 137.441406 C 206.082031 137.738281 206.207031 138.050781 206.230469 138.394531 C 206.265625 139 205.941406 139.613281 205.425781 139.921875 C 205.128906 140.09375 204.777344 140.179688 204.351562 140.179688 C 204.183594 140.179688 203.996094 140.167969 203.800781 140.140625 C 203.566406 140.101562 203.292969 140.046875 203.082031 139.863281 C 202.882812 139.6875 202.785156 139.441406 202.710938 139.226562 C 202.601562 138.902344 202.492188 138.53125 202.492188 138.148438 C 202.492188 138.070312 202.496094 137.996094 202.507812 137.917969 C 202.539062 137.671875 202.628906 137.4375 202.765625 137.246094 C 203.09375 136.792969 203.589844 136.503906 204.214844 136.414062 C 203.996094 136.355469 203.769531 136.289062 203.546875 136.230469 C 203.074219 136.230469 202.625 137.023438 202.472656 137.292969 C 202.222656 137.738281 202.074219 138.113281 202.015625 138.460938 C 201.9375 138.890625 201.988281 139.304688 202.160156 139.625 C 202.390625 140.046875 202.875 140.367188 203.453125 140.480469 C 204.027344 140.589844 204.632812 140.511719 205.152344 140.429688 C 205.5 140.375 205.859375 140.296875 206.09375 140.082031 C 206.378906 139.824219 206.453125 139.386719 206.460938 139.0625 Z M 206.71875 141.789062 C 206.746094 141.765625 206.765625 141.75 206.792969 141.730469 C 206.660156 141.640625 206.53125 141.550781 206.390625 141.460938 C 205.734375 141.96875 204.898438 142.246094 204.070312 142.25 C 204.25 142.421875 204.429688 142.597656 204.601562 142.78125 C 204.972656 142.832031 205.269531 142.828125 205.53125 142.773438 C 205.828125 142.710938 206.089844 142.570312 206.28125 142.371094 C 206.34375 142.300781 206.398438 142.21875 206.457031 142.128906 C 206.53125 142.011719 206.613281 141.894531 206.71875 141.789062 Z M 208.105469 148.144531 C 207.664062 147.367188 207.179688 146.609375 206.652344 145.878906 C 206.597656 145.941406 206.519531 145.976562 206.433594 145.960938 C 205.476562 145.824219 204.488281 146.199219 203.839844 146.953125 C 203.828125 146.964844 203.8125 146.980469 203.796875 146.988281 C 204.226562 147.699219 204.628906 148.429688 205 149.171875 C 205.953125 149.035156 206.984375 148.695312 208.105469 148.144531 Z M 207.664062 143.886719 C 208.074219 143.628906 208.503906 143.449219 208.925781 143.359375 C 208.386719 142.882812 207.816406 142.4375 207.191406 142 C 207.121094 142.015625 207.0625 142.042969 207.007812 142.097656 C 206.9375 142.164062 206.875 142.261719 206.804688 142.363281 C 206.742188 142.460938 206.675781 142.5625 206.585938 142.660156 C 206.335938 142.925781 206 143.105469 205.613281 143.1875 C 205.433594 143.222656 205.246094 143.238281 205.039062 143.234375 C 205.570312 143.808594 206.070312 144.410156 206.542969 145.027344 C 206.828125 144.566406 207.210938 144.171875 207.664062 143.886719 Z M 209.691406 138.855469 C 209.113281 138.433594 208.503906 138.046875 207.875 137.703125 C 207.410156 137.507812 206.945312 137.320312 206.472656 137.148438 C 206.53125 137.285156 206.582031 137.429688 206.628906 137.5625 L 206.660156 137.660156 C 206.820312 138.125 206.894531 138.601562 206.878906 139.078125 C 206.859375 139.664062 206.691406 140.105469 206.378906 140.394531 C 206.136719 140.613281 205.847656 140.71875 205.542969 140.78125 C 205.753906 140.761719 205.964844 140.738281 206.191406 140.699219 C 207.3125 140.507812 208.804688 140.027344 209.691406 138.855469 Z M 208.441406 141.257812 C 208.835938 140.976562 209.109375 140.515625 209.179688 140.027344 C 208.40625 140.601562 207.5 140.921875 206.699219 141.09375 C 206.699219 141.117188 206.695312 141.136719 206.695312 141.15625 C 206.898438 141.289062 207.101562 141.429688 207.300781 141.558594 C 207.355469 141.558594 207.410156 141.558594 207.46875 141.554688 L 207.53125 141.554688 C 207.855469 141.546875 208.179688 141.441406 208.441406 141.257812 Z M 209.441406 147.421875 C 210.15625 147 210.84375 146.542969 211.519531 146.070312 C 210.8125 145.203125 210.121094 144.457031 209.394531 143.777344 C 208.917969 143.816406 208.40625 143.996094 207.914062 144.300781 C 207.472656 144.582031 207.109375 144.980469 206.859375 145.445312 C 207.449219 146.25 207.992188 147.089844 208.480469 147.957031 C 208.796875 147.792969 209.113281 147.617188 209.441406 147.421875 Z M 210.574219 139.617188 C 210.757812 139.550781 210.902344 139.390625 210.96875 139.199219 C 210.734375 139.070312 210.5 138.945312 210.261719 138.824219 C 210.257812 138.859375 210.25 138.902344 210.226562 138.9375 C 210.101562 139.125 209.964844 139.296875 209.820312 139.457031 C 209.839844 139.464844 209.859375 139.476562 209.875 139.492188 C 210.0625 139.660156 210.339844 139.707031 210.574219 139.617188 Z M 211.085938 137.738281 C 211.308594 137.414062 211.378906 137.011719 211.285156 136.664062 C 211.222656 136.632812 211.160156 136.601562 211.097656 136.570312 C 209.597656 135.820312 208.019531 135.210938 206.40625 134.75 C 206.398438 134.746094 206.390625 134.742188 206.382812 134.734375 C 205.410156 134.789062 204.445312 134.863281 203.492188 134.941406 C 202.683594 135.003906 201.851562 135.070312 201.027344 135.121094 C 200.839844 135.132812 200.644531 135.144531 200.453125 135.152344 C 203.316406 135.253906 206.132812 136.089844 208.597656 137.554688 C 209.164062 137.804688 209.71875 138.070312 210.273438 138.351562 C 210.613281 138.222656 210.902344 138.007812 211.085938 137.738281 Z M 211.328125 141.675781 L 209.617188 139.910156 C 209.570312 140.574219 209.222656 141.222656 208.679688 141.605469 C 208.429688 141.78125 208.140625 141.898438 207.835938 141.945312 C 208.421875 142.375 208.96875 142.8125 209.484375 143.285156 C 209.542969 143.285156 209.597656 143.277344 209.652344 143.285156 C 209.816406 142.820312 210.109375 142.414062 210.492188 142.113281 C 210.730469 141.921875 211.023438 141.773438 211.328125 141.675781 Z M 212.929688 140.496094 C 212.972656 140.480469 213.019531 140.472656 213.070312 140.464844 C 212.503906 140.09375 211.925781 139.742188 211.339844 139.410156 C 211.222656 139.679688 211 139.90625 210.726562 140.011719 C 210.609375 140.058594 210.484375 140.074219 210.363281 140.074219 L 211.800781 141.5625 C 211.820312 141.558594 211.84375 141.554688 211.859375 141.550781 C 211.960938 141.03125 212.441406 140.636719 212.929688 140.496094 Z M 213.84375 144.269531 L 211.710938 142.074219 C 211.382812 142.144531 211.042969 142.292969 210.785156 142.496094 C 210.4375 142.773438 210.175781 143.167969 210.0625 143.601562 C 210.046875 143.65625 210.011719 143.707031 209.964844 143.738281 C 210.609375 144.363281 211.230469 145.046875 211.867188 145.828125 C 212.546875 145.335938 213.207031 144.816406 213.84375 144.269531 Z M 214.164062 143.996094 C 214.722656 143.507812 215.269531 142.996094 215.796875 142.46875 C 215.121094 141.910156 214.417969 141.382812 213.699219 140.882812 C 213.476562 140.886719 213.261719 140.90625 213.0625 140.964844 C 212.691406 141.070312 212.308594 141.390625 212.324219 141.773438 C 212.328125 141.835938 212.304688 141.902344 212.257812 141.949219 C 212.246094 141.960938 212.226562 141.972656 212.210938 141.980469 Z M 216.746094 136.960938 C 216.847656 136.851562 216.886719 136.6875 216.851562 136.546875 C 216.8125 136.402344 216.699219 136.28125 216.554688 136.234375 C 216.515625 136.222656 216.484375 136.195312 216.457031 136.160156 C 215.859375 135.878906 215.246094 135.652344 214.636719 135.464844 C 214.582031 135.65625 214.621094 135.894531 214.746094 136.105469 C 214.894531 136.351562 215.121094 136.539062 215.421875 136.75 C 215.628906 136.894531 215.871094 137.054688 216.128906 137.109375 C 216.375 137.164062 216.621094 137.101562 216.746094 136.960938 Z M 216.871094 139.8125 L 213.921875 138.117188 C 213.207031 137.707031 212.480469 137.289062 211.738281 136.898438 C 211.757812 137.269531 211.652344 137.65625 211.429688 137.976562 C 211.261719 138.222656 211.023438 138.4375 210.742188 138.597656 C 210.90625 138.683594 211.070312 138.773438 211.234375 138.867188 C 211.238281 138.867188 211.238281 138.867188 211.242188 138.867188 C 211.296875 138.871094 211.351562 138.902344 211.382812 138.949219 C 212.1875 139.398438 212.96875 139.878906 213.730469 140.394531 C 213.859375 140.394531 213.988281 140.394531 214.117188 140.394531 C 214.238281 140.398438 214.355469 140.398438 214.472656 140.398438 C 215.300781 140.390625 216.128906 140.1875 216.871094 139.8125 Z M 218.1875 136.5625 C 217.578125 136.058594 216.71875 135.640625 216.160156 135.371094 L 215.996094 135.292969 C 213.667969 134.160156 210.929688 133.96875 208.28125 133.785156 L 207.957031 133.761719 C 205.941406 133.621094 203.878906 133.644531 201.882812 133.671875 C 201.296875 133.675781 200.707031 133.683594 200.117188 133.6875 C 198.679688 133.699219 197.222656 133.402344 195.832031 133.117188 C 194.269531 132.800781 192.785156 132.5 191.277344 132.582031 C 191.457031 132.949219 191.578125 133.335938 191.625 133.726562 C 191.632812 133.730469 191.644531 133.726562 191.65625 133.730469 C 194.753906 134.839844 198.117188 134.8125 200.996094 134.636719 C 201.8125 134.585938 202.648438 134.519531 203.453125 134.453125 C 205.777344 134.269531 208.183594 134.082031 210.558594 134.242188 C 213.566406 134.449219 216.167969 135.242188 218.1875 136.5625 Z M 217.484375 137.675781 C 217.652344 137.378906 217.667969 137.023438 217.523438 136.765625 C 217.511719 136.75 217.511719 136.730469 217.503906 136.710938 C 217.425781 136.664062 217.347656 136.625 217.273438 136.582031 C 217.292969 136.820312 217.222656 137.066406 217.058594 137.242188 C 216.875 137.441406 216.601562 137.554688 216.304688 137.554688 C 216.21875 137.554688 216.132812 137.542969 216.042969 137.523438 C 215.707031 137.453125 215.425781 137.265625 215.183594 137.097656 C 214.886719 136.890625 214.582031 136.648438 214.386719 136.324219 C 214.199219 136.011719 214.148438 135.652344 214.230469 135.34375 C 212.910156 134.976562 211.621094 134.800781 210.527344 134.726562 C 209.628906 134.667969 208.722656 134.660156 207.816406 134.679688 C 209.015625 135.085938 210.183594 135.570312 211.316406 136.132812 C 211.371094 136.160156 211.429688 136.195312 211.484375 136.222656 C 211.492188 136.222656 211.496094 136.226562 211.496094 136.226562 C 212.40625 136.6875 213.296875 137.199219 214.160156 137.691406 L 215.78125 138.625 C 216.097656 138.554688 216.414062 138.472656 216.710938 138.335938 C 216.960938 138.222656 217.292969 138.019531 217.484375 137.675781 Z M 218.570312 139.148438 C 218.386719 139.363281 218.160156 139.566406 217.882812 139.765625 C 216.898438 140.472656 215.691406 140.875 214.480469 140.886719 C 214.464844 140.886719 214.449219 140.886719 214.433594 140.886719 C 215.003906 141.296875 215.554688 141.722656 216.09375 142.167969 C 216.707031 141.539062 217.300781 140.878906 217.863281 140.199219 C 218.160156 139.835938 218.398438 139.488281 218.570312 139.148438 Z M 218.523438 138.363281 C 218.664062 138.082031 218.707031 137.777344 218.667969 137.503906 C 218.460938 137.339844 218.246094 137.191406 218.03125 137.046875 C 218.058594 137.324219 217.996094 137.625 217.847656 137.886719 C 217.652344 138.234375 217.320312 138.519531 216.886719 138.722656 C 216.699219 138.808594 216.5 138.875 216.308594 138.925781 L 217.359375 139.53125 C 217.441406 139.476562 217.523438 139.421875 217.605469 139.367188 C 218.050781 139.042969 218.355469 138.714844 218.523438 138.363281 Z M 219.6875 137.453125 C 219.847656 138.457031 219.441406 139.558594 218.480469 140.71875 C 216.039062 143.675781 213.136719 146.167969 209.851562 148.125 C 207.679688 149.417969 205.769531 150.058594 204.074219 150.058594 C 203.710938 150.058594 203.355469 150.023438 203.011719 149.960938 C 203.3125 151.710938 202.589844 153.664062 201.089844 155.078125 C 199.523438 156.546875 197.464844 157.226562 195.847656 157.652344 C 195.230469 157.820312 194.585938 157.953125 193.949219 157.953125 C 193.523438 157.953125 193.105469 157.894531 192.699219 157.738281 C 192.265625 157.570312 191.894531 157.308594 191.527344 157.054688 C 191.089844 156.75 190.675781 156.460938 190.210938 156.382812 C 189.984375 156.34375 189.726562 156.351562 189.460938 156.363281 C 188.941406 156.382812 188.351562 156.402344 187.855469 156.042969 C 187.667969 155.910156 187.527344 155.742188 187.417969 155.554688 C 187.304688 155.742188 187.164062 155.910156 186.976562 156.042969 C 186.480469 156.402344 185.890625 156.382812 185.371094 156.363281 C 185.101562 156.351562 184.847656 156.34375 184.617188 156.382812 C 184.15625 156.460938 183.738281 156.75 183.300781 157.054688 C 182.9375 157.308594 182.566406 157.570312 182.132812 157.738281 C 181.726562 157.894531 181.304688 157.953125 180.882812 157.953125 C 180.246094 157.953125 179.601562 157.820312 178.980469 157.652344 C 177.363281 157.226562 175.308594 156.546875 173.742188 155.078125 C 172.242188 153.664062 171.519531 151.710938 171.816406 149.960938 C 171.472656 150.023438 171.121094 150.058594 170.757812 150.058594 C 169.058594 150.058594 167.152344 149.417969 164.976562 148.125 C 161.695312 146.167969 158.789062 143.675781 156.347656 140.71875 C 155.390625 139.558594 154.984375 138.457031 155.140625 137.453125 C 155.359375 136.066406 157.21875 135.171875 158.324219 134.636719 L 158.488281 134.5625 C 160.953125 133.363281 163.769531 133.164062 166.492188 132.976562 L 166.820312 132.949219 C 168.863281 132.804688 170.945312 132.832031 172.957031 132.859375 C 173.546875 132.867188 174.132812 132.871094 174.714844 132.875 C 174.734375 132.875 174.753906 132.875 174.769531 132.875 C 176.128906 132.875 177.503906 132.597656 178.84375 132.324219 C 180.53125 131.976562 182.277344 131.625 184.050781 131.804688 C 184.257812 131.546875 184.492188 131.304688 184.761719 131.09375 C 185.015625 130.890625 185.253906 130.738281 185.484375 130.621094 C 185.390625 130.535156 185.316406 130.433594 185.25 130.328125 C 185.210938 130.277344 185.171875 130.21875 185.125 130.15625 C 184.84375 129.789062 184.550781 129.402344 184.21875 129.09375 C 183.933594 128.835938 183.617188 128.617188 183.28125 128.386719 C 182.914062 128.136719 182.53125 127.878906 182.199219 127.554688 C 181.449219 126.828125 180.980469 125.8125 180.917969 124.761719 C 180.910156 124.597656 181.023438 124.453125 181.179688 124.421875 C 182.394531 124.195312 183.644531 124.355469 184.695312 124.875 C 185.8125 125.425781 186.699219 126.378906 187.128906 127.5 C 187.296875 127.929688 187.390625 128.386719 187.417969 128.851562 C 187.441406 128.386719 187.535156 127.929688 187.703125 127.5 C 188.128906 126.378906 189.015625 125.425781 190.128906 124.875 C 191.1875 124.355469 192.4375 124.195312 193.652344 124.421875 C 193.808594 124.453125 193.921875 124.597656 193.910156 124.761719 C 193.851562 125.8125 193.382812 126.828125 192.628906 127.554688 C 192.296875 127.878906 191.917969 128.136719 191.550781 128.386719 C 191.214844 128.617188 190.898438 128.835938 190.613281 129.09375 C 190.28125 129.402344 189.984375 129.789062 189.707031 130.15625 C 189.65625 130.21875 189.617188 130.277344 189.582031 130.328125 C 189.515625 130.433594 189.441406 130.535156 189.347656 130.621094 C 189.578125 130.738281 189.8125 130.890625 190.070312 131.09375 C 190.339844 131.308594 190.574219 131.546875 190.78125 131.804688 C 192.554688 131.625 194.300781 131.976562 195.988281 132.324219 C 197.339844 132.597656 198.738281 132.886719 200.113281 132.875 C 200.699219 132.871094 201.285156 132.867188 201.871094 132.859375 C 203.882812 132.832031 205.960938 132.804688 208.015625 132.949219 L 208.339844 132.976562 C 211.058594 133.164062 213.878906 133.363281 216.347656 134.5625 L 216.507812 134.636719 C 217.613281 135.171875 219.472656 136.066406 219.6875 137.453125 Z M 185.96875 138.585938 C 185.976562 138.578125 185.988281 138.566406 186 138.546875 C 186.015625 138.511719 186.003906 138.53125 186.011719 138.527344 C 186.019531 138.53125 186.035156 138.53125 186.070312 138.511719 C 186.132812 138.472656 186.226562 138.359375 186.296875 138.265625 C 186.433594 138.070312 186.523438 137.855469 186.59375 137.675781 C 186.734375 137.308594 186.824219 137.066406 186.894531 137.078125 C 186.957031 137.09375 186.988281 137.339844 186.929688 137.765625 C 186.898438 137.972656 186.835938 138.238281 186.691406 138.511719 C 186.609375 138.648438 186.535156 138.785156 186.363281 138.925781 C 186.269531 139.003906 186.105469 139.066406 185.9375 139.046875 C 185.890625 139.140625 185.847656 139.238281 185.800781 139.332031 C 185.703125 139.515625 185.605469 139.6875 185.496094 139.851562 L 185.414062 139.972656 C 185.390625 140 185.371094 140.035156 185.320312 140.089844 C 185.367188 140.246094 185.421875 140.410156 185.492188 140.585938 C 185.503906 140.570312 185.507812 140.5625 185.519531 140.550781 C 185.605469 140.464844 185.726562 140.449219 185.832031 140.496094 C 185.871094 140.515625 185.910156 140.542969 185.9375 140.570312 C 186.007812 140.640625 186.042969 140.707031 186.0625 140.757812 C 186.097656 140.707031 186.132812 140.660156 186.164062 140.609375 C 186.320312 140.363281 186.433594 140.117188 186.515625 139.902344 C 186.671875 139.472656 186.71875 139.175781 186.796875 139.175781 C 186.867188 139.171875 186.960938 139.488281 186.882812 140 C 186.847656 140.257812 186.757812 140.554688 186.59375 140.863281 C 186.554688 140.941406 186.511719 141.019531 186.460938 141.09375 L 186.382812 141.214844 C 186.34375 141.257812 186.296875 141.324219 186.1875 141.378906 C 186.074219 141.4375 185.898438 141.417969 185.804688 141.34375 C 185.769531 141.375 185.734375 141.398438 185.691406 141.414062 C 185.691406 141.417969 185.691406 141.421875 185.691406 141.421875 C 186.089844 142.277344 186.714844 142.914062 187.417969 143.199219 C 188.117188 142.914062 188.738281 142.277344 189.140625 141.421875 C 189.140625 141.421875 189.140625 141.417969 189.140625 141.414062 C 189.097656 141.398438 189.058594 141.375 189.027344 141.34375 C 188.933594 141.417969 188.753906 141.4375 188.644531 141.378906 C 188.535156 141.324219 188.484375 141.257812 188.449219 141.214844 L 188.371094 141.09375 C 188.320312 141.019531 188.273438 140.941406 188.234375 140.863281 C 188.074219 140.554688 187.984375 140.257812 187.945312 140 C 187.867188 139.488281 187.964844 139.171875 188.03125 139.175781 C 188.109375 139.175781 188.15625 139.472656 188.316406 139.902344 C 188.398438 140.117188 188.511719 140.363281 188.667969 140.609375 C 188.699219 140.660156 188.734375 140.707031 188.769531 140.757812 C 188.789062 140.707031 188.824219 140.640625 188.890625 140.570312 C 188.921875 140.542969 188.957031 140.515625 189 140.496094 C 189.105469 140.445312 189.230469 140.46875 189.308594 140.550781 C 189.324219 140.5625 189.328125 140.570312 189.335938 140.585938 C 189.410156 140.410156 189.464844 140.246094 189.507812 140.089844 C 189.460938 140.035156 189.4375 140 189.414062 139.972656 L 189.335938 139.851562 C 189.226562 139.6875 189.125 139.515625 189.03125 139.332031 C 188.984375 139.238281 188.933594 139.140625 188.894531 139.046875 C 188.726562 139.066406 188.558594 139.003906 188.46875 138.925781 C 188.292969 138.785156 188.21875 138.648438 188.140625 138.511719 C 187.992188 138.238281 187.933594 137.972656 187.902344 137.765625 C 187.84375 137.339844 187.875 137.09375 187.9375 137.078125 C 188.003906 137.066406 188.097656 137.308594 188.234375 137.675781 C 188.308594 137.855469 188.398438 138.070312 188.535156 138.265625 C 188.601562 138.359375 188.695312 138.472656 188.761719 138.511719 C 188.796875 138.53125 188.8125 138.53125 188.816406 138.527344 C 188.8125 138.53125 188.804688 138.535156 188.792969 138.550781 L 189.273438 138.578125 C 189.347656 138.738281 189.425781 138.90625 189.511719 139.078125 C 189.566406 139.183594 189.625 139.28125 189.679688 139.378906 C 189.707031 139.28125 189.722656 139.214844 189.75 139.1875 C 189.777344 139.015625 189.804688 138.84375 189.832031 138.671875 C 189.933594 137.972656 190.007812 137.195312 189.613281 136.695312 C 189.410156 136.441406 189.070312 136.257812 188.65625 136.183594 C 188.265625 136.109375 187.84375 136.128906 187.4375 136.152344 C 187.429688 136.152344 187.429688 136.15625 187.425781 136.15625 C 187.421875 136.15625 187.417969 136.152344 187.417969 136.152344 C 187.414062 136.152344 187.410156 136.15625 187.40625 136.15625 C 187.402344 136.15625 187.398438 136.152344 187.394531 136.152344 C 186.988281 136.128906 186.566406 136.109375 186.171875 136.183594 C 185.757812 136.257812 185.421875 136.441406 185.21875 136.695312 C 184.820312 137.195312 184.898438 137.972656 185 138.671875 C 185.027344 138.84375 185.050781 139.015625 185.078125 139.1875 C 185.105469 139.214844 185.125 139.28125 185.148438 139.378906 C 185.207031 139.28125 185.261719 139.183594 185.316406 139.078125 C 185.40625 138.90625 185.484375 138.738281 185.558594 138.578125 L 185.628906 138.410156 C 185.671875 138.3125 185.78125 138.269531 185.878906 138.3125 C 185.976562 138.355469 186.019531 138.46875 185.976562 138.566406 C 185.972656 138.574219 185.96875 138.578125 185.96875 138.585938 " fill-opacity="1" fill-rule="nonzero"/></g><path fill="#000000" d="M 204.46875 138.925781 C 204.71875 138.839844 204.894531 138.5625 204.84375 138.320312 C 204.796875 138.09375 204.566406 137.855469 204.359375 137.738281 C 204.351562 137.738281 204.34375 137.734375 204.332031 137.734375 C 204.273438 137.734375 204.140625 137.789062 203.832031 138.054688 L 203.765625 138.113281 C 203.671875 138.191406 203.550781 138.304688 203.535156 138.417969 C 203.523438 138.503906 203.582031 138.621094 203.6875 138.722656 C 203.902344 138.933594 204.214844 139.019531 204.46875 138.925781 Z M 205.316406 138.222656 C 205.410156 138.699219 205.101562 139.21875 204.628906 139.390625 C 204.511719 139.429688 204.386719 139.453125 204.261719 139.453125 C 203.933594 139.453125 203.597656 139.316406 203.347656 139.074219 C 203.128906 138.859375 203.027344 138.601562 203.058594 138.355469 C 203.09375 138.074219 203.289062 137.878906 203.457031 137.738281 L 203.519531 137.683594 C 203.777344 137.464844 204.203125 137.097656 204.589844 137.3125 C 204.875 137.46875 205.234375 137.804688 205.316406 138.222656 " fill-opacity="1" fill-rule="nonzero"/><path fill="#000000" d="M 197.253906 148.773438 C 197.332031 148.339844 197.296875 147.855469 197.15625 147.367188 C 197.042969 146.960938 196.871094 146.621094 196.652344 146.363281 C 196.398438 146.074219 196.082031 145.882812 195.753906 145.828125 C 195.363281 145.765625 194.96875 145.890625 194.632812 146.023438 C 194.574219 146.050781 194.507812 146.070312 194.445312 146.085938 C 194.367188 146.109375 194.292969 146.128906 194.234375 146.160156 C 194.160156 146.203125 194.066406 146.347656 194.003906 146.445312 L 193.980469 146.484375 C 193.878906 146.644531 193.792969 146.820312 193.71875 147.011719 C 193.605469 147.328125 193.53125 147.695312 193.480469 148.164062 C 193.453125 148.4375 193.441406 148.660156 193.488281 148.871094 C 193.5625 149.242188 193.816406 149.59375 194.195312 149.835938 C 194.507812 150.039062 194.894531 150.179688 195.410156 150.273438 C 195.628906 150.308594 195.867188 150.339844 196.078125 150.292969 C 196.265625 150.25 196.453125 150.140625 196.628906 149.976562 C 196.949219 149.679688 197.167969 149.25 197.253906 148.773438 Z M 197.5625 147.25 C 197.722656 147.804688 197.757812 148.34375 197.667969 148.847656 C 197.566406 149.417969 197.296875 149.925781 196.914062 150.285156 C 196.683594 150.5 196.433594 150.644531 196.171875 150.703125 C 196.054688 150.730469 195.945312 150.738281 195.832031 150.738281 C 195.664062 150.738281 195.5 150.714844 195.339844 150.6875 C 194.765625 150.585938 194.328125 150.425781 193.964844 150.1875 C 193.5 149.886719 193.171875 149.4375 193.074219 148.957031 C 193.015625 148.675781 193.035156 148.390625 193.0625 148.125 C 193.117188 147.617188 193.203125 147.21875 193.328125 146.867188 C 193.410156 146.648438 193.507812 146.441406 193.628906 146.257812 L 193.652344 146.21875 C 193.742188 146.074219 193.867188 145.878906 194.050781 145.78125 C 194.136719 145.738281 194.234375 145.707031 194.328125 145.683594 C 194.378906 145.664062 194.433594 145.648438 194.480469 145.628906 C 194.847656 145.488281 195.328125 145.328125 195.820312 145.414062 C 196.246094 145.480469 196.652344 145.71875 196.96875 146.085938 C 197.222656 146.394531 197.425781 146.78125 197.5625 147.25 " fill-opacity="1" fill-rule="nonzero"/><path fill="#000000" d="M 196.722656 148.628906 C 196.847656 148.242188 196.824219 147.789062 196.660156 147.355469 C 196.578125 147.148438 196.484375 147 196.367188 146.914062 C 196.242188 146.8125 196.054688 146.757812 195.84375 146.765625 C 195.75 146.765625 195.65625 146.78125 195.566406 146.792969 C 195.449219 146.8125 195.324219 146.828125 195.199219 146.828125 C 195.058594 146.832031 194.976562 146.851562 194.859375 146.917969 C 194.53125 147.109375 194.261719 147.402344 194.097656 147.738281 C 193.984375 147.972656 193.925781 148.214844 193.933594 148.441406 C 193.9375 148.6875 194.015625 148.914062 194.152344 149.082031 C 194.332031 149.304688 194.621094 149.457031 195.027344 149.539062 C 195.367188 149.605469 195.667969 149.59375 195.914062 149.511719 C 196.28125 149.378906 196.589844 149.042969 196.722656 148.628906 Z M 197.046875 147.203125 C 197.246094 147.726562 197.277344 148.277344 197.121094 148.761719 C 196.949219 149.296875 196.539062 149.738281 196.050781 149.910156 C 195.867188 149.972656 195.667969 150.003906 195.453125 150.003906 C 195.289062 150.003906 195.125 149.988281 194.945312 149.953125 C 194.441406 149.855469 194.066406 149.648438 193.824219 149.347656 C 193.632812 149.105469 193.523438 148.785156 193.515625 148.449219 C 193.515625 148.4375 193.515625 148.421875 193.515625 148.414062 C 193.515625 148.128906 193.585938 147.832031 193.726562 147.550781 C 193.925781 147.140625 194.253906 146.785156 194.648438 146.550781 C 194.828125 146.445312 195 146.402344 195.203125 146.40625 C 195.300781 146.40625 195.398438 146.390625 195.507812 146.378906 C 195.617188 146.363281 195.726562 146.34375 195.835938 146.34375 C 196.054688 146.34375 196.363281 146.375 196.625 146.578125 C 196.804688 146.714844 196.941406 146.917969 197.046875 147.203125 " fill-opacity="1" fill-rule="nonzero"/><path fill="#000000" d="M 196.335938 148.253906 C 196.34375 148.003906 196.226562 147.78125 196.003906 147.648438 C 195.742188 147.492188 195.417969 147.488281 195.167969 147.640625 C 194.914062 147.796875 194.839844 148.089844 194.855469 148.316406 C 194.867188 148.535156 194.976562 148.816406 195.246094 148.933594 C 195.457031 149.03125 195.726562 149.011719 195.9375 148.894531 C 196.167969 148.761719 196.324219 148.511719 196.335938 148.253906 Z M 196.21875 147.285156 C 196.574219 147.5 196.769531 147.867188 196.753906 148.273438 C 196.734375 148.671875 196.496094 149.058594 196.144531 149.261719 C 195.957031 149.367188 195.75 149.421875 195.542969 149.421875 C 195.378906 149.421875 195.222656 149.386719 195.074219 149.320312 C 194.710938 149.15625 194.464844 148.78125 194.4375 148.339844 C 194.410156 147.898438 194.605469 147.492188 194.957031 147.28125 C 195.332031 147.050781 195.828125 147.050781 196.21875 147.285156 " fill-opacity="1" fill-rule="nonzero"/><path fill="#000000" d="M 192.675781 141.667969 C 192.839844 142.230469 192.851562 142.773438 192.785156 143.148438 C 192.71875 143.527344 192.601562 143.738281 192.53125 143.726562 C 192.375 143.691406 192.457031 142.816406 192.152344 141.824219 C 191.867188 140.824219 191.320312 140.140625 191.433594 140.027344 C 191.480469 139.976562 191.695312 140.089844 191.957031 140.367188 C 192.214844 140.644531 192.503906 141.101562 192.675781 141.667969 " fill-opacity="1" fill-rule="nonzero"/><path fill="#000000" d="M 183.398438 140.027344 C 183.511719 140.140625 182.964844 140.824219 182.679688 141.824219 C 182.371094 142.816406 182.457031 143.691406 182.300781 143.726562 C 182.230469 143.738281 182.113281 143.527344 182.046875 143.148438 C 181.980469 142.773438 181.988281 142.230469 182.15625 141.667969 C 182.324219 141.101562 182.613281 140.644531 182.875 140.367188 C 183.136719 140.089844 183.347656 139.976562 183.398438 140.027344 " fill-opacity="1" fill-rule="nonzero"/><path fill="#000000" d="M 181.34375 148.871094 C 181.390625 148.664062 181.378906 148.4375 181.347656 148.167969 C 181.300781 147.695312 181.222656 147.328125 181.109375 147.011719 C 181.039062 146.820312 180.953125 146.644531 180.851562 146.484375 L 180.828125 146.445312 C 180.765625 146.347656 180.671875 146.203125 180.589844 146.160156 C 180.535156 146.128906 180.464844 146.109375 180.386719 146.085938 C 180.320312 146.070312 180.257812 146.050781 180.195312 146.023438 C 179.925781 145.914062 179.609375 145.8125 179.289062 145.8125 C 179.21875 145.8125 179.148438 145.816406 179.078125 145.828125 C 178.75 145.882812 178.429688 146.074219 178.179688 146.363281 C 177.960938 146.621094 177.789062 146.960938 177.675781 147.367188 C 177.53125 147.855469 177.496094 148.339844 177.574219 148.773438 C 177.65625 149.25 177.878906 149.679688 178.199219 149.976562 C 178.375 150.140625 178.566406 150.25 178.753906 150.292969 C 178.964844 150.339844 179.199219 150.308594 179.417969 150.273438 C 179.9375 150.179688 180.324219 150.039062 180.636719 149.835938 C 181.011719 149.59375 181.269531 149.242188 181.34375 148.871094 Z M 181.765625 148.125 C 181.796875 148.390625 181.8125 148.675781 181.753906 148.957031 C 181.65625 149.4375 181.332031 149.886719 180.863281 150.1875 C 180.5 150.425781 180.066406 150.585938 179.488281 150.6875 C 179.332031 150.714844 179.167969 150.738281 178.996094 150.738281 C 178.886719 150.738281 178.773438 150.730469 178.660156 150.703125 C 178.398438 150.644531 178.148438 150.5 177.914062 150.285156 C 177.53125 149.925781 177.261719 149.417969 177.164062 148.847656 C 177.074219 148.351562 177.113281 147.796875 177.269531 147.25 C 177.402344 146.78125 177.601562 146.394531 177.863281 146.085938 C 178.175781 145.71875 178.585938 145.480469 179.007812 145.414062 C 179.503906 145.328125 179.984375 145.488281 180.347656 145.628906 C 180.398438 145.648438 180.449219 145.664062 180.503906 145.683594 C 180.59375 145.707031 180.691406 145.738281 180.78125 145.78125 C 180.964844 145.878906 181.089844 146.074219 181.179688 146.21875 L 181.203125 146.257812 C 181.320312 146.441406 181.421875 146.648438 181.503906 146.867188 C 181.628906 147.21875 181.710938 147.617188 181.765625 148.125 " fill-opacity="1" fill-rule="nonzero"/><path fill="#000000" d="M 180.898438 148.441406 C 180.902344 148.214844 180.847656 147.972656 180.730469 147.738281 C 180.566406 147.402344 180.300781 147.109375 179.972656 146.917969 C 179.855469 146.851562 179.769531 146.828125 179.632812 146.828125 C 179.511719 146.828125 179.378906 146.8125 179.265625 146.792969 C 179.171875 146.78125 179.082031 146.765625 178.988281 146.765625 C 178.980469 146.765625 178.972656 146.765625 178.964844 146.765625 C 178.761719 146.765625 178.585938 146.816406 178.457031 146.914062 C 178.347656 147 178.253906 147.148438 178.171875 147.355469 C 178.007812 147.789062 177.984375 148.242188 178.105469 148.628906 C 178.238281 149.042969 178.550781 149.378906 178.917969 149.511719 C 179.164062 149.59375 179.460938 149.605469 179.804688 149.539062 C 180.207031 149.457031 180.5 149.304688 180.675781 149.082031 C 180.8125 148.914062 180.890625 148.6875 180.898438 148.441406 Z M 181.105469 147.550781 C 181.246094 147.847656 181.324219 148.15625 181.316406 148.449219 C 181.308594 148.785156 181.195312 149.105469 181.003906 149.347656 C 180.761719 149.648438 180.386719 149.855469 179.886719 149.953125 C 179.710938 149.988281 179.539062 150.003906 179.378906 150.003906 C 179.164062 150.003906 178.964844 149.972656 178.78125 149.910156 C 178.292969 149.738281 177.878906 149.296875 177.710938 148.761719 C 177.554688 148.277344 177.578125 147.726562 177.777344 147.203125 C 177.886719 146.917969 178.027344 146.714844 178.207031 146.578125 C 178.46875 146.375 178.777344 146.332031 178.996094 146.34375 C 179.105469 146.34375 179.214844 146.363281 179.324219 146.378906 C 179.433594 146.390625 179.527344 146.40625 179.628906 146.40625 C 179.839844 146.402344 180 146.445312 180.183594 146.550781 C 180.578125 146.785156 180.90625 147.140625 181.105469 147.550781 " fill-opacity="1" fill-rule="nonzero"/><path fill="#000000" d="M 179.976562 148.316406 C 179.988281 148.089844 179.910156 147.796875 179.660156 147.640625 C 179.539062 147.566406 179.398438 147.53125 179.25 147.53125 C 179.105469 147.53125 178.960938 147.570312 178.828125 147.648438 C 178.605469 147.78125 178.480469 148.003906 178.496094 148.253906 C 178.503906 148.511719 178.664062 148.761719 178.894531 148.894531 C 179.105469 149.011719 179.371094 149.03125 179.585938 148.933594 C 179.851562 148.816406 179.960938 148.535156 179.976562 148.316406 Z M 179.875 147.28125 C 180.222656 147.492188 180.421875 147.898438 180.390625 148.339844 C 180.367188 148.78125 180.121094 149.15625 179.753906 149.320312 C 179.609375 149.386719 179.449219 149.421875 179.289062 149.421875 C 179.082031 149.421875 178.871094 149.367188 178.6875 149.261719 C 178.335938 149.058594 178.097656 148.671875 178.074219 148.273438 C 178.058594 147.867188 178.261719 147.5 178.613281 147.285156 C 179 147.050781 179.496094 147.050781 179.875 147.28125 " fill-opacity="1" fill-rule="nonzero"/><path fill="#000000" d="M 171.144531 138.722656 C 171.25 138.621094 171.308594 138.503906 171.292969 138.417969 C 171.28125 138.304688 171.15625 138.191406 171.066406 138.113281 L 171.003906 138.054688 C 170.6875 137.789062 170.554688 137.734375 170.5 137.734375 C 170.484375 137.734375 170.476562 137.738281 170.472656 137.738281 C 170.265625 137.855469 170.03125 138.09375 169.984375 138.320312 C 169.9375 138.5625 170.109375 138.839844 170.359375 138.925781 C 170.613281 139.019531 170.925781 138.933594 171.144531 138.722656 Z M 171.773438 138.355469 C 171.804688 138.601562 171.695312 138.859375 171.480469 139.074219 C 171.234375 139.316406 170.894531 139.453125 170.570312 139.453125 C 170.445312 139.453125 170.320312 139.429688 170.203125 139.390625 C 169.726562 139.21875 169.417969 138.699219 169.511719 138.222656 C 169.597656 137.804688 169.957031 137.46875 170.242188 137.3125 C 170.628906 137.097656 171.054688 137.464844 171.3125 137.683594 L 171.375 137.738281 C 171.542969 137.878906 171.738281 138.074219 171.773438 138.355469 " fill-opacity="1" fill-rule="nonzero"/><g fill="#000000" fill-opacity="1"><g transform="translate(77.346679, 210.126137)"><g><path d="M 2.3125 0 L 2.3125 -30.546875 L 9.6875 -30.546875 L 9.6875 -6 L 22.40625 -6 L 22.40625 0 Z M 2.3125 0 "/></g></g></g><g fill="#000000" fill-opacity="1"><g transform="translate(101.25493, 210.126137)"><g><path d="M 2.3125 0 L 2.3125 -22.90625 L 9.609375 -22.90625 L 9.609375 0 Z M 5.96875 -25.578125 C 4.9375 -25.578125 4.050781 -25.914062 3.3125 -26.59375 C 2.582031 -27.28125 2.21875 -28.101562 2.21875 -29.0625 C 2.21875 -30.019531 2.582031 -30.835938 3.3125 -31.515625 C 4.050781 -32.203125 4.9375 -32.546875 5.96875 -32.546875 C 7 -32.546875 7.878906 -32.203125 8.609375 -31.515625 C 9.335938 -30.835938 9.703125 -30.019531 9.703125 -29.0625 C 9.703125 -28.101562 9.335938 -27.28125 8.609375 -26.59375 C 7.878906 -25.914062 7 -25.578125 5.96875 -25.578125 Z M 5.96875 -25.578125 "/></g></g></g><g fill="#000000" fill-opacity="1"><g transform="translate(113.171765, 210.126137)"><g><path d="M 8.765625 0.390625 C 7.304688 0.390625 6.007812 0.144531 4.875 -0.34375 C 3.75 -0.84375 2.859375 -1.59375 2.203125 -2.59375 C 1.554688 -3.59375 1.234375 -4.847656 1.234375 -6.359375 C 1.234375 -7.628906 1.457031 -8.703125 1.90625 -9.578125 C 2.351562 -10.453125 2.96875 -11.160156 3.75 -11.703125 C 4.539062 -12.253906 5.445312 -12.671875 6.46875 -12.953125 C 7.5 -13.234375 8.59375 -13.425781 9.75 -13.53125 C 11.050781 -13.644531 12.097656 -13.769531 12.890625 -13.90625 C 13.691406 -14.039062 14.273438 -14.234375 14.640625 -14.484375 C 15.003906 -14.742188 15.1875 -15.109375 15.1875 -15.578125 L 15.1875 -15.640625 C 15.1875 -16.410156 14.921875 -17.003906 14.390625 -17.421875 C 13.867188 -17.835938 13.160156 -18.046875 12.265625 -18.046875 C 11.296875 -18.046875 10.515625 -17.835938 9.921875 -17.421875 C 9.335938 -17.003906 8.96875 -16.425781 8.8125 -15.6875 L 2.09375 -15.921875 C 2.289062 -17.316406 2.800781 -18.5625 3.625 -19.65625 C 4.457031 -20.757812 5.601562 -21.625 7.0625 -22.25 C 8.519531 -22.882812 10.269531 -23.203125 12.3125 -23.203125 C 13.78125 -23.203125 15.128906 -23.03125 16.359375 -22.6875 C 17.585938 -22.34375 18.660156 -21.84375 19.578125 -21.1875 C 20.492188 -20.539062 21.203125 -19.742188 21.703125 -18.796875 C 22.210938 -17.859375 22.46875 -16.785156 22.46875 -15.578125 L 22.46875 0 L 15.59375 0 L 15.59375 -3.1875 L 15.421875 -3.1875 C 15.015625 -2.414062 14.492188 -1.757812 13.859375 -1.21875 C 13.234375 -0.6875 12.492188 -0.285156 11.640625 -0.015625 C 10.785156 0.253906 9.828125 0.390625 8.765625 0.390625 Z M 11.015625 -4.390625 C 11.804688 -4.390625 12.515625 -4.546875 13.140625 -4.859375 C 13.773438 -5.179688 14.28125 -5.625 14.65625 -6.1875 C 15.039062 -6.75 15.234375 -7.398438 15.234375 -8.140625 L 15.234375 -10.328125 C 15.023438 -10.210938 14.769531 -10.109375 14.46875 -10.015625 C 14.175781 -9.929688 13.851562 -9.847656 13.5 -9.765625 C 13.15625 -9.691406 12.800781 -9.625 12.4375 -9.5625 C 12.070312 -9.5 11.71875 -9.441406 11.375 -9.390625 C 10.6875 -9.285156 10.101562 -9.117188 9.625 -8.890625 C 9.144531 -8.660156 8.773438 -8.363281 8.515625 -8 C 8.265625 -7.632812 8.140625 -7.207031 8.140625 -6.71875 C 8.140625 -5.957031 8.410156 -5.378906 8.953125 -4.984375 C 9.492188 -4.585938 10.179688 -4.390625 11.015625 -4.390625 Z M 11.015625 -4.390625 "/></g></g></g><g fill="#000000" fill-opacity="1"><g transform="translate(137.766089, 210.126137)"><g><path d="M 2.3125 0 L 2.3125 -22.90625 L 9.25 -22.90625 L 9.25 -18.703125 L 9.5 -18.703125 C 9.976562 -20.097656 10.78125 -21.195312 11.90625 -22 C 13.039062 -22.800781 14.394531 -23.203125 15.96875 -23.203125 C 17.5625 -23.203125 18.925781 -22.796875 20.0625 -21.984375 C 21.195312 -21.171875 21.914062 -20.078125 22.21875 -18.703125 L 22.46875 -18.703125 C 22.894531 -20.066406 23.726562 -21.15625 24.96875 -21.96875 C 26.207031 -22.789062 27.671875 -23.203125 29.359375 -23.203125 C 31.535156 -23.203125 33.296875 -22.507812 34.640625 -21.125 C 35.992188 -19.738281 36.671875 -17.835938 36.671875 -15.421875 L 36.671875 0 L 29.375 0 L 29.375 -13.75 C 29.375 -14.894531 29.082031 -15.765625 28.5 -16.359375 C 27.914062 -16.960938 27.15625 -17.265625 26.21875 -17.265625 C 25.21875 -17.265625 24.429688 -16.9375 23.859375 -16.28125 C 23.285156 -15.632812 23 -14.765625 23 -13.671875 L 23 0 L 15.984375 0 L 15.984375 -13.828125 C 15.984375 -14.890625 15.695312 -15.726562 15.125 -16.34375 C 14.550781 -16.957031 13.789062 -17.265625 12.84375 -17.265625 C 12.207031 -17.265625 11.644531 -17.113281 11.15625 -16.8125 C 10.664062 -16.507812 10.285156 -16.078125 10.015625 -15.515625 C 9.742188 -14.960938 9.609375 -14.3125 9.609375 -13.5625 L 9.609375 0 Z M 2.3125 0 "/></g></g></g><g fill="#000000" fill-opacity="1"><g transform="translate(176.663605, 210.126137)"><g><path d="M 8.375 -30.546875 L 8.375 -27.140625 C 8.375 -26.203125 8.1875 -25.25 7.8125 -24.28125 C 7.445312 -23.320312 6.960938 -22.425781 6.359375 -21.59375 C 5.765625 -20.757812 5.132812 -20.054688 4.46875 -19.484375 L 1.375 -21.171875 C 1.832031 -21.929688 2.238281 -22.785156 2.59375 -23.734375 C 2.945312 -24.679688 3.125 -25.8125 3.125 -27.125 L 3.125 -30.546875 Z M 8.375 -30.546875 "/></g></g></g><g fill="#000000" fill-opacity="1"><g transform="translate(184.106018, 210.126137)"><g><path d="M 22.3125 -15.90625 L 15.609375 -15.734375 C 15.546875 -16.210938 15.359375 -16.632812 15.046875 -17 C 14.742188 -17.375 14.34375 -17.664062 13.84375 -17.875 C 13.351562 -18.09375 12.785156 -18.203125 12.140625 -18.203125 C 11.296875 -18.203125 10.578125 -18.035156 9.984375 -17.703125 C 9.390625 -17.367188 9.097656 -16.910156 9.109375 -16.328125 C 9.097656 -15.878906 9.28125 -15.488281 9.65625 -15.15625 C 10.03125 -14.832031 10.695312 -14.570312 11.65625 -14.375 L 16.078125 -13.546875 C 18.367188 -13.109375 20.070312 -12.378906 21.1875 -11.359375 C 22.300781 -10.347656 22.863281 -9.007812 22.875 -7.34375 C 22.863281 -5.769531 22.398438 -4.398438 21.484375 -3.234375 C 20.566406 -2.066406 19.3125 -1.160156 17.71875 -0.515625 C 16.125 0.117188 14.304688 0.4375 12.265625 0.4375 C 8.992188 0.4375 6.414062 -0.234375 4.53125 -1.578125 C 2.644531 -2.929688 1.566406 -4.742188 1.296875 -7.015625 L 8.5 -7.1875 C 8.65625 -6.351562 9.066406 -5.71875 9.734375 -5.28125 C 10.398438 -4.84375 11.253906 -4.625 12.296875 -4.625 C 13.222656 -4.625 13.976562 -4.796875 14.5625 -5.140625 C 15.15625 -5.492188 15.457031 -5.957031 15.46875 -6.53125 C 15.457031 -7.050781 15.226562 -7.46875 14.78125 -7.78125 C 14.332031 -8.09375 13.628906 -8.335938 12.671875 -8.515625 L 8.6875 -9.28125 C 6.382812 -9.695312 4.671875 -10.46875 3.546875 -11.59375 C 2.421875 -12.71875 1.863281 -14.15625 1.875 -15.90625 C 1.863281 -17.4375 2.269531 -18.75 3.09375 -19.84375 C 3.925781 -20.9375 5.101562 -21.769531 6.625 -22.34375 C 8.144531 -22.914062 9.9375 -23.203125 12 -23.203125 C 15.101562 -23.203125 17.550781 -22.550781 19.34375 -21.25 C 21.132812 -19.957031 22.125 -18.175781 22.3125 -15.90625 Z M 22.3125 -15.90625 "/></g></g></g><g fill="#000000" fill-opacity="1"><g transform="translate(208.252902, 210.126137)"><g/></g></g><g fill="#000000" fill-opacity="1"><g transform="translate(217.291204, 210.126137)"><g><path d="M 30.03125 -19.484375 L 22.578125 -19.484375 C 22.484375 -20.242188 22.28125 -20.929688 21.96875 -21.546875 C 21.65625 -22.160156 21.242188 -22.6875 20.734375 -23.125 C 20.234375 -23.5625 19.632812 -23.894531 18.9375 -24.125 C 18.25 -24.363281 17.488281 -24.484375 16.65625 -24.484375 C 15.175781 -24.484375 13.898438 -24.117188 12.828125 -23.390625 C 11.765625 -22.671875 10.945312 -21.625 10.375 -20.25 C 9.800781 -18.882812 9.515625 -17.222656 9.515625 -15.265625 C 9.515625 -13.242188 9.804688 -11.546875 10.390625 -10.171875 C 10.972656 -8.804688 11.789062 -7.78125 12.84375 -7.09375 C 13.90625 -6.40625 15.160156 -6.0625 16.609375 -6.0625 C 17.429688 -6.0625 18.175781 -6.164062 18.84375 -6.375 C 19.507812 -6.582031 20.097656 -6.882812 20.609375 -7.28125 C 21.128906 -7.6875 21.554688 -8.179688 21.890625 -8.765625 C 22.222656 -9.347656 22.453125 -10.003906 22.578125 -10.734375 L 30.03125 -10.6875 C 29.90625 -9.34375 29.515625 -8.015625 28.859375 -6.703125 C 28.210938 -5.390625 27.320312 -4.191406 26.1875 -3.109375 C 25.050781 -2.023438 23.671875 -1.164062 22.046875 -0.53125 C 20.421875 0.101562 18.5625 0.421875 16.46875 0.421875 C 13.695312 0.421875 11.21875 -0.1875 9.03125 -1.40625 C 6.851562 -2.625 5.132812 -4.398438 3.875 -6.734375 C 2.613281 -9.078125 1.984375 -11.921875 1.984375 -15.265625 C 1.984375 -18.628906 2.625 -21.476562 3.90625 -23.8125 C 5.1875 -26.15625 6.921875 -27.929688 9.109375 -29.140625 C 11.296875 -30.359375 13.75 -30.96875 16.46875 -30.96875 C 18.3125 -30.96875 20.019531 -30.707031 21.59375 -30.1875 C 23.164062 -29.675781 24.546875 -28.929688 25.734375 -27.953125 C 26.929688 -26.972656 27.898438 -25.769531 28.640625 -24.34375 C 29.390625 -22.925781 29.851562 -21.304688 30.03125 -19.484375 Z M 30.03125 -19.484375 "/></g></g></g><g fill="#000000" fill-opacity="1"><g transform="translate(249.22356, 210.126137)"><g><path d="M 8.765625 0.390625 C 7.304688 0.390625 6.007812 0.144531 4.875 -0.34375 C 3.75 -0.84375 2.859375 -1.59375 2.203125 -2.59375 C 1.554688 -3.59375 1.234375 -4.847656 1.234375 -6.359375 C 1.234375 -7.628906 1.457031 -8.703125 1.90625 -9.578125 C 2.351562 -10.453125 2.96875 -11.160156 3.75 -11.703125 C 4.539062 -12.253906 5.445312 -12.671875 6.46875 -12.953125 C 7.5 -13.234375 8.59375 -13.425781 9.75 -13.53125 C 11.050781 -13.644531 12.097656 -13.769531 12.890625 -13.90625 C 13.691406 -14.039062 14.273438 -14.234375 14.640625 -14.484375 C 15.003906 -14.742188 15.1875 -15.109375 15.1875 -15.578125 L 15.1875 -15.640625 C 15.1875 -16.410156 14.921875 -17.003906 14.390625 -17.421875 C 13.867188 -17.835938 13.160156 -18.046875 12.265625 -18.046875 C 11.296875 -18.046875 10.515625 -17.835938 9.921875 -17.421875 C 9.335938 -17.003906 8.96875 -16.425781 8.8125 -15.6875 L 2.09375 -15.921875 C 2.289062 -17.316406 2.800781 -18.5625 3.625 -19.65625 C 4.457031 -20.757812 5.601562 -21.625 7.0625 -22.25 C 8.519531 -22.882812 10.269531 -23.203125 12.3125 -23.203125 C 13.78125 -23.203125 15.128906 -23.03125 16.359375 -22.6875 C 17.585938 -22.34375 18.660156 -21.84375 19.578125 -21.1875 C 20.492188 -20.539062 21.203125 -19.742188 21.703125 -18.796875 C 22.210938 -17.859375 22.46875 -16.785156 22.46875 -15.578125 L 22.46875 0 L 15.59375 0 L 15.59375 -3.1875 L 15.421875 -3.1875 C 15.015625 -2.414062 14.492188 -1.757812 13.859375 -1.21875 C 13.234375 -0.6875 12.492188 -0.285156 11.640625 -0.015625 C 10.785156 0.253906 9.828125 0.390625 8.765625 0.390625 Z M 11.015625 -4.390625 C 11.804688 -4.390625 12.515625 -4.546875 13.140625 -4.859375 C 13.773438 -5.179688 14.28125 -5.625 14.65625 -6.1875 C 15.039062 -6.75 15.234375 -7.398438 15.234375 -8.140625 L 15.234375 -10.328125 C 15.023438 -10.210938 14.769531 -10.109375 14.46875 -10.015625 C 14.175781 -9.929688 13.851562 -9.847656 13.5 -9.765625 C 13.15625 -9.691406 12.800781 -9.625 12.4375 -9.5625 C 12.070312 -9.5 11.71875 -9.441406 11.375 -9.390625 C 10.6875 -9.285156 10.101562 -9.117188 9.625 -8.890625 C 9.144531 -8.660156 8.773438 -8.363281 8.515625 -8 C 8.265625 -7.632812 8.140625 -7.207031 8.140625 -6.71875 C 8.140625 -5.957031 8.410156 -5.378906 8.953125 -4.984375 C 9.492188 -4.585938 10.179688 -4.390625 11.015625 -4.390625 Z M 11.015625 -4.390625 "/></g></g></g><g fill="#000000" fill-opacity="1"><g transform="translate(273.817873, 210.126137)"><g><path d="M 9.609375 -30.546875 L 9.609375 0 L 2.3125 0 L 2.3125 -30.546875 Z M 9.609375 -30.546875 "/></g></g></g><g fill="#000000" fill-opacity="1"><g transform="translate(285.734719, 210.126137)"><g><path d="M 9.609375 -30.546875 L 9.609375 0 L 2.3125 0 L 2.3125 -30.546875 Z M 9.609375 -30.546875 "/></g></g></g></svg>