<svg xmlns="http://www.w3.org/2000/svg" xmlns:xlink="http://www.w3.org/1999/xlink" width="500" zoomAndPan="magnify" viewBox="0 0 375 374.999991" height="500" preserveAspectRatio="xMidYMid meet" version="1.0"><defs><g/><clipPath id="b9b0b58072"><path d="M 36.699219 178.375 L 101.949219 178.375 L 101.949219 212.125 L 36.699219 212.125 Z M 36.699219 178.375 " clip-rule="nonzero"/></clipPath></defs><g clip-path="url(#b9b0b58072)"><path fill="#000000" d="M 39.355469 193.726562 L 40.402344 193.121094 C 40.210938 193.070312 40.015625 193 39.828125 192.917969 C 39.394531 192.714844 39.058594 192.425781 38.863281 192.078125 C 38.714844 191.816406 38.65625 191.515625 38.679688 191.238281 C 38.460938 191.382812 38.25 191.535156 38.042969 191.695312 C 38.003906 191.96875 38.050781 192.273438 38.1875 192.554688 C 38.359375 192.910156 38.660156 193.238281 39.109375 193.5625 C 39.1875 193.617188 39.273438 193.671875 39.355469 193.726562 Z M 41.964844 190.300781 C 42.09375 190.089844 42.128906 189.851562 42.074219 189.65625 C 41.46875 189.84375 40.855469 190.070312 40.257812 190.351562 C 40.230469 190.386719 40.195312 190.414062 40.152344 190.429688 C 40.015625 190.476562 39.902344 190.59375 39.863281 190.738281 C 39.824219 190.878906 39.867188 191.042969 39.964844 191.15625 C 40.097656 191.296875 40.335938 191.355469 40.582031 191.304688 C 40.84375 191.246094 41.082031 191.089844 41.289062 190.941406 C 41.589844 190.730469 41.820312 190.542969 41.964844 190.300781 Z M 42.28125 195.078125 C 42.265625 195.078125 42.25 195.078125 42.234375 195.078125 C 41.023438 195.066406 39.8125 194.667969 38.828125 193.957031 C 38.550781 193.761719 38.328125 193.554688 38.140625 193.339844 C 38.316406 193.679688 38.546875 194.03125 38.847656 194.390625 C 39.414062 195.074219 40.003906 195.730469 40.617188 196.363281 C 41.160156 195.917969 41.710938 195.488281 42.28125 195.078125 Z M 42.546875 198.1875 L 44.503906 196.175781 C 44.488281 196.167969 44.46875 196.15625 44.457031 196.144531 C 44.410156 196.09375 44.386719 196.027344 44.386719 195.964844 C 44.402344 195.585938 44.015625 195.261719 43.652344 195.160156 C 43.449219 195.101562 43.238281 195.078125 43.015625 195.078125 C 42.292969 195.574219 41.589844 196.105469 40.917969 196.660156 C 41.445312 197.191406 41.988281 197.699219 42.546875 198.1875 Z M 45.480469 193.058594 C 45.644531 192.96875 45.804688 192.875 45.972656 192.789062 C 45.691406 192.628906 45.453125 192.417969 45.28125 192.171875 C 45.058594 191.851562 44.957031 191.460938 44.972656 191.09375 C 44.234375 191.480469 43.5 191.902344 42.789062 192.3125 L 39.84375 194.003906 C 40.585938 194.378906 41.414062 194.582031 42.238281 194.59375 C 42.359375 194.59375 42.480469 194.59375 42.597656 194.589844 C 42.726562 194.585938 42.851562 194.585938 42.980469 194.585938 C 43.742188 194.074219 44.527344 193.589844 45.328125 193.144531 C 45.363281 193.097656 45.410156 193.066406 45.472656 193.058594 C 45.476562 193.058594 45.476562 193.058594 45.480469 193.058594 Z M 44.910156 195.757812 L 46.351562 194.269531 C 46.226562 194.269531 46.101562 194.25 45.988281 194.207031 C 45.714844 194.097656 45.488281 193.871094 45.375 193.601562 C 44.785156 193.933594 44.207031 194.289062 43.644531 194.65625 C 43.691406 194.667969 43.738281 194.675781 43.785156 194.691406 C 44.269531 194.832031 44.75 195.222656 44.851562 195.746094 C 44.871094 195.746094 44.890625 195.753906 44.910156 195.757812 Z M 46.75 197.929688 C 46.703125 197.898438 46.667969 197.851562 46.652344 197.796875 C 46.535156 197.359375 46.277344 196.96875 45.925781 196.6875 C 45.671875 196.488281 45.332031 196.339844 45 196.265625 L 42.867188 198.464844 C 43.503906 199.011719 44.167969 199.527344 44.847656 200.023438 C 45.484375 199.242188 46.101562 198.554688 46.75 197.929688 Z M 46.839844 193.683594 C 46.855469 193.671875 46.871094 193.660156 46.894531 193.652344 C 46.746094 193.492188 46.609375 193.316406 46.488281 193.132812 C 46.464844 193.09375 46.453125 193.054688 46.453125 193.015625 C 46.214844 193.140625 45.980469 193.265625 45.742188 193.394531 C 45.8125 193.582031 45.953125 193.742188 46.140625 193.8125 C 46.367188 193.902344 46.652344 193.851562 46.839844 193.683594 Z M 48.878906 196.140625 C 48.574219 196.09375 48.28125 195.972656 48.035156 195.800781 C 47.492188 195.414062 47.136719 194.769531 47.097656 194.105469 L 45.386719 195.871094 C 45.6875 195.96875 45.980469 196.113281 46.222656 196.308594 C 46.605469 196.605469 46.894531 197.015625 47.058594 197.476562 C 47.113281 197.472656 47.167969 197.476562 47.222656 197.480469 C 47.742188 197.007812 48.289062 196.570312 48.878906 196.140625 Z M 48.894531 188.871094 C 47.992188 188.851562 47.082031 188.859375 46.1875 188.921875 C 45.09375 188.996094 43.800781 189.171875 42.480469 189.539062 C 42.566406 189.84375 42.511719 190.207031 42.324219 190.515625 C 42.128906 190.84375 41.828125 191.082031 41.53125 191.289062 C 41.289062 191.460938 41.003906 191.644531 40.667969 191.71875 C 40.582031 191.734375 40.492188 191.746094 40.40625 191.746094 C 40.109375 191.746094 39.832031 191.632812 39.65625 191.4375 C 39.492188 191.257812 39.417969 191.015625 39.441406 190.773438 C 39.359375 190.816406 39.285156 190.859375 39.207031 190.90625 C 39.203125 190.921875 39.199219 190.941406 39.191406 190.960938 C 39.042969 191.214844 39.0625 191.574219 39.230469 191.871094 C 39.417969 192.210938 39.753906 192.414062 40 192.53125 C 40.292969 192.664062 40.617188 192.746094 40.933594 192.820312 L 42.554688 191.882812 C 43.414062 191.390625 44.308594 190.878906 45.214844 190.417969 C 45.21875 190.417969 45.222656 190.414062 45.222656 190.414062 C 45.28125 190.386719 45.34375 190.355469 45.398438 190.324219 C 46.527344 189.765625 47.699219 189.277344 48.894531 188.871094 Z M 49.851562 199.636719 C 49.605469 199.171875 49.242188 198.773438 48.792969 198.492188 C 48.304688 198.1875 47.792969 198.007812 47.316406 197.96875 C 46.585938 198.652344 45.898438 199.398438 45.191406 200.261719 C 45.867188 200.738281 46.558594 201.191406 47.269531 201.613281 C 47.597656 201.808594 47.917969 201.988281 48.230469 202.152344 C 48.71875 201.28125 49.261719 200.445312 49.851562 199.636719 Z M 50.019531 195.347656 C 50.011719 195.332031 50.011719 195.3125 50.011719 195.289062 C 49.210938 195.113281 48.304688 194.796875 47.535156 194.222656 C 47.605469 194.710938 47.871094 195.171875 48.273438 195.453125 C 48.535156 195.636719 48.859375 195.738281 49.175781 195.746094 L 49.242188 195.746094 C 49.296875 195.75 49.355469 195.75 49.414062 195.753906 C 49.613281 195.621094 49.8125 195.484375 50.019531 195.347656 Z M 50.519531 194.894531 C 50.746094 194.929688 50.960938 194.957031 51.164062 194.976562 C 50.867188 194.910156 50.574219 194.808594 50.335938 194.589844 C 50.023438 194.300781 49.851562 193.859375 49.832031 193.269531 C 49.8125 192.792969 49.890625 192.316406 50.050781 191.855469 L 50.085938 191.753906 C 50.132812 191.621094 50.179688 191.480469 50.238281 191.34375 C 49.769531 191.515625 49.296875 191.699219 48.835938 191.894531 C 48.207031 192.238281 47.601562 192.625 47.023438 193.046875 C 47.90625 194.222656 49.398438 194.699219 50.519531 194.894531 Z M 51.671875 197.429688 C 51.464844 197.429688 51.273438 197.417969 51.097656 197.382812 C 50.710938 197.300781 50.378906 197.117188 50.125 196.851562 C 50.039062 196.757812 49.972656 196.652344 49.90625 196.558594 C 49.839844 196.457031 49.78125 196.359375 49.703125 196.289062 C 49.648438 196.238281 49.59375 196.210938 49.523438 196.191406 C 48.898438 196.632812 48.328125 197.078125 47.785156 197.550781 C 48.207031 197.640625 48.640625 197.820312 49.046875 198.082031 C 49.503906 198.367188 49.890625 198.761719 50.167969 199.21875 C 50.644531 198.601562 51.144531 198.003906 51.671875 197.429688 Z M 52.109375 196.972656 C 52.285156 196.789062 52.460938 196.613281 52.640625 196.441406 C 51.8125 196.4375 50.980469 196.160156 50.320312 195.65625 C 50.183594 195.746094 50.054688 195.835938 49.921875 195.921875 C 49.945312 195.941406 49.96875 195.957031 49.992188 195.980469 C 50.101562 196.085938 50.175781 196.203125 50.253906 196.320312 C 50.3125 196.410156 50.367188 196.496094 50.433594 196.5625 C 50.625 196.765625 50.878906 196.902344 51.183594 196.96875 C 51.449219 197.019531 51.738281 197.023438 52.109375 196.972656 Z M 52.910156 201.179688 C 52.898438 201.171875 52.882812 201.160156 52.875 201.148438 C 52.226562 200.390625 51.230469 200.011719 50.277344 200.152344 C 50.195312 200.167969 50.109375 200.132812 50.058594 200.070312 C 49.535156 200.800781 49.046875 201.558594 48.605469 202.339844 C 49.726562 202.886719 50.761719 203.230469 51.714844 203.367188 C 52.085938 202.625 52.484375 201.894531 52.910156 201.179688 Z M 53.117188 195.988281 C 53.484375 195.648438 53.863281 195.316406 54.246094 195.003906 C 53.589844 195.265625 52.949219 195.429688 52.328125 195.480469 C 52.160156 195.492188 51.992188 195.5 51.816406 195.5 C 51.460938 195.5 51.085938 195.464844 50.691406 195.410156 C 51.390625 195.898438 52.28125 196.113281 53.117188 195.988281 Z M 53.734375 192.347656 C 53.734375 192.289062 53.734375 192.234375 53.726562 192.175781 C 53.703125 192.011719 53.644531 191.851562 53.554688 191.722656 C 53.210938 191.246094 52.667969 191.105469 52.273438 191.070312 C 52.238281 191.066406 52.195312 191.066406 52.160156 191.066406 C 51.910156 191.066406 51.6875 191.136719 51.539062 191.265625 C 51.394531 191.40625 51.292969 191.609375 51.199219 191.828125 C 51.085938 192.09375 50.984375 192.355469 50.96875 192.617188 C 50.941406 193.046875 51.164062 193.480469 51.535156 193.695312 C 51.847656 193.878906 52.277344 193.933594 52.84375 193.847656 C 53.019531 193.824219 53.199219 193.785156 53.3125 193.683594 C 53.425781 193.589844 53.488281 193.421875 53.546875 193.257812 C 53.644531 192.960938 53.734375 192.652344 53.734375 192.347656 Z M 54.550781 193.816406 C 54.726562 193.5 54.777344 193.085938 54.699219 192.65625 C 54.632812 192.304688 54.492188 191.929688 54.238281 191.484375 C 54.085938 191.21875 53.636719 190.417969 53.160156 190.425781 C 52.9375 190.484375 52.714844 190.546875 52.496094 190.609375 C 53.121094 190.699219 53.621094 190.984375 53.941406 191.4375 C 54.082031 191.632812 54.171875 191.867188 54.203125 192.109375 C 54.265625 192.570312 54.136719 193.027344 54 193.417969 C 53.925781 193.632812 53.832031 193.878906 53.625 194.054688 C 53.417969 194.238281 53.148438 194.296875 52.910156 194.332031 C 52.714844 194.363281 52.53125 194.375 52.359375 194.375 C 51.9375 194.375 51.585938 194.289062 51.289062 194.117188 C 50.769531 193.804688 50.445312 193.191406 50.484375 192.585938 C 50.503906 192.246094 50.628906 191.929688 50.757812 191.632812 C 50.84375 191.429688 50.945312 191.21875 51.09375 191.039062 C 51.007812 191.070312 50.925781 191.101562 50.835938 191.132812 C 50.679688 191.332031 50.582031 191.601562 50.480469 191.894531 L 50.445312 191.996094 C 50.300781 192.40625 50.234375 192.832031 50.25 193.253906 C 50.261719 193.578125 50.332031 194.019531 50.617188 194.277344 C 50.855469 194.492188 51.210938 194.566406 51.558594 194.625 C 52.078125 194.703125 52.683594 194.785156 53.257812 194.675781 C 53.839844 194.558594 54.324219 194.242188 54.550781 193.816406 Z M 55.621094 202.542969 C 55.292969 202.078125 54.972656 201.742188 54.632812 201.523438 C 54.238281 201.265625 53.796875 201.144531 53.414062 201.167969 C 52.964844 201.902344 52.546875 202.648438 52.160156 203.414062 C 52.871094 203.46875 53.535156 203.40625 54.164062 203.21875 C 54.683594 203.066406 55.164062 202.835938 55.621094 202.542969 Z M 55.449219 197.53125 C 55.179688 197.566406 54.90625 197.660156 54.621094 197.761719 C 54.515625 197.800781 54.40625 197.839844 54.296875 197.875 C 53.566406 198.113281 52.960938 198.066406 52.550781 197.75 C 52.457031 197.679688 52.394531 197.59375 52.335938 197.527344 C 52.296875 197.476562 52.273438 197.449219 52.25 197.429688 C 51.589844 198.125 50.964844 198.859375 50.382812 199.628906 C 50.386719 199.632812 50.394531 199.640625 50.398438 199.652344 C 51.40625 199.5625 52.429688 199.960938 53.136719 200.714844 C 53.160156 200.710938 53.183594 200.707031 53.207031 200.703125 C 53.890625 199.605469 54.640625 198.546875 55.449219 197.53125 Z M 55.804688 197.097656 C 55.894531 196.984375 55.988281 196.875 56.082031 196.765625 C 55.148438 196.957031 54.144531 196.84375 53.25 196.4375 C 53.007812 196.664062 52.773438 196.890625 52.546875 197.125 C 52.589844 197.171875 52.628906 197.214844 52.660156 197.257812 C 52.710938 197.316406 52.753906 197.375 52.804688 197.414062 C 53.179688 197.707031 53.753906 197.605469 54.171875 197.472656 C 54.273438 197.4375 54.378906 197.402344 54.484375 197.363281 C 54.902344 197.214844 55.335938 197.058594 55.804688 197.097656 Z M 56.265625 189.34375 C 56.070312 189.335938 55.878906 189.328125 55.683594 189.3125 C 54.863281 189.265625 54.03125 189.195312 53.222656 189.136719 C 52.269531 189.058594 51.296875 188.984375 50.328125 188.929688 C 50.320312 188.933594 50.316406 188.941406 50.308594 188.945312 C 48.691406 189.402344 47.113281 190.011719 45.609375 190.765625 C 45.550781 190.792969 45.492188 190.824219 45.429688 190.859375 C 45.332031 191.203125 45.402344 191.605469 45.625 191.929688 C 45.8125 192.199219 46.101562 192.414062 46.441406 192.546875 C 46.996094 192.261719 47.550781 191.996094 48.121094 191.746094 C 50.585938 190.285156 53.40625 189.453125 56.265625 189.34375 Z M 57.714844 192.171875 C 57.570312 191.945312 57.519531 191.6875 57.476562 191.457031 L 57.464844 191.363281 C 57.363281 190.824219 57.171875 190.304688 56.90625 189.824219 C 56.882812 189.824219 56.863281 189.824219 56.84375 189.824219 C 56.484375 189.824219 56.125 189.839844 55.761719 189.863281 C 55.113281 189.972656 54.464844 190.109375 53.820312 190.261719 C 54.195312 190.5625 54.46875 191.042969 54.601562 191.273438 C 54.875 191.765625 55.039062 192.175781 55.113281 192.582031 C 55.203125 193.105469 55.136719 193.617188 54.917969 194.019531 C 54.882812 194.085938 54.84375 194.152344 54.800781 194.210938 C 54.941406 194.136719 55.082031 194.0625 55.226562 193.976562 C 56.105469 193.457031 56.925781 192.808594 57.714844 192.171875 Z M 58.148438 200.167969 C 58.027344 199.925781 57.832031 199.691406 57.550781 199.46875 C 57.386719 199.335938 57.210938 199.21875 57.027344 199.09375 C 56.820312 198.953125 56.601562 198.808594 56.398438 198.644531 C 56.105469 198.394531 55.886719 198.121094 55.746094 197.832031 C 55.019531 198.75 54.335938 199.703125 53.710938 200.6875 C 54.105469 200.722656 54.519531 200.867188 54.894531 201.113281 C 55.390625 201.4375 55.753906 201.890625 56.019531 202.269531 C 56.773438 201.707031 57.464844 200.984375 58.148438 200.167969 Z M 58.4375 199.820312 C 58.582031 199.644531 58.726562 199.460938 58.871094 199.28125 C 58.488281 198.546875 57.792969 197.992188 57.171875 197.496094 C 57.011719 197.367188 56.859375 197.203125 56.707031 197.042969 C 56.652344 196.980469 56.597656 196.925781 56.542969 196.871094 C 56.375 197.0625 56.210938 197.261719 56.050781 197.460938 C 56.15625 197.824219 56.433594 198.121094 56.667969 198.316406 C 56.851562 198.46875 57.050781 198.605469 57.257812 198.742188 C 57.441406 198.867188 57.628906 198.996094 57.804688 199.136719 C 58.082031 199.351562 58.289062 199.582031 58.4375 199.820312 Z M 59.667969 193.144531 C 59.410156 193.015625 59.144531 192.898438 58.871094 192.820312 L 58.757812 192.785156 C 58.617188 192.742188 58.464844 192.703125 58.324219 192.644531 C 58.320312 192.714844 58.289062 192.777344 58.21875 192.820312 C 56.5625 193.726562 55.007812 194.847656 53.589844 196.125 C 54.484375 196.480469 55.472656 196.535156 56.355469 196.265625 C 56.402344 196.25 56.457031 196.257812 56.503906 196.277344 C 57.488281 195.164062 58.546875 194.109375 59.667969 193.144531 Z M 59.152344 198.921875 L 61.957031 195.378906 C 61.953125 195.378906 61.945312 195.371094 61.945312 195.371094 C 61.515625 194.546875 60.847656 193.847656 60.058594 193.359375 C 60.054688 193.363281 60.050781 193.367188 60.046875 193.371094 C 58.90625 194.347656 57.824219 195.414062 56.820312 196.554688 C 56.886719 196.617188 56.949219 196.6875 57.011719 196.753906 C 57.15625 196.90625 57.296875 197.054688 57.433594 197.164062 C 58.015625 197.625 58.714844 198.1875 59.152344 198.921875 Z M 62.273438 194.976562 L 63.152344 193.867188 C 62.699219 192.882812 61.886719 192.078125 60.890625 191.664062 L 60.785156 191.621094 C 60.582031 191.539062 60.34375 191.441406 60.15625 191.265625 C 59.894531 191.023438 59.777344 190.683594 59.683594 190.410156 L 59.34375 189.390625 C 58.617188 189.414062 57.902344 189.410156 57.203125 189.390625 C 57.5625 189.964844 57.816406 190.609375 57.9375 191.277344 L 57.957031 191.371094 C 57.992188 191.582031 58.027344 191.785156 58.128906 191.925781 C 58.28125 192.140625 58.578125 192.226562 58.890625 192.316406 L 59.003906 192.351562 C 60.386719 192.757812 61.566406 193.714844 62.273438 194.976562 Z M 65.433594 186.773438 C 63.925781 186.695312 62.445312 186.992188 60.882812 187.3125 C 59.492188 187.59375 58.050781 187.890625 56.59375 187.878906 C 56.007812 187.875 55.417969 187.871094 54.828125 187.863281 C 52.832031 187.839844 50.773438 187.8125 48.757812 187.957031 L 48.429688 187.976562 C 45.78125 188.164062 43.046875 188.355469 40.714844 189.484375 L 40.554688 189.5625 C 39.996094 189.832031 39.132812 190.25 38.523438 190.753906 C 40.546875 189.433594 43.148438 188.640625 46.152344 188.4375 C 48.527344 188.273438 50.933594 188.460938 53.261719 188.648438 C 54.0625 188.714844 54.894531 188.777344 55.714844 188.828125 C 58.597656 189.007812 61.957031 189.035156 65.054688 187.925781 C 65.066406 187.917969 65.078125 187.921875 65.089844 187.917969 C 65.136719 187.53125 65.257812 187.140625 65.433594 186.773438 Z M 63.480469 193.445312 L 65.898438 190.390625 C 65.40625 189.890625 65.105469 189.183594 65.074219 188.433594 C 63.359375 189.03125 61.578125 189.289062 59.847656 189.375 L 60.144531 190.25 C 60.222656 190.484375 60.3125 190.75 60.484375 190.90625 C 60.605469 191.023438 60.78125 191.09375 60.96875 191.167969 L 61.078125 191.214844 C 62.109375 191.648438 62.964844 192.453125 63.480469 193.445312 Z M 67.28125 209.742188 C 67.65625 209.753906 67.984375 209.765625 68.246094 209.65625 C 67.496094 209.464844 66.707031 209.4375 65.949219 209.589844 C 65.679688 209.636719 65.410156 209.710938 65.152344 209.785156 C 64.769531 209.886719 64.371094 209.992188 63.964844 210.042969 C 63.808594 210.058594 63.644531 210.066406 63.480469 210.066406 C 62.890625 210.066406 62.25 209.957031 61.484375 209.71875 C 59.867188 209.222656 58.511719 208.464844 57.464844 207.453125 C 56.332031 206.378906 55.589844 205.027344 55.347656 203.625 C 55.09375 203.746094 54.839844 203.855469 54.570312 203.941406 C 54.078125 205.710938 55.019531 207.589844 56.171875 208.671875 C 57.609375 210.023438 59.539062 210.65625 61.066406 211.058594 C 61.976562 211.300781 62.921875 211.480469 63.726562 211.167969 C 64.066406 211.039062 64.390625 210.816406 64.726562 210.582031 C 65.21875 210.238281 65.730469 209.882812 66.367188 209.777344 C 66.675781 209.71875 66.984375 209.734375 67.28125 209.742188 Z M 67.589844 205.648438 C 67.929688 205.660156 68.246094 205.734375 68.515625 205.867188 C 68.246094 205.597656 67.914062 205.378906 67.601562 205.1875 C 67.507812 205.132812 67.414062 205.078125 67.320312 205.023438 C 66.851562 204.746094 66.359375 204.460938 65.972656 204.046875 C 65.3125 203.347656 64.96875 202.3125 65.007812 201.128906 C 65.019531 200.734375 65.070312 200.339844 65.144531 199.953125 C 65.105469 199.875 65.074219 199.78125 65.039062 199.679688 C 64.890625 199.238281 64.773438 198.59375 64.800781 197.882812 C 64.832031 197.167969 65 196.535156 65.183594 196.113281 C 65.367188 195.683594 65.546875 195.457031 65.617188 195.488281 C 65.757812 195.550781 65.390625 196.585938 65.34375 197.90625 C 65.324219 198.316406 65.339844 198.699219 65.363281 199.03125 C 65.445312 198.738281 65.53125 198.449219 65.617188 198.15625 L 66.59375 194.894531 C 66.597656 194.878906 66.605469 194.867188 66.613281 194.851562 C 66.445312 194.242188 66.339844 193.609375 66.246094 192.957031 C 66.164062 192.410156 66.105469 191.816406 66.226562 191.273438 L 64.585938 193.351562 C 64.503906 193.566406 64.25 193.933594 64.035156 194.40625 C 63.734375 195.039062 63.625 195.621094 63.472656 195.625 C 63.402344 195.621094 63.328125 195.460938 63.320312 195.191406 C 63.316406 195.117188 63.324219 195.027344 63.328125 194.941406 L 59.605469 199.652344 C 58.570312 200.964844 57.574219 202.152344 56.402344 202.992188 C 56.765625 204.382812 57.773438 205.613281 59.066406 206.21875 C 59.585938 206.464844 60.175781 206.625 60.816406 206.707031 C 61.378906 206.773438 61.945312 206.773438 62.503906 206.710938 C 63.167969 206.636719 63.832031 206.464844 64.46875 206.296875 L 66.007812 205.894531 C 66.515625 205.765625 67.039062 205.625 67.589844 205.648438 Z M 68.554688 184.261719 C 68.683594 184.105469 68.671875 183.613281 68.664062 183.371094 L 68.664062 183.265625 C 68.664062 183.058594 68.640625 182.855469 68.609375 182.652344 C 68.589844 182.667969 68.570312 182.6875 68.554688 182.699219 C 68.398438 182.808594 68.257812 182.847656 68.152344 182.863281 C 67.929688 182.882812 67.851562 182.808594 67.851562 182.746094 C 67.847656 182.671875 67.914062 182.621094 68.042969 182.53125 C 68.148438 182.453125 68.335938 182.324219 68.460938 182.074219 C 68.445312 182.027344 68.429688 181.976562 68.410156 181.925781 C 68.359375 181.796875 68.304688 181.675781 68.246094 181.554688 C 68.132812 181.847656 67.992188 182.042969 67.886719 182.164062 C 67.714844 182.355469 67.601562 182.378906 67.554688 182.34375 C 67.5 182.296875 67.515625 182.195312 67.597656 181.980469 C 67.671875 181.78125 67.816406 181.476562 67.894531 180.992188 C 67.808594 180.878906 67.71875 180.761719 67.621094 180.652344 C 67.570312 180.980469 67.496094 181.21875 67.421875 181.375 C 67.308594 181.640625 67.207031 181.714844 67.148438 181.691406 C 67.082031 181.667969 67.066406 181.550781 67.09375 181.289062 C 67.113281 181.0625 67.167969 180.722656 67.175781 180.230469 C 67.0625 180.132812 66.941406 180.042969 66.820312 179.960938 C 66.820312 180.085938 66.820312 180.203125 66.808594 180.304688 C 66.785156 180.554688 66.738281 180.746094 66.695312 180.886719 C 66.605469 181.160156 66.523438 181.257812 66.460938 181.246094 C 66.390625 181.234375 66.359375 181.113281 66.355469 180.835938 C 66.359375 180.695312 66.359375 180.515625 66.359375 180.285156 C 66.359375 180.101562 66.347656 179.886719 66.296875 179.648438 C 66.210938 179.609375 66.121094 179.570312 66.03125 179.535156 C 66.070312 179.789062 66.078125 179.988281 66.066406 180.128906 C 66.046875 180.355469 65.984375 180.445312 65.917969 180.445312 C 65.851562 180.449219 65.789062 180.371094 65.726562 180.164062 C 65.667969 179.992188 65.609375 179.722656 65.511719 179.355469 C 65.375 179.316406 65.238281 179.28125 65.09375 179.257812 C 65.148438 179.597656 65.148438 179.851562 65.128906 180.015625 C 65.101562 180.25 65.039062 180.335938 64.972656 180.339844 C 64.90625 180.339844 64.84375 180.257812 64.785156 180.042969 C 64.734375 179.863281 64.683594 179.578125 64.597656 179.183594 C 64.277344 179.15625 63.953125 179.164062 63.628906 179.195312 C 63.699219 179.378906 63.800781 179.53125 63.898438 179.640625 C 64.042969 179.789062 64.1875 179.882812 64.300781 179.949219 C 64.53125 180.074219 64.640625 180.121094 64.636719 180.195312 C 64.636719 180.253906 64.511719 180.335938 64.183594 180.273438 C 64.050781 180.242188 63.878906 180.175781 63.699219 180.046875 C 63.769531 180.21875 63.855469 180.382812 63.949219 180.542969 C 64.355469 180.722656 64.613281 180.757812 64.800781 180.738281 C 65.019531 180.71875 65.121094 180.683594 65.164062 180.738281 C 65.207031 180.777344 65.179688 180.9375 64.886719 181.070312 C 64.765625 181.125 64.601562 181.15625 64.398438 181.148438 C 64.441406 181.191406 64.480469 181.234375 64.527344 181.277344 C 64.527344 181.28125 64.53125 181.28125 64.53125 181.285156 C 65.105469 181.347656 65.414062 181.3125 65.617188 181.257812 C 65.820312 181.203125 65.914062 181.167969 65.964844 181.222656 C 66.007812 181.257812 66 181.394531 65.765625 181.570312 C 65.652344 181.648438 65.480469 181.726562 65.257812 181.765625 C 65.21875 181.773438 65.175781 181.769531 65.136719 181.773438 C 65.261719 181.863281 65.390625 181.953125 65.523438 182.042969 C 65.542969 182.054688 65.5625 182.066406 65.582031 182.082031 C 65.929688 182.019531 66.164062 181.917969 66.324219 181.871094 C 66.5 181.804688 66.597656 181.796875 66.640625 181.855469 C 66.679688 181.902344 66.664062 182.007812 66.5 182.164062 C 66.414062 182.246094 66.277344 182.347656 66.082031 182.433594 C 66.164062 182.5 66.25 182.566406 66.332031 182.636719 C 66.683594 182.589844 66.851562 182.523438 66.976562 182.457031 C 67.105469 182.394531 67.179688 182.351562 67.242188 182.378906 C 67.300781 182.402344 67.34375 182.515625 67.207031 182.714844 C 67.140625 182.808594 67.023438 182.910156 66.851562 182.988281 C 66.820312 183.003906 66.785156 183.011719 66.746094 183.023438 C 66.785156 183.0625 66.824219 183.105469 66.863281 183.144531 C 67.148438 183.101562 67.332031 183.019531 67.457031 182.988281 C 67.589844 182.953125 67.667969 182.960938 67.714844 183.015625 C 67.753906 183.066406 67.753906 183.15625 67.640625 183.28125 C 67.566406 183.367188 67.425781 183.472656 67.207031 183.554688 C 67.246094 183.605469 67.289062 183.65625 67.328125 183.707031 C 67.570312 183.71875 67.742188 183.671875 67.859375 183.664062 C 67.984375 183.644531 68.0625 183.660156 68.101562 183.71875 C 68.136719 183.769531 68.132812 183.859375 68.015625 183.96875 C 67.941406 184.03125 67.824219 184.105469 67.65625 184.148438 C 67.660156 184.152344 67.660156 184.152344 67.664062 184.15625 C 67.804688 184.367188 67.808594 184.378906 67.996094 184.371094 L 68.113281 184.363281 C 68.269531 184.355469 68.488281 184.34375 68.554688 184.261719 Z M 68.863281 208.132812 C 68.863281 208.125 68.863281 208.117188 68.863281 208.113281 C 67.863281 207.78125 66.746094 207.945312 65.972656 208.113281 C 65.683594 208.175781 65.398438 208.242188 65.105469 208.3125 C 64.339844 208.5 63.542969 208.695312 62.726562 208.71875 C 62.660156 208.722656 62.59375 208.726562 62.527344 208.726562 C 61.042969 208.726562 59.515625 208.171875 58.203125 207.152344 C 57.480469 206.589844 56.828125 205.894531 56.246094 205.078125 C 56.597656 205.828125 57.105469 206.535156 57.75 207.148438 C 58.753906 208.109375 60.050781 208.839844 61.605469 209.320312 C 62.527344 209.601562 63.261719 209.695312 63.921875 209.625 C 64.296875 209.578125 64.65625 209.480469 65.042969 209.375 C 65.3125 209.300781 65.589844 209.226562 65.867188 209.171875 C 66.777344 208.996094 67.726562 209.050781 68.617188 209.324219 C 68.789062 209.019531 68.839844 208.578125 68.863281 208.132812 Z M 68.894531 207.355469 C 68.882812 207.128906 68.875 206.894531 68.871094 206.660156 C 68.839844 206.644531 68.808594 206.628906 68.785156 206.601562 C 68.53125 206.28125 68.089844 206.085938 67.574219 206.066406 C 67.089844 206.050781 66.59375 206.179688 66.117188 206.304688 L 64.578125 206.707031 C 63.921875 206.878906 63.246094 207.054688 62.554688 207.132812 C 62.265625 207.164062 61.976562 207.183594 61.691406 207.183594 C 61.382812 207.183594 61.074219 207.164062 60.769531 207.125 C 60.082031 207.039062 59.449219 206.863281 58.890625 206.601562 C 57.53125 205.964844 56.464844 204.6875 56.039062 203.238281 C 55.941406 203.300781 55.835938 203.363281 55.730469 203.421875 C 55.738281 203.425781 55.738281 203.425781 55.738281 203.425781 C 56.480469 204.847656 57.390625 205.988281 58.457031 206.816406 C 59.75 207.820312 61.261719 208.347656 62.714844 208.300781 C 63.484375 208.273438 64.261719 208.085938 65.011719 207.90625 C 65.304688 207.832031 65.59375 207.761719 65.886719 207.699219 C 66.683594 207.53125 67.820312 207.355469 68.882812 207.671875 C 68.882812 207.570312 68.890625 207.460938 68.894531 207.355469 Z M 68.890625 201.554688 C 68.890625 201.511719 68.894531 201.46875 68.894531 201.425781 C 68.878906 201.074219 68.867188 200.722656 68.847656 200.371094 C 68.789062 200.183594 68.730469 199.992188 68.644531 199.800781 C 68.410156 199.257812 68.054688 198.84375 67.753906 198.609375 C 67.453125 198.371094 67.207031 198.28125 67.222656 198.199219 C 67.226562 198.132812 67.527344 198.082031 67.953125 198.277344 C 68.214844 198.394531 68.507812 198.621094 68.753906 198.933594 C 68.730469 198.613281 68.707031 198.296875 68.679688 197.976562 C 68.675781 197.921875 68.683594 197.871094 68.699219 197.820312 C 67.996094 197.429688 67.390625 196.75 66.992188 195.890625 C 66.9375 195.773438 66.886719 195.652344 66.839844 195.53125 L 66.015625 198.28125 C 65.738281 199.207031 65.453125 200.167969 65.425781 201.144531 C 65.402344 201.761719 65.492188 202.925781 66.273438 203.757812 C 66.621094 204.125 67.0625 204.386719 67.53125 204.660156 C 67.625 204.714844 67.71875 204.769531 67.816406 204.828125 C 68.085938 204.992188 68.371094 205.175781 68.628906 205.402344 C 68.492188 205.042969 68.265625 204.617188 67.929688 204.199219 C 67.542969 203.722656 67.117188 203.335938 66.820312 203.035156 C 66.519531 202.738281 66.347656 202.527344 66.390625 202.464844 C 66.433594 202.410156 66.6875 202.507812 67.058594 202.734375 C 67.421875 202.960938 67.917969 203.316406 68.351562 203.855469 C 68.5625 204.109375 68.71875 204.386719 68.839844 204.65625 C 68.839844 204.609375 68.839844 204.5625 68.839844 204.519531 C 68.742188 204.160156 68.605469 203.742188 68.378906 203.320312 C 67.785156 202.167969 66.859375 201.582031 66.9375 201.441406 C 66.96875 201.378906 67.257812 201.441406 67.652344 201.699219 C 67.988281 201.914062 68.382812 202.292969 68.703125 202.796875 C 68.617188 202.378906 68.476562 201.855469 68.195312 201.328125 C 67.570312 200.125 66.566406 199.53125 66.644531 199.394531 C 66.675781 199.332031 66.976562 199.390625 67.390625 199.65625 C 67.808594 199.910156 68.320312 200.390625 68.675781 201.070312 C 68.761719 201.230469 68.832031 201.394531 68.890625 201.554688 Z M 69.300781 184.496094 C 69.335938 184.480469 69.378906 184.472656 69.421875 184.472656 C 69.351562 184.3125 69.3125 184.136719 69.300781 183.953125 C 69.28125 184.136719 69.246094 184.3125 69.171875 184.472656 C 69.21875 184.472656 69.257812 184.480469 69.300781 184.496094 Z M 71.78125 190.101562 C 72.421875 189.722656 72.800781 188.871094 72.710938 188.039062 C 72.625 187.261719 72.167969 186.492188 71.453125 185.921875 C 70.769531 185.378906 70.328125 185.285156 69.429688 185.285156 C 69.382812 185.285156 69.339844 185.269531 69.300781 185.253906 C 69.257812 185.269531 69.210938 185.285156 69.167969 185.285156 C 68.269531 185.285156 67.828125 185.378906 67.144531 185.921875 C 66.429688 186.492188 65.96875 187.261719 65.882812 188.039062 C 65.792969 188.871094 66.171875 189.722656 66.8125 190.101562 C 66.851562 190.121094 66.878906 190.15625 66.910156 190.1875 C 67.183594 189.96875 67.539062 189.8125 67.9375 189.734375 C 68.398438 189.648438 68.851562 189.671875 69.300781 189.695312 C 69.738281 189.671875 70.195312 189.648438 70.65625 189.734375 C 71.058594 189.8125 71.40625 189.96875 71.6875 190.1875 C 71.714844 190.15625 71.746094 190.121094 71.78125 190.101562 Z M 72.320312 203.757812 C 73.105469 202.925781 73.191406 201.761719 73.171875 201.144531 C 73.144531 200.167969 72.855469 199.207031 72.582031 198.28125 L 71.753906 195.53125 C 71.710938 195.652344 71.660156 195.773438 71.605469 195.890625 C 71.203125 196.75 70.597656 197.429688 69.894531 197.820312 C 69.914062 197.871094 69.917969 197.921875 69.914062 197.976562 C 69.886719 198.296875 69.863281 198.613281 69.839844 198.933594 C 70.089844 198.621094 70.378906 198.394531 70.644531 198.277344 C 71.070312 198.082031 71.367188 198.132812 71.371094 198.199219 C 71.386719 198.28125 71.144531 198.371094 70.839844 198.609375 C 70.539062 198.84375 70.1875 199.257812 69.949219 199.800781 C 69.867188 199.992188 69.804688 200.183594 69.75 200.371094 C 69.730469 200.722656 69.714844 201.074219 69.699219 201.425781 C 69.699219 201.46875 69.703125 201.511719 69.707031 201.554688 C 69.765625 201.394531 69.835938 201.230469 69.917969 201.070312 C 70.273438 200.390625 70.789062 199.910156 71.199219 199.65625 C 71.617188 199.390625 71.917969 199.332031 71.953125 199.394531 C 72.027344 199.53125 71.023438 200.125 70.398438 201.328125 C 70.121094 201.855469 69.976562 202.378906 69.890625 202.796875 C 70.210938 202.292969 70.609375 201.914062 70.945312 201.699219 C 71.335938 201.441406 71.628906 201.378906 71.65625 201.441406 C 71.738281 201.582031 70.804688 202.167969 70.214844 203.320312 C 69.988281 203.742188 69.851562 204.160156 69.757812 204.519531 C 69.757812 204.5625 69.757812 204.609375 69.757812 204.65625 C 69.875 204.386719 70.035156 204.109375 70.246094 203.855469 C 70.679688 203.316406 71.175781 202.960938 71.539062 202.734375 C 71.90625 202.507812 72.15625 202.410156 72.203125 202.464844 C 72.246094 202.527344 72.078125 202.738281 71.773438 203.035156 C 71.476562 203.335938 71.054688 203.722656 70.667969 204.199219 C 70.328125 204.617188 70.101562 205.042969 69.96875 205.402344 C 70.222656 205.175781 70.507812 204.992188 70.78125 204.828125 C 70.871094 204.769531 70.96875 204.714844 71.0625 204.660156 C 71.53125 204.386719 71.96875 204.125 72.320312 203.757812 Z M 74.648438 180.542969 C 74.742188 180.382812 74.824219 180.21875 74.894531 180.046875 C 74.714844 180.175781 74.542969 180.242188 74.40625 180.273438 C 74.085938 180.335938 73.957031 180.253906 73.957031 180.195312 C 73.953125 180.121094 74.066406 180.074219 74.292969 179.949219 C 74.40625 179.882812 74.550781 179.789062 74.691406 179.640625 C 74.796875 179.53125 74.898438 179.378906 74.964844 179.195312 C 74.640625 179.164062 74.320312 179.15625 74 179.183594 C 73.910156 179.578125 73.859375 179.863281 73.8125 180.042969 C 73.75 180.257812 73.691406 180.339844 73.625 180.339844 C 73.554688 180.335938 73.492188 180.25 73.464844 180.015625 C 73.449219 179.851562 73.445312 179.597656 73.496094 179.257812 C 73.359375 179.28125 73.21875 179.316406 73.085938 179.355469 C 72.980469 179.722656 72.921875 179.992188 72.871094 180.164062 C 72.804688 180.371094 72.738281 180.449219 72.671875 180.445312 C 72.609375 180.445312 72.550781 180.355469 72.527344 180.128906 C 72.519531 179.988281 72.527344 179.789062 72.5625 179.535156 C 72.472656 179.570312 72.386719 179.609375 72.300781 179.648438 C 72.242188 179.886719 72.234375 180.101562 72.230469 180.285156 C 72.234375 180.515625 72.238281 180.695312 72.238281 180.835938 C 72.238281 181.113281 72.199219 181.234375 72.132812 181.246094 C 72.066406 181.257812 71.988281 181.160156 71.902344 180.886719 C 71.859375 180.746094 71.8125 180.554688 71.789062 180.304688 C 71.777344 180.203125 71.773438 180.085938 71.777344 179.960938 C 71.652344 180.042969 71.53125 180.132812 71.417969 180.230469 C 71.425781 180.722656 71.480469 181.0625 71.5 181.289062 C 71.527344 181.550781 71.507812 181.667969 71.445312 181.691406 C 71.386719 181.714844 71.289062 181.640625 71.167969 181.375 C 71.101562 181.21875 71.023438 180.980469 70.972656 180.652344 C 70.875 180.761719 70.785156 180.878906 70.699219 180.992188 C 70.78125 181.476562 70.925781 181.78125 70.996094 181.980469 C 71.078125 182.195312 71.09375 182.296875 71.042969 182.34375 C 70.992188 182.378906 70.878906 182.355469 70.707031 182.164062 C 70.601562 182.042969 70.460938 181.847656 70.351562 181.554688 C 70.289062 181.675781 70.230469 181.796875 70.183594 181.925781 C 70.164062 181.976562 70.152344 182.027344 70.136719 182.074219 C 70.257812 182.324219 70.445312 182.453125 70.550781 182.53125 C 70.679688 182.621094 70.75 182.671875 70.742188 182.746094 C 70.742188 182.808594 70.664062 182.882812 70.445312 182.863281 C 70.339844 182.847656 70.191406 182.808594 70.042969 182.699219 C 70.023438 182.6875 70.003906 182.667969 69.988281 182.652344 C 69.949219 182.855469 69.933594 183.058594 69.929688 183.265625 L 69.929688 183.371094 C 69.921875 183.613281 69.914062 184.105469 70.039062 184.261719 C 70.101562 184.34375 70.320312 184.355469 70.484375 184.363281 L 70.597656 184.371094 C 70.785156 184.378906 70.789062 184.367188 70.933594 184.15625 C 70.933594 184.152344 70.9375 184.152344 70.9375 184.148438 C 70.773438 184.105469 70.652344 184.03125 70.585938 183.96875 C 70.460938 183.859375 70.457031 183.769531 70.496094 183.71875 C 70.535156 183.660156 70.609375 183.644531 70.738281 183.664062 C 70.851562 183.671875 71.023438 183.71875 71.269531 183.707031 C 71.308594 183.65625 71.34375 183.605469 71.386719 183.554688 C 71.167969 183.472656 71.03125 183.367188 70.953125 183.28125 C 70.839844 183.15625 70.839844 183.066406 70.882812 183.015625 C 70.925781 182.960938 71.003906 182.953125 71.136719 182.988281 C 71.265625 183.019531 71.449219 183.101562 71.734375 183.144531 C 71.769531 183.105469 71.804688 183.0625 71.847656 183.023438 C 71.8125 183.011719 71.773438 183.003906 71.742188 182.988281 C 71.570312 182.910156 71.453125 182.808594 71.386719 182.714844 C 71.253906 182.515625 71.296875 182.402344 71.351562 182.378906 C 71.417969 182.351562 71.488281 182.394531 71.621094 182.457031 C 71.742188 182.523438 71.910156 182.589844 72.265625 182.636719 C 72.34375 182.566406 72.429688 182.5 72.515625 182.433594 C 72.320312 182.347656 72.179688 182.246094 72.089844 182.164062 C 71.933594 182.007812 71.914062 181.902344 71.957031 181.855469 C 72 181.796875 72.09375 181.804688 72.273438 181.871094 C 72.429688 181.917969 72.664062 182.019531 73.011719 182.082031 C 73.035156 182.066406 73.054688 182.054688 73.074219 182.042969 C 73.203125 181.953125 73.332031 181.863281 73.460938 181.773438 C 73.417969 181.769531 73.375 181.773438 73.339844 181.765625 C 73.109375 181.726562 72.941406 181.648438 72.828125 181.570312 C 72.59375 181.394531 72.585938 181.257812 72.628906 181.222656 C 72.683594 181.167969 72.777344 181.203125 72.976562 181.257812 C 73.179688 181.3125 73.488281 181.347656 74.0625 181.285156 C 74.066406 181.28125 74.066406 181.28125 74.066406 181.277344 C 74.113281 181.234375 74.152344 181.191406 74.195312 181.148438 C 73.992188 181.15625 73.828125 181.125 73.707031 181.070312 C 73.414062 180.9375 73.386719 180.777344 73.425781 180.738281 C 73.472656 180.683594 73.574219 180.71875 73.796875 180.738281 C 73.984375 180.757812 74.242188 180.722656 74.648438 180.542969 Z M 78.449219 190.25 L 78.75 189.375 C 77.019531 189.289062 75.238281 189.03125 73.523438 188.433594 C 73.492188 189.183594 73.1875 189.890625 72.695312 190.390625 L 75.109375 193.445312 C 75.628906 192.453125 76.480469 191.648438 77.515625 191.214844 L 77.628906 191.167969 C 77.8125 191.09375 77.988281 191.023438 78.113281 190.90625 C 78.28125 190.75 78.371094 190.484375 78.449219 190.25 Z M 81.390625 189.390625 C 80.691406 189.410156 79.976562 189.414062 79.25 189.390625 L 78.90625 190.410156 C 78.8125 190.683594 78.699219 191.023438 78.4375 191.265625 C 78.25 191.441406 78.015625 191.539062 77.808594 191.621094 L 77.699219 191.664062 C 76.710938 192.078125 75.894531 192.882812 75.441406 193.867188 L 76.320312 194.976562 C 77.03125 193.714844 78.207031 192.757812 79.589844 192.351562 L 79.703125 192.316406 C 80.019531 192.226562 80.3125 192.140625 80.464844 191.925781 C 80.570312 191.785156 80.605469 191.582031 80.640625 191.371094 L 80.65625 191.277344 C 80.777344 190.609375 81.035156 189.964844 81.390625 189.390625 Z M 80.847656 207.148438 C 81.488281 206.535156 81.996094 205.828125 82.351562 205.078125 C 81.765625 205.894531 81.113281 206.589844 80.390625 207.152344 C 79.082031 208.171875 77.550781 208.726562 76.066406 208.726562 C 76 208.726562 75.933594 208.722656 75.867188 208.71875 C 75.054688 208.695312 74.257812 208.5 73.484375 208.3125 C 73.199219 208.242188 72.910156 208.175781 72.621094 208.113281 C 71.847656 207.945312 70.730469 207.78125 69.730469 208.113281 C 69.730469 208.117188 69.730469 208.125 69.730469 208.132812 C 69.753906 208.578125 69.804688 209.019531 69.980469 209.324219 C 70.867188 209.050781 71.816406 208.996094 72.726562 209.171875 C 73.007812 209.226562 73.285156 209.300781 73.550781 209.375 C 73.933594 209.480469 74.296875 209.578125 74.675781 209.625 C 75.332031 209.699219 76.066406 209.601562 76.988281 209.320312 C 78.542969 208.839844 79.839844 208.109375 80.847656 207.148438 Z M 79.523438 206.21875 C 80.820312 205.613281 81.828125 204.382812 82.191406 202.992188 C 81.023438 202.152344 80.027344 200.964844 78.984375 199.652344 L 75.261719 194.941406 C 75.273438 195.03125 75.277344 195.117188 75.273438 195.191406 C 75.265625 195.460938 75.195312 195.621094 75.121094 195.625 C 74.964844 195.621094 74.855469 195.039062 74.558594 194.40625 C 74.347656 193.933594 74.089844 193.566406 74.011719 193.351562 L 72.363281 191.273438 C 72.488281 191.816406 72.429688 192.410156 72.351562 192.957031 C 72.253906 193.609375 72.152344 194.242188 71.980469 194.851562 C 71.988281 194.867188 71.996094 194.878906 72.003906 194.894531 L 72.980469 198.15625 C 73.066406 198.449219 73.152344 198.738281 73.230469 199.03125 C 73.253906 198.699219 73.273438 198.316406 73.25 197.90625 C 73.207031 196.585938 72.835938 195.550781 72.980469 195.488281 C 73.042969 195.457031 73.226562 195.683594 73.410156 196.113281 C 73.597656 196.535156 73.765625 197.167969 73.792969 197.882812 C 73.824219 198.59375 73.707031 199.238281 73.558594 199.679688 C 73.523438 199.78125 73.488281 199.875 73.453125 199.953125 C 73.527344 200.339844 73.578125 200.734375 73.589844 201.128906 C 73.625 202.3125 73.28125 203.347656 72.625 204.046875 C 72.234375 204.460938 71.746094 204.746094 71.277344 205.023438 C 71.179688 205.078125 71.085938 205.132812 70.996094 205.1875 C 70.683594 205.378906 70.351562 205.597656 70.078125 205.867188 C 70.351562 205.734375 70.667969 205.660156 71.003906 205.648438 C 71.550781 205.625 72.078125 205.765625 72.582031 205.894531 L 74.121094 206.296875 C 74.761719 206.464844 75.425781 206.636719 76.089844 206.710938 C 76.648438 206.773438 77.21875 206.773438 77.777344 206.707031 C 78.417969 206.625 79.007812 206.464844 79.523438 206.21875 Z M 81.585938 196.753906 C 81.644531 196.6875 81.707031 196.617188 81.773438 196.554688 C 80.769531 195.414062 79.6875 194.347656 78.546875 193.371094 C 78.542969 193.367188 78.539062 193.363281 78.535156 193.359375 C 77.746094 193.847656 77.078125 194.546875 76.65625 195.371094 C 76.648438 195.371094 76.644531 195.378906 76.640625 195.378906 L 79.441406 198.921875 C 79.878906 198.1875 80.578125 197.625 81.160156 197.164062 C 81.300781 197.054688 81.4375 196.90625 81.585938 196.753906 Z M 82.546875 197.460938 C 82.382812 197.261719 82.21875 197.0625 82.054688 196.871094 C 82 196.925781 81.945312 196.980469 81.886719 197.042969 C 81.738281 197.203125 81.585938 197.367188 81.421875 197.496094 C 80.796875 197.992188 80.105469 198.546875 79.722656 199.28125 C 79.867188 199.460938 80.011719 199.644531 80.15625 199.820312 C 80.304688 199.582031 80.515625 199.351562 80.785156 199.136719 C 80.964844 198.996094 81.152344 198.867188 81.335938 198.742188 C 81.542969 198.605469 81.742188 198.46875 81.925781 198.316406 C 82.160156 198.121094 82.441406 197.824219 82.546875 197.460938 Z M 82.859375 203.425781 C 82.859375 203.425781 82.859375 203.425781 82.859375 203.421875 C 82.757812 203.363281 82.65625 203.300781 82.554688 203.238281 C 82.132812 204.6875 81.0625 205.964844 79.703125 206.601562 C 79.148438 206.863281 78.511719 207.039062 77.828125 207.125 C 77.519531 207.164062 77.214844 207.183594 76.90625 207.183594 C 76.613281 207.183594 76.328125 207.164062 76.042969 207.132812 C 75.347656 207.054688 74.671875 206.878906 74.019531 206.707031 L 72.480469 206.304688 C 72.003906 206.179688 71.503906 206.050781 71.023438 206.066406 C 70.507812 206.085938 70.066406 206.28125 69.808594 206.601562 C 69.785156 206.628906 69.753906 206.644531 69.726562 206.660156 C 69.71875 206.894531 69.710938 207.128906 69.699219 207.355469 C 69.703125 207.460938 69.710938 207.570312 69.714844 207.671875 C 70.777344 207.355469 71.914062 207.53125 72.707031 207.699219 C 73 207.761719 73.292969 207.832031 73.582031 207.90625 C 74.335938 208.085938 75.109375 208.273438 75.878906 208.300781 C 77.332031 208.347656 78.84375 207.820312 80.136719 206.816406 C 81.203125 205.988281 82.113281 204.847656 82.859375 203.425781 Z M 82.242188 196.265625 C 83.121094 196.535156 84.113281 196.480469 85.003906 196.125 C 83.585938 194.847656 82.03125 193.726562 80.371094 192.820312 C 80.308594 192.777344 80.273438 192.714844 80.269531 192.644531 C 80.125 192.703125 79.976562 192.742188 79.839844 192.785156 L 79.726562 192.820312 C 79.449219 192.898438 79.183594 193.015625 78.921875 193.144531 C 80.046875 194.109375 81.105469 195.164062 82.09375 196.277344 C 82.136719 196.257812 82.191406 196.246094 82.242188 196.265625 Z M 83.699219 201.113281 C 84.078125 200.867188 84.488281 200.722656 84.882812 200.6875 C 84.253906 199.703125 83.574219 198.75 82.847656 197.832031 C 82.710938 198.121094 82.492188 198.394531 82.191406 198.644531 C 81.992188 198.808594 81.777344 198.953125 81.566406 199.09375 C 81.382812 199.21875 81.210938 199.335938 81.046875 199.46875 C 80.761719 199.691406 80.566406 199.925781 80.445312 200.167969 C 81.128906 200.984375 81.820312 201.707031 82.574219 202.269531 C 82.835938 201.890625 83.203125 201.4375 83.699219 201.113281 Z M 83.992188 191.273438 C 84.125 191.042969 84.398438 190.5625 84.773438 190.261719 C 84.132812 190.109375 83.484375 189.972656 82.832031 189.863281 C 82.472656 189.839844 82.113281 189.824219 81.75 189.824219 C 81.730469 189.824219 81.707031 189.824219 81.691406 189.824219 C 81.421875 190.304688 81.230469 190.824219 81.132812 191.363281 L 81.117188 191.457031 C 81.074219 191.6875 81.027344 191.945312 80.882812 192.171875 C 81.671875 192.808594 82.484375 193.457031 83.367188 193.976562 C 83.507812 194.0625 83.652344 194.136719 83.792969 194.210938 C 83.75 194.152344 83.707031 194.085938 83.671875 194.019531 C 83.453125 193.617188 83.386719 193.105469 83.484375 192.582031 C 83.554688 192.183594 83.71875 191.765625 83.992188 191.273438 Z M 82.421875 208.671875 C 83.578125 207.589844 84.515625 205.710938 84.023438 203.941406 C 83.757812 203.855469 83.496094 203.746094 83.25 203.625 C 83 205.027344 82.265625 206.378906 81.132812 207.453125 C 80.082031 208.464844 78.726562 209.222656 77.109375 209.71875 C 76.347656 209.957031 75.699219 210.066406 75.113281 210.066406 C 74.945312 210.066406 74.785156 210.058594 74.628906 210.042969 C 74.222656 209.992188 73.824219 209.886719 73.441406 209.785156 C 73.183594 209.710938 72.914062 209.636719 72.648438 209.589844 C 71.886719 209.441406 71.101562 209.464844 70.351562 209.65625 C 70.613281 209.765625 70.941406 209.753906 71.3125 209.742188 C 71.609375 209.734375 71.917969 209.71875 72.230469 209.777344 C 72.867188 209.882812 73.375 210.238281 73.867188 210.582031 C 74.207031 210.816406 74.527344 211.039062 74.867188 211.167969 C 75.667969 211.480469 76.621094 211.300781 77.527344 211.058594 C 79.050781 210.65625 80.988281 210.023438 82.421875 208.671875 Z M 85.933594 197.257812 C 85.96875 197.214844 86.003906 197.171875 86.050781 197.125 C 85.820312 196.890625 85.585938 196.664062 85.34375 196.4375 C 84.449219 196.84375 83.445312 196.957031 82.515625 196.765625 C 82.609375 196.875 82.703125 196.984375 82.792969 197.097656 C 83.257812 197.0625 83.691406 197.214844 84.113281 197.363281 C 84.214844 197.402344 84.320312 197.4375 84.425781 197.472656 C 84.839844 197.605469 85.414062 197.707031 85.785156 197.414062 C 85.839844 197.375 85.886719 197.316406 85.933594 197.257812 Z M 84.429688 203.21875 C 85.054688 203.40625 85.726562 203.46875 86.4375 203.414062 C 86.050781 202.648438 85.632812 201.902344 85.179688 201.167969 C 84.796875 201.140625 84.359375 201.265625 83.960938 201.523438 C 83.617188 201.742188 83.304688 202.078125 82.976562 202.542969 C 83.429688 202.835938 83.914062 203.066406 84.429688 203.21875 Z M 87.90625 195.410156 C 87.507812 195.464844 87.128906 195.5 86.777344 195.5 C 86.605469 195.5 86.433594 195.492188 86.269531 195.480469 C 85.648438 195.429688 85.003906 195.265625 84.347656 195.003906 C 84.734375 195.316406 85.109375 195.648438 85.472656 195.988281 C 86.3125 196.113281 87.207031 195.898438 87.90625 195.410156 Z M 87.0625 193.695312 C 87.425781 193.480469 87.65625 193.046875 87.628906 192.617188 C 87.613281 192.355469 87.507812 192.09375 87.394531 191.828125 C 87.300781 191.609375 87.203125 191.40625 87.050781 191.265625 C 86.878906 191.117188 86.617188 191.042969 86.320312 191.070312 C 85.925781 191.105469 85.382812 191.246094 85.042969 191.722656 C 84.953125 191.851562 84.890625 192.011719 84.867188 192.175781 C 84.820312 192.535156 84.925781 192.90625 85.046875 193.257812 C 85.109375 193.421875 85.171875 193.589844 85.28125 193.683594 C 85.398438 193.785156 85.578125 193.824219 85.753906 193.847656 C 86.316406 193.933594 86.746094 193.878906 87.0625 193.695312 Z M 88.199219 199.652344 C 88.203125 199.640625 88.207031 199.632812 88.207031 199.628906 C 87.628906 198.859375 87.003906 198.125 86.339844 197.429688 C 86.320312 197.449219 86.296875 197.476562 86.261719 197.527344 C 86.203125 197.59375 86.132812 197.679688 86.042969 197.75 C 85.632812 198.066406 85.03125 198.113281 84.296875 197.875 C 84.1875 197.839844 84.078125 197.800781 83.96875 197.761719 C 83.6875 197.660156 83.414062 197.566406 83.144531 197.53125 C 83.953125 198.546875 84.703125 199.605469 85.390625 200.703125 C 85.414062 200.707031 85.4375 200.710938 85.457031 200.714844 C 86.167969 199.960938 87.191406 199.5625 88.199219 199.652344 Z M 88.34375 193.253906 C 88.359375 192.832031 88.292969 192.40625 88.152344 191.996094 L 88.117188 191.894531 C 88.011719 191.601562 87.917969 191.332031 87.757812 191.132812 C 87.667969 191.101562 87.585938 191.070312 87.5 191.039062 C 87.648438 191.21875 87.75 191.429688 87.835938 191.632812 C 87.964844 191.929688 88.089844 192.246094 88.109375 192.585938 C 88.148438 193.191406 87.824219 193.804688 87.308594 194.117188 C 87.011719 194.289062 86.660156 194.375 86.234375 194.375 C 86.066406 194.375 85.878906 194.363281 85.683594 194.332031 C 85.449219 194.296875 85.175781 194.238281 84.964844 194.054688 C 84.765625 193.878906 84.667969 193.632812 84.59375 193.417969 C 84.484375 193.097656 84.375 192.722656 84.375 192.34375 C 84.375 192.265625 84.378906 192.1875 84.386719 192.109375 C 84.421875 191.867188 84.511719 191.632812 84.648438 191.441406 C 84.976562 190.984375 85.472656 190.699219 86.097656 190.609375 C 85.878906 190.546875 85.648438 190.480469 85.429688 190.421875 C 84.957031 190.421875 84.507812 191.21875 84.355469 191.484375 C 84.105469 191.929688 83.957031 192.304688 83.894531 192.65625 C 83.816406 193.085938 83.871094 193.5 84.042969 193.816406 C 84.273438 194.242188 84.757812 194.558594 85.335938 194.675781 C 85.910156 194.785156 86.515625 194.703125 87.035156 194.625 C 87.382812 194.566406 87.742188 194.492188 87.976562 194.277344 C 88.261719 194.019531 88.335938 193.578125 88.34375 193.253906 Z M 88.601562 195.980469 C 88.625 195.957031 88.648438 195.941406 88.675781 195.921875 C 88.542969 195.835938 88.410156 195.746094 88.273438 195.65625 C 87.617188 196.160156 86.78125 196.4375 85.953125 196.441406 C 86.132812 196.613281 86.3125 196.789062 86.484375 196.972656 C 86.851562 197.023438 87.148438 197.019531 87.414062 196.96875 C 87.710938 196.902344 87.972656 196.765625 88.164062 196.5625 C 88.226562 196.496094 88.28125 196.410156 88.339844 196.320312 C 88.414062 196.203125 88.496094 196.085938 88.601562 195.980469 Z M 89.988281 202.339844 C 89.546875 201.558594 89.0625 200.800781 88.535156 200.070312 C 88.480469 200.132812 88.402344 200.167969 88.316406 200.152344 C 87.359375 200.015625 86.371094 200.390625 85.722656 201.148438 C 85.710938 201.160156 85.695312 201.171875 85.679688 201.179688 C 86.109375 201.894531 86.511719 202.625 86.878906 203.367188 C 87.835938 203.230469 88.867188 202.886719 89.988281 202.339844 Z M 89.546875 198.082031 C 89.957031 197.820312 90.386719 197.640625 90.808594 197.550781 C 90.265625 197.078125 89.695312 196.632812 89.074219 196.191406 C 89.003906 196.210938 88.945312 196.238281 88.890625 196.289062 C 88.816406 196.359375 88.757812 196.457031 88.6875 196.558594 C 88.625 196.652344 88.558594 196.757812 88.464844 196.851562 C 88.21875 197.117188 87.882812 197.300781 87.496094 197.382812 C 87.316406 197.417969 87.125 197.429688 86.921875 197.429688 C 87.449219 198.003906 87.953125 198.601562 88.425781 199.21875 C 88.707031 198.761719 89.089844 198.367188 89.546875 198.082031 Z M 91.574219 193.046875 C 90.996094 192.625 90.386719 192.238281 89.757812 191.894531 C 89.292969 191.699219 88.828125 191.515625 88.351562 191.34375 C 88.414062 191.480469 88.460938 191.621094 88.511719 191.753906 L 88.542969 191.855469 C 88.703125 192.316406 88.777344 192.792969 88.761719 193.269531 C 88.742188 193.859375 88.570312 194.300781 88.261719 194.589844 C 88.019531 194.808594 87.726562 194.910156 87.425781 194.976562 C 87.636719 194.957031 87.847656 194.929688 88.074219 194.894531 C 89.195312 194.699219 90.6875 194.222656 91.574219 193.046875 Z M 90.320312 195.453125 C 90.71875 195.171875 90.992188 194.710938 91.0625 194.222656 C 90.289062 194.796875 89.382812 195.113281 88.582031 195.289062 C 88.582031 195.3125 88.578125 195.332031 88.574219 195.347656 C 88.78125 195.484375 88.984375 195.621094 89.183594 195.753906 C 89.238281 195.75 89.292969 195.75 89.351562 195.746094 L 89.414062 195.746094 C 89.738281 195.738281 90.0625 195.636719 90.320312 195.453125 Z M 91.324219 201.613281 C 92.039062 201.191406 92.726562 200.738281 93.402344 200.261719 C 92.695312 199.398438 92.003906 198.652344 91.277344 197.96875 C 90.800781 198.007812 90.289062 198.1875 89.796875 198.492188 C 89.355469 198.773438 88.992188 199.171875 88.742188 199.636719 C 89.332031 200.445312 89.875 201.28125 90.363281 202.152344 C 90.679688 201.988281 90.996094 201.808594 91.324219 201.613281 Z M 92.457031 193.8125 C 92.640625 193.742188 92.785156 193.582031 92.851562 193.394531 C 92.617188 193.265625 92.382812 193.140625 92.144531 193.015625 C 92.140625 193.054688 92.128906 193.09375 92.109375 193.132812 C 91.984375 193.316406 91.847656 193.492188 91.703125 193.652344 C 91.722656 193.660156 91.742188 193.671875 91.757812 193.683594 C 91.945312 193.851562 92.222656 193.902344 92.457031 193.8125 Z M 92.96875 191.929688 C 93.191406 191.605469 93.261719 191.203125 93.164062 190.859375 C 93.105469 190.824219 93.042969 190.792969 92.980469 190.765625 C 91.480469 190.011719 89.902344 189.402344 88.289062 188.945312 C 88.28125 188.941406 88.273438 188.933594 88.265625 188.929688 C 87.292969 188.984375 86.328125 189.058594 85.375 189.136719 C 84.566406 189.195312 83.730469 189.265625 82.910156 189.3125 C 82.71875 189.328125 82.527344 189.335938 82.335938 189.34375 C 85.199219 189.449219 88.015625 190.285156 90.480469 191.75 C 91.046875 192 91.601562 192.265625 92.152344 192.546875 C 92.496094 192.414062 92.785156 192.199219 92.96875 191.929688 Z M 93.210938 195.871094 L 91.496094 194.105469 C 91.453125 194.769531 91.105469 195.414062 90.5625 195.800781 C 90.3125 195.972656 90.019531 196.09375 89.71875 196.140625 C 90.304688 196.570312 90.851562 197.007812 91.367188 197.480469 C 91.425781 197.476562 91.480469 197.472656 91.535156 197.476562 C 91.699219 197.015625 91.988281 196.605469 92.371094 196.308594 C 92.613281 196.113281 92.90625 195.96875 93.210938 195.871094 Z M 94.808594 194.691406 C 94.855469 194.675781 94.902344 194.667969 94.953125 194.65625 C 94.386719 194.289062 93.808594 193.933594 93.222656 193.601562 C 93.105469 193.871094 92.882812 194.097656 92.609375 194.207031 C 92.492188 194.25 92.367188 194.269531 92.246094 194.269531 L 93.683594 195.757812 C 93.703125 195.753906 93.726562 195.746094 93.742188 195.746094 C 93.84375 195.222656 94.324219 194.832031 94.808594 194.691406 Z M 95.726562 198.464844 L 93.59375 196.265625 C 93.265625 196.339844 92.925781 196.488281 92.667969 196.6875 C 92.316406 196.96875 92.058594 197.359375 91.945312 197.796875 C 91.929688 197.851562 91.894531 197.898438 91.847656 197.929688 C 92.492188 198.554688 93.113281 199.242188 93.75 200.023438 C 94.425781 199.527344 95.089844 199.011719 95.726562 198.464844 Z M 96.046875 198.1875 C 96.605469 197.699219 97.152344 197.191406 97.679688 196.660156 C 97.003906 196.105469 96.300781 195.574219 95.582031 195.078125 C 95.355469 195.078125 95.144531 195.101562 94.941406 195.160156 C 94.574219 195.261719 94.191406 195.585938 94.203125 195.964844 C 94.207031 196.027344 94.1875 196.09375 94.140625 196.144531 C 94.125 196.15625 94.109375 196.167969 94.09375 196.175781 Z M 98.628906 191.15625 C 98.730469 191.042969 98.769531 190.878906 98.734375 190.738281 C 98.695312 190.59375 98.582031 190.476562 98.4375 190.429688 C 98.398438 190.414062 98.363281 190.386719 98.339844 190.351562 C 97.742188 190.070312 97.128906 189.84375 96.519531 189.65625 C 96.464844 189.851562 96.5 190.089844 96.628906 190.300781 C 96.773438 190.542969 97.003906 190.730469 97.304688 190.941406 C 97.511719 191.089844 97.753906 191.246094 98.011719 191.304688 C 98.253906 191.355469 98.5 191.296875 98.628906 191.15625 Z M 98.753906 194.003906 L 95.804688 192.3125 C 95.089844 191.902344 94.363281 191.480469 93.621094 191.09375 C 93.640625 191.460938 93.535156 191.851562 93.3125 192.171875 C 93.140625 192.417969 92.90625 192.628906 92.621094 192.789062 C 92.785156 192.875 92.953125 192.96875 93.117188 193.058594 C 93.121094 193.058594 93.121094 193.058594 93.125 193.058594 C 93.179688 193.066406 93.234375 193.097656 93.265625 193.144531 C 94.070312 193.589844 94.851562 194.074219 95.613281 194.585938 C 95.738281 194.585938 95.871094 194.585938 96 194.589844 C 96.117188 194.59375 96.238281 194.59375 96.355469 194.59375 C 97.183594 194.582031 98.011719 194.378906 98.753906 194.003906 Z M 100.070312 190.753906 C 99.460938 190.25 98.601562 189.832031 98.042969 189.5625 L 97.878906 189.484375 C 95.550781 188.355469 92.808594 188.164062 90.164062 187.976562 L 89.839844 187.957031 C 87.824219 187.8125 85.761719 187.839844 83.761719 187.863281 C 83.179688 187.871094 82.585938 187.875 82 187.878906 C 80.558594 187.894531 79.105469 187.59375 77.710938 187.3125 C 76.152344 186.992188 74.667969 186.695312 73.160156 186.773438 C 73.339844 187.140625 73.460938 187.53125 73.507812 187.917969 C 73.515625 187.921875 73.527344 187.917969 73.539062 187.925781 C 76.636719 189.035156 80 189.007812 82.878906 188.828125 C 83.695312 188.777344 84.53125 188.714844 85.335938 188.648438 C 87.660156 188.460938 90.066406 188.273438 92.441406 188.4375 C 95.449219 188.640625 98.050781 189.433594 100.070312 190.753906 Z M 99.367188 191.871094 C 99.535156 191.574219 99.550781 191.214844 99.40625 190.960938 C 99.394531 190.941406 99.394531 190.921875 99.386719 190.90625 C 99.308594 190.859375 99.230469 190.816406 99.152344 190.773438 C 99.175781 191.015625 99.101562 191.257812 98.9375 191.4375 C 98.757812 191.632812 98.484375 191.746094 98.1875 191.746094 C 98.101562 191.746094 98.015625 191.734375 97.921875 191.71875 C 97.589844 191.644531 97.308594 191.460938 97.066406 191.289062 C 96.769531 191.082031 96.464844 190.84375 96.269531 190.515625 C 96.082031 190.207031 96.03125 189.84375 96.113281 189.539062 C 94.792969 189.171875 93.503906 188.996094 92.410156 188.921875 C 91.511719 188.859375 90.605469 188.851562 89.699219 188.871094 C 90.898438 189.277344 92.066406 189.765625 93.195312 190.324219 C 93.253906 190.355469 93.3125 190.386719 93.367188 190.414062 C 93.375 190.414062 93.378906 190.417969 93.378906 190.417969 C 94.289062 190.878906 95.179688 191.390625 96.039062 191.882812 L 97.664062 192.820312 C 97.980469 192.746094 98.296875 192.664062 98.59375 192.53125 C 98.84375 192.414062 99.175781 192.210938 99.367188 191.871094 Z M 100.453125 193.339844 C 100.269531 193.554688 100.042969 193.761719 99.765625 193.957031 C 98.78125 194.667969 97.574219 195.066406 96.363281 195.078125 C 96.347656 195.078125 96.332031 195.078125 96.3125 195.078125 C 96.882812 195.488281 97.4375 195.917969 97.976562 196.363281 C 98.589844 195.730469 99.179688 195.074219 99.746094 194.390625 C 100.042969 194.03125 100.28125 193.679688 100.453125 193.339844 Z M 100.40625 192.554688 C 100.546875 192.273438 100.589844 191.96875 100.546875 191.695312 C 100.34375 191.535156 100.128906 191.382812 99.914062 191.238281 C 99.941406 191.515625 99.878906 191.816406 99.730469 192.078125 C 99.535156 192.425781 99.203125 192.714844 98.769531 192.917969 C 98.582031 193 98.382812 193.070312 98.191406 193.121094 L 99.242188 193.726562 C 99.320312 193.671875 99.40625 193.617188 99.484375 193.5625 C 99.933594 193.238281 100.238281 192.910156 100.40625 192.554688 Z M 101.570312 191.644531 C 101.730469 192.648438 101.324219 193.75 100.363281 194.910156 C 97.921875 197.871094 95.019531 200.359375 91.734375 202.316406 C 89.558594 203.609375 87.652344 204.25 85.957031 204.25 C 85.59375 204.25 85.238281 204.21875 84.894531 204.15625 C 85.195312 205.902344 84.472656 207.859375 82.972656 209.269531 C 81.40625 210.742188 79.347656 211.421875 77.730469 211.847656 C 77.109375 212.011719 76.46875 212.148438 75.832031 212.148438 C 75.40625 212.148438 74.988281 212.085938 74.582031 211.933594 C 74.148438 211.761719 73.773438 211.503906 73.410156 211.25 C 72.972656 210.941406 72.558594 210.652344 72.09375 210.574219 C 71.863281 210.535156 71.609375 210.546875 71.34375 210.554688 C 70.824219 210.574219 70.234375 210.59375 69.738281 210.238281 C 69.550781 210.101562 69.410156 209.9375 69.300781 209.75 C 69.183594 209.9375 69.046875 210.101562 68.855469 210.238281 C 68.359375 210.59375 67.773438 210.574219 67.253906 210.554688 C 66.984375 210.546875 66.730469 210.535156 66.5 210.574219 C 66.039062 210.652344 65.621094 210.941406 65.183594 211.25 C 64.820312 211.503906 64.449219 211.761719 64.011719 211.933594 C 63.605469 212.085938 63.1875 212.148438 62.765625 212.148438 C 62.128906 212.148438 61.484375 212.011719 60.863281 211.847656 C 59.246094 211.421875 57.191406 210.742188 55.621094 209.269531 C 54.125 207.859375 53.402344 205.902344 53.699219 204.15625 C 53.351562 204.21875 53.003906 204.25 52.636719 204.25 C 50.941406 204.25 49.035156 203.609375 46.859375 202.316406 C 43.578125 200.359375 40.671875 197.871094 38.230469 194.910156 C 37.269531 193.75 36.867188 192.648438 37.023438 191.644531 C 37.242188 190.261719 39.097656 189.367188 40.207031 188.828125 L 40.371094 188.753906 C 42.835938 187.554688 45.652344 187.359375 48.375 187.167969 L 48.699219 187.140625 C 50.746094 187 52.828125 187.023438 54.839844 187.054688 C 55.425781 187.058594 56.015625 187.066406 56.597656 187.066406 C 56.617188 187.066406 56.632812 187.066406 56.652344 187.066406 C 58.011719 187.066406 59.386719 186.789062 60.726562 186.515625 C 62.414062 186.171875 64.160156 185.816406 65.933594 186 C 66.140625 185.742188 66.375 185.5 66.644531 185.285156 C 66.898438 185.082031 67.132812 184.933594 67.367188 184.816406 C 67.269531 184.726562 67.199219 184.625 67.128906 184.523438 C 67.09375 184.472656 67.050781 184.410156 67.007812 184.351562 C 66.722656 183.980469 66.433594 183.597656 66.101562 183.289062 C 65.816406 183.027344 65.5 182.8125 65.164062 182.578125 C 64.796875 182.332031 64.414062 182.074219 64.082031 181.75 C 63.328125 181.023438 62.863281 180.003906 62.800781 178.957031 C 62.792969 178.792969 62.90625 178.644531 63.0625 178.617188 C 64.277344 178.390625 65.527344 178.546875 66.578125 179.070312 C 67.695312 179.617188 68.578125 180.574219 69.011719 181.691406 C 69.179688 182.125 69.273438 182.578125 69.300781 183.042969 C 69.324219 182.578125 69.417969 182.125 69.585938 181.691406 C 70.011719 180.574219 70.898438 179.617188 72.011719 179.070312 C 73.070312 178.546875 74.320312 178.390625 75.535156 178.617188 C 75.691406 178.644531 75.800781 178.792969 75.792969 178.957031 C 75.734375 180.003906 75.265625 181.023438 74.511719 181.75 C 74.179688 182.074219 73.800781 182.332031 73.433594 182.578125 C 73.09375 182.8125 72.78125 183.027344 72.496094 183.289062 C 72.160156 183.597656 71.867188 183.980469 71.585938 184.351562 C 71.539062 184.410156 71.5 184.472656 71.464844 184.523438 C 71.398438 184.625 71.324219 184.726562 71.230469 184.816406 C 71.460938 184.933594 71.695312 185.082031 71.953125 185.285156 C 72.222656 185.5 72.457031 185.742188 72.664062 186 C 74.4375 185.816406 76.183594 186.171875 77.871094 186.515625 C 79.222656 186.792969 80.621094 187.082031 81.996094 187.066406 C 82.582031 187.066406 83.167969 187.058594 83.753906 187.054688 C 85.765625 187.023438 87.84375 187 89.898438 187.140625 L 90.222656 187.167969 C 92.941406 187.359375 95.761719 187.554688 98.226562 188.753906 L 98.386719 188.828125 C 99.496094 189.367188 101.355469 190.261719 101.570312 191.644531 Z M 67.851562 192.777344 C 67.859375 192.773438 67.871094 192.757812 67.882812 192.742188 C 67.898438 192.703125 67.886719 192.722656 67.894531 192.722656 C 67.898438 192.722656 67.917969 192.722656 67.953125 192.703125 C 68.015625 192.664062 68.109375 192.550781 68.179688 192.460938 C 68.316406 192.261719 68.40625 192.050781 68.476562 191.871094 C 68.617188 191.503906 68.707031 191.261719 68.773438 191.273438 C 68.839844 191.289062 68.871094 191.535156 68.8125 191.960938 C 68.78125 192.167969 68.71875 192.429688 68.574219 192.703125 C 68.492188 192.839844 68.417969 192.976562 68.246094 193.121094 C 68.152344 193.199219 67.988281 193.261719 67.820312 193.242188 C 67.773438 193.335938 67.730469 193.429688 67.679688 193.527344 C 67.585938 193.707031 67.484375 193.878906 67.378906 194.042969 L 67.292969 194.164062 C 67.269531 194.191406 67.253906 194.226562 67.203125 194.285156 C 67.25 194.441406 67.304688 194.601562 67.375 194.777344 C 67.386719 194.765625 67.390625 194.753906 67.402344 194.742188 C 67.484375 194.65625 67.609375 194.640625 67.714844 194.691406 C 67.753906 194.710938 67.789062 194.734375 67.820312 194.765625 C 67.890625 194.832031 67.921875 194.898438 67.945312 194.949219 C 67.980469 194.902344 68.015625 194.851562 68.046875 194.804688 C 68.203125 194.558594 68.316406 194.308594 68.398438 194.09375 C 68.554688 193.664062 68.601562 193.367188 68.679688 193.367188 C 68.75 193.363281 68.84375 193.679688 68.765625 194.191406 C 68.730469 194.449219 68.636719 194.75 68.476562 195.058594 C 68.4375 195.136719 68.390625 195.210938 68.34375 195.289062 L 68.265625 195.40625 C 68.226562 195.453125 68.179688 195.519531 68.070312 195.574219 C 67.953125 195.628906 67.78125 195.609375 67.6875 195.539062 C 67.652344 195.566406 67.617188 195.589844 67.570312 195.609375 C 67.570312 195.609375 67.570312 195.613281 67.574219 195.613281 C 67.972656 196.472656 68.597656 197.109375 69.300781 197.390625 C 70 197.109375 70.621094 196.472656 71.023438 195.613281 C 71.023438 195.613281 71.023438 195.609375 71.023438 195.609375 C 70.980469 195.589844 70.941406 195.566406 70.90625 195.539062 C 70.816406 195.609375 70.636719 195.628906 70.527344 195.574219 C 70.414062 195.519531 70.367188 195.453125 70.332031 195.40625 L 70.25 195.289062 C 70.203125 195.210938 70.15625 195.136719 70.113281 195.058594 C 69.957031 194.75 69.867188 194.449219 69.828125 194.191406 C 69.75 193.679688 69.847656 193.363281 69.914062 193.367188 C 69.992188 193.367188 70.039062 193.664062 70.199219 194.09375 C 70.28125 194.308594 70.394531 194.558594 70.550781 194.804688 C 70.578125 194.851562 70.617188 194.902344 70.652344 194.949219 C 70.671875 194.898438 70.707031 194.832031 70.773438 194.765625 C 70.804688 194.734375 70.839844 194.710938 70.882812 194.691406 C 70.988281 194.636719 71.113281 194.660156 71.191406 194.742188 C 71.203125 194.753906 71.210938 194.765625 71.21875 194.777344 C 71.289062 194.601562 71.34375 194.441406 71.390625 194.285156 C 71.34375 194.226562 71.320312 194.191406 71.296875 194.164062 L 71.21875 194.042969 C 71.109375 193.878906 71.007812 193.707031 70.914062 193.527344 C 70.867188 193.429688 70.816406 193.335938 70.777344 193.242188 C 70.609375 193.261719 70.441406 193.199219 70.351562 193.121094 C 70.175781 192.976562 70.101562 192.839844 70.023438 192.703125 C 69.875 192.429688 69.816406 192.167969 69.785156 191.960938 C 69.726562 191.535156 69.757812 191.289062 69.820312 191.273438 C 69.886719 191.261719 69.976562 191.503906 70.113281 191.871094 C 70.191406 192.050781 70.28125 192.261719 70.417969 192.460938 C 70.484375 192.550781 70.574219 192.664062 70.644531 192.703125 C 70.679688 192.722656 70.695312 192.722656 70.699219 192.722656 C 70.695312 192.722656 70.683594 192.726562 70.675781 192.742188 L 71.15625 192.769531 C 71.230469 192.929688 71.308594 193.101562 71.394531 193.273438 C 71.449219 193.378906 71.507812 193.472656 71.5625 193.570312 C 71.585938 193.476562 71.605469 193.40625 71.632812 193.382812 C 71.660156 193.210938 71.6875 193.035156 71.714844 192.863281 C 71.816406 192.167969 71.890625 191.386719 71.496094 190.886719 C 71.289062 190.632812 70.953125 190.453125 70.539062 190.378906 C 70.148438 190.304688 69.726562 190.320312 69.316406 190.34375 C 69.3125 190.34375 69.3125 190.347656 69.308594 190.347656 C 69.304688 190.347656 69.300781 190.34375 69.300781 190.34375 C 69.292969 190.34375 69.289062 190.347656 69.289062 190.347656 C 69.285156 190.347656 69.28125 190.34375 69.277344 190.34375 C 68.871094 190.320312 68.445312 190.304688 68.054688 190.378906 C 67.640625 190.453125 67.304688 190.632812 67.101562 190.886719 C 66.703125 191.386719 66.777344 192.167969 66.882812 192.863281 C 66.910156 193.035156 66.933594 193.210938 66.960938 193.382812 C 66.988281 193.40625 67.007812 193.476562 67.03125 193.570312 C 67.089844 193.472656 67.144531 193.378906 67.199219 193.273438 C 67.289062 193.101562 67.367188 192.929688 67.441406 192.769531 L 67.511719 192.605469 C 67.554688 192.507812 67.664062 192.464844 67.761719 192.507812 C 67.859375 192.550781 67.898438 192.660156 67.859375 192.757812 C 67.855469 192.765625 67.851562 192.773438 67.851562 192.777344 " fill-opacity="1" fill-rule="nonzero"/></g><path fill="#000000" d="M 86.351562 193.121094 C 86.601562 193.035156 86.777344 192.757812 86.726562 192.515625 C 86.679688 192.285156 86.449219 192.046875 86.242188 191.933594 C 86.234375 191.929688 86.222656 191.925781 86.214844 191.925781 C 86.15625 191.925781 86.023438 191.980469 85.714844 192.25 L 85.648438 192.308594 C 85.554688 192.382812 85.429688 192.496094 85.417969 192.609375 C 85.40625 192.699219 85.464844 192.816406 85.566406 192.917969 C 85.78125 193.125 86.097656 193.210938 86.351562 193.121094 Z M 87.199219 192.417969 C 87.292969 192.894531 86.984375 193.414062 86.511719 193.582031 C 86.394531 193.625 86.269531 193.644531 86.144531 193.644531 C 85.816406 193.644531 85.480469 193.511719 85.230469 193.265625 C 85.011719 193.054688 84.90625 192.792969 84.9375 192.550781 C 84.976562 192.269531 85.171875 192.070312 85.339844 191.929688 L 85.398438 191.878906 C 85.660156 191.65625 86.085938 191.289062 86.472656 191.503906 C 86.757812 191.664062 87.117188 192 87.199219 192.417969 " fill-opacity="1" fill-rule="nonzero"/><path fill="#000000" d="M 79.136719 202.964844 C 79.214844 202.535156 79.179688 202.046875 79.039062 201.558594 C 78.921875 201.152344 78.753906 200.8125 78.535156 200.558594 C 78.28125 200.265625 77.964844 200.078125 77.636719 200.023438 C 77.246094 199.960938 76.851562 200.085938 76.515625 200.214844 C 76.457031 200.242188 76.390625 200.261719 76.328125 200.28125 C 76.25 200.304688 76.175781 200.324219 76.117188 200.351562 C 76.042969 200.394531 75.949219 200.542969 75.886719 200.640625 L 75.863281 200.679688 C 75.761719 200.835938 75.675781 201.011719 75.601562 201.207031 C 75.488281 201.523438 75.414062 201.890625 75.363281 202.355469 C 75.332031 202.632812 75.324219 202.851562 75.371094 203.066406 C 75.441406 203.433594 75.699219 203.785156 76.078125 204.03125 C 76.390625 204.234375 76.777344 204.375 77.292969 204.464844 C 77.511719 204.503906 77.746094 204.535156 77.960938 204.484375 C 78.148438 204.441406 78.335938 204.335938 78.511719 204.167969 C 78.832031 203.875 79.050781 203.445312 79.136719 202.964844 Z M 79.441406 201.441406 C 79.601562 202 79.640625 202.539062 79.546875 203.039062 C 79.449219 203.609375 79.179688 204.121094 78.796875 204.480469 C 78.5625 204.695312 78.316406 204.839844 78.054688 204.894531 C 77.9375 204.925781 77.824219 204.933594 77.710938 204.933594 C 77.546875 204.933594 77.382812 204.910156 77.21875 204.882812 C 76.648438 204.78125 76.207031 204.621094 75.847656 204.382812 C 75.382812 204.078125 75.054688 203.628906 74.957031 203.152344 C 74.898438 202.871094 74.917969 202.582031 74.945312 202.316406 C 75 201.808594 75.085938 201.414062 75.210938 201.0625 C 75.292969 200.839844 75.390625 200.632812 75.511719 200.449219 L 75.535156 200.410156 C 75.625 200.269531 75.746094 200.070312 75.933594 199.976562 C 76.019531 199.929688 76.117188 199.902344 76.207031 199.875 C 76.261719 199.859375 76.316406 199.839844 76.363281 199.824219 C 76.726562 199.679688 77.210938 199.523438 77.703125 199.605469 C 78.128906 199.675781 78.535156 199.914062 78.851562 200.28125 C 79.105469 200.585938 79.304688 200.972656 79.441406 201.441406 " fill-opacity="1" fill-rule="nonzero"/><path fill="#000000" d="M 78.605469 202.820312 C 78.730469 202.4375 78.707031 201.980469 78.539062 201.546875 C 78.460938 201.339844 78.367188 201.195312 78.25 201.105469 C 78.125 201.007812 77.933594 200.953125 77.726562 200.957031 C 77.632812 200.960938 77.539062 200.972656 77.449219 200.984375 C 77.328125 201.007812 77.207031 201.023438 77.082031 201.023438 C 76.941406 201.027344 76.859375 201.042969 76.742188 201.109375 C 76.414062 201.300781 76.144531 201.59375 75.980469 201.933594 C 75.867188 202.164062 75.808594 202.410156 75.816406 202.636719 C 75.820312 202.878906 75.898438 203.105469 76.035156 203.273438 C 76.210938 203.5 76.503906 203.652344 76.910156 203.734375 C 77.25 203.796875 77.546875 203.789062 77.792969 203.703125 C 78.164062 203.574219 78.472656 203.234375 78.605469 202.820312 Z M 78.929688 201.394531 C 79.128906 201.921875 79.160156 202.472656 79.003906 202.953125 C 78.832031 203.488281 78.421875 203.933594 77.929688 204.105469 C 77.746094 204.167969 77.546875 204.199219 77.332031 204.199219 C 77.171875 204.199219 77.003906 204.179688 76.828125 204.148438 C 76.324219 204.050781 75.949219 203.84375 75.707031 203.542969 C 75.515625 203.296875 75.40625 202.980469 75.398438 202.640625 C 75.398438 202.628906 75.398438 202.617188 75.398438 202.605469 C 75.398438 202.324219 75.46875 202.027344 75.605469 201.742188 C 75.808594 201.335938 76.136719 200.980469 76.53125 200.746094 C 76.710938 200.640625 76.882812 200.597656 77.085938 200.597656 C 77.183594 200.597656 77.28125 200.585938 77.386719 200.570312 C 77.496094 200.554688 77.605469 200.539062 77.714844 200.535156 C 77.933594 200.535156 78.246094 200.566406 78.507812 200.769531 C 78.6875 200.910156 78.824219 201.113281 78.929688 201.394531 " fill-opacity="1" fill-rule="nonzero"/><path fill="#000000" d="M 78.21875 202.445312 C 78.226562 202.195312 78.109375 201.976562 77.882812 201.839844 C 77.625 201.6875 77.300781 201.683594 77.050781 201.835938 C 76.796875 201.992188 76.722656 202.28125 76.738281 202.507812 C 76.75 202.730469 76.859375 203.007812 77.128906 203.128906 C 77.339844 203.222656 77.605469 203.207031 77.820312 203.085938 C 78.046875 202.953125 78.207031 202.703125 78.21875 202.445312 Z M 78.097656 201.476562 C 78.453125 201.691406 78.652344 202.0625 78.636719 202.464844 C 78.617188 202.863281 78.375 203.253906 78.027344 203.453125 C 77.839844 203.558594 77.632812 203.613281 77.425781 203.613281 C 77.261719 203.613281 77.105469 203.582031 76.957031 203.511719 C 76.589844 203.351562 76.347656 202.972656 76.316406 202.535156 C 76.292969 202.09375 76.488281 201.6875 76.835938 201.472656 C 77.214844 201.242188 77.710938 201.242188 78.097656 201.476562 " fill-opacity="1" fill-rule="nonzero"/><path fill="#000000" d="M 74.558594 195.859375 C 74.722656 196.421875 74.730469 196.96875 74.667969 197.34375 C 74.597656 197.722656 74.484375 197.929688 74.414062 197.917969 C 74.257812 197.886719 74.339844 197.011719 74.035156 196.015625 C 73.75 195.019531 73.199219 194.332031 73.3125 194.222656 C 73.363281 194.171875 73.578125 194.28125 73.839844 194.558594 C 74.097656 194.835938 74.386719 195.292969 74.558594 195.859375 " fill-opacity="1" fill-rule="nonzero"/><path fill="#000000" d="M 65.28125 194.222656 C 65.394531 194.332031 64.847656 195.019531 64.558594 196.015625 C 64.253906 197.011719 64.339844 197.886719 64.183594 197.917969 C 64.113281 197.929688 63.996094 197.722656 63.929688 197.34375 C 63.863281 196.96875 63.871094 196.421875 64.039062 195.859375 C 64.207031 195.292969 64.496094 194.835938 64.757812 194.558594 C 65.019531 194.28125 65.230469 194.171875 65.28125 194.222656 " fill-opacity="1" fill-rule="nonzero"/><path fill="#000000" d="M 63.226562 203.066406 C 63.273438 202.855469 63.261719 202.632812 63.230469 202.363281 C 63.183594 201.890625 63.105469 201.523438 62.992188 201.207031 C 62.921875 201.011719 62.835938 200.835938 62.734375 200.679688 L 62.710938 200.640625 C 62.648438 200.542969 62.554688 200.394531 62.472656 200.351562 C 62.417969 200.324219 62.34375 200.304688 62.265625 200.28125 C 62.203125 200.261719 62.140625 200.242188 62.078125 200.214844 C 61.808594 200.109375 61.492188 200.003906 61.171875 200.003906 C 61.101562 200.003906 61.03125 200.011719 60.960938 200.023438 C 60.632812 200.078125 60.3125 200.265625 60.0625 200.558594 C 59.84375 200.8125 59.671875 201.152344 59.554688 201.558594 C 59.414062 202.046875 59.378906 202.535156 59.457031 202.964844 C 59.539062 203.445312 59.761719 203.875 60.082031 204.167969 C 60.257812 204.335938 60.449219 204.441406 60.636719 204.484375 C 60.847656 204.535156 61.082031 204.503906 61.300781 204.464844 C 61.820312 204.375 62.207031 204.234375 62.519531 204.03125 C 62.890625 203.785156 63.152344 203.433594 63.226562 203.066406 Z M 63.648438 202.316406 C 63.679688 202.582031 63.695312 202.871094 63.636719 203.152344 C 63.539062 203.628906 63.214844 204.078125 62.746094 204.382812 C 62.382812 204.621094 61.949219 204.78125 61.371094 204.882812 C 61.214844 204.910156 61.050781 204.933594 60.878906 204.933594 C 60.769531 204.933594 60.652344 204.925781 60.539062 204.894531 C 60.28125 204.839844 60.03125 204.695312 59.796875 204.480469 C 59.414062 204.121094 59.144531 203.609375 59.046875 203.039062 C 58.957031 202.542969 58.996094 201.992188 59.152344 201.441406 C 59.285156 200.972656 59.484375 200.585938 59.746094 200.28125 C 60.058594 199.914062 60.46875 199.675781 60.890625 199.605469 C 61.386719 199.523438 61.867188 199.679688 62.230469 199.824219 C 62.28125 199.839844 62.332031 199.859375 62.386719 199.875 C 62.476562 199.902344 62.574219 199.929688 62.664062 199.976562 C 62.847656 200.070312 62.972656 200.269531 63.0625 200.410156 L 63.085938 200.449219 C 63.203125 200.632812 63.304688 200.839844 63.382812 201.0625 C 63.511719 201.414062 63.59375 201.808594 63.648438 202.316406 " fill-opacity="1" fill-rule="nonzero"/><path fill="#000000" d="M 62.78125 202.636719 C 62.78125 202.410156 62.726562 202.167969 62.613281 201.933594 C 62.449219 201.59375 62.179688 201.300781 61.851562 201.109375 C 61.738281 201.042969 61.652344 201.019531 61.515625 201.023438 C 61.390625 201.023438 61.261719 201.007812 61.144531 200.984375 C 61.054688 200.972656 60.964844 200.960938 60.871094 200.957031 C 60.863281 200.957031 60.855469 200.957031 60.847656 200.957031 C 60.644531 200.957031 60.46875 201.007812 60.339844 201.105469 C 60.230469 201.195312 60.132812 201.339844 60.054688 201.546875 C 59.886719 201.980469 59.867188 202.4375 59.988281 202.820312 C 60.121094 203.234375 60.429688 203.574219 60.800781 203.703125 C 61.046875 203.789062 61.34375 203.796875 61.6875 203.734375 C 62.089844 203.652344 62.382812 203.5 62.558594 203.273438 C 62.695312 203.105469 62.773438 202.878906 62.78125 202.636719 Z M 62.988281 201.742188 C 63.128906 202.039062 63.207031 202.347656 63.199219 202.640625 C 63.191406 202.980469 63.078125 203.296875 62.886719 203.542969 C 62.644531 203.84375 62.265625 204.050781 61.769531 204.148438 C 61.59375 204.179688 61.417969 204.199219 61.261719 204.199219 C 61.046875 204.199219 60.847656 204.167969 60.664062 204.105469 C 60.175781 203.933594 59.761719 203.488281 59.59375 202.953125 C 59.4375 202.472656 59.460938 201.921875 59.660156 201.394531 C 59.769531 201.113281 59.910156 200.910156 60.089844 200.769531 C 60.347656 200.566406 60.660156 200.527344 60.878906 200.535156 C 60.988281 200.539062 61.097656 200.554688 61.207031 200.570312 C 61.316406 200.585938 61.410156 200.597656 61.511719 200.597656 C 61.71875 200.597656 61.878906 200.640625 62.066406 200.746094 C 62.460938 200.980469 62.789062 201.335938 62.988281 201.742188 " fill-opacity="1" fill-rule="nonzero"/><path fill="#000000" d="M 61.859375 202.507812 C 61.871094 202.28125 61.792969 201.992188 61.542969 201.835938 C 61.417969 201.761719 61.277344 201.726562 61.132812 201.726562 C 60.988281 201.726562 60.839844 201.761719 60.707031 201.839844 C 60.484375 201.976562 60.363281 202.195312 60.375 202.445312 C 60.386719 202.703125 60.542969 202.953125 60.777344 203.085938 C 60.988281 203.207031 61.253906 203.222656 61.46875 203.128906 C 61.734375 203.007812 61.84375 202.730469 61.859375 202.507812 Z M 61.757812 201.472656 C 62.101562 201.6875 62.304688 202.09375 62.273438 202.535156 C 62.25 202.972656 62.003906 203.351562 61.636719 203.511719 C 61.492188 203.582031 61.332031 203.613281 61.167969 203.613281 C 60.964844 203.613281 60.753906 203.558594 60.570312 203.453125 C 60.214844 203.253906 59.980469 202.863281 59.957031 202.464844 C 59.9375 202.0625 60.144531 201.691406 60.496094 201.476562 C 60.882812 201.242188 61.378906 201.242188 61.757812 201.472656 " fill-opacity="1" fill-rule="nonzero"/><path fill="#000000" d="M 53.023438 192.917969 C 53.128906 192.816406 53.1875 192.699219 53.175781 192.609375 C 53.164062 192.496094 53.039062 192.382812 52.949219 192.308594 L 52.882812 192.25 C 52.570312 191.980469 52.4375 191.925781 52.382812 191.925781 C 52.367188 191.925781 52.359375 191.929688 52.355469 191.933594 C 52.144531 192.046875 51.914062 192.285156 51.867188 192.515625 C 51.820312 192.757812 51.992188 193.035156 52.242188 193.121094 C 52.496094 193.210938 52.808594 193.125 53.023438 192.917969 Z M 53.65625 192.550781 C 53.6875 192.792969 53.578125 193.054688 53.363281 193.265625 C 53.117188 193.511719 52.777344 193.644531 52.449219 193.644531 C 52.328125 193.644531 52.199219 193.625 52.085938 193.582031 C 51.609375 193.414062 51.296875 192.894531 51.394531 192.417969 C 51.480469 192 51.839844 191.664062 52.121094 191.503906 C 52.511719 191.289062 52.9375 191.65625 53.195312 191.878906 L 53.257812 191.929688 C 53.425781 192.070312 53.621094 192.269531 53.65625 192.550781 " fill-opacity="1" fill-rule="nonzero"/><g fill="#000000" fill-opacity="1"><g transform="translate(119.137878, 210.126154)"><g><path d="M 2.3125 0 L 2.3125 -30.546875 L 9.6875 -30.546875 L 9.6875 -6 L 22.40625 -6 L 22.40625 0 Z M 2.3125 0 "/></g></g></g><g fill="#000000" fill-opacity="1"><g transform="translate(143.046129, 210.126154)"><g><path d="M 2.3125 0 L 2.3125 -22.90625 L 9.609375 -22.90625 L 9.609375 0 Z M 5.96875 -25.578125 C 4.9375 -25.578125 4.050781 -25.914062 3.3125 -26.59375 C 2.582031 -27.28125 2.21875 -28.101562 2.21875 -29.0625 C 2.21875 -30.019531 2.582031 -30.835938 3.3125 -31.515625 C 4.050781 -32.203125 4.9375 -32.546875 5.96875 -32.546875 C 7 -32.546875 7.878906 -32.203125 8.609375 -31.515625 C 9.335938 -30.835938 9.703125 -30.019531 9.703125 -29.0625 C 9.703125 -28.101562 9.335938 -27.28125 8.609375 -26.59375 C 7.878906 -25.914062 7 -25.578125 5.96875 -25.578125 Z M 5.96875 -25.578125 "/></g></g></g><g fill="#000000" fill-opacity="1"><g transform="translate(154.962964, 210.126154)"><g><path d="M 8.765625 0.390625 C 7.304688 0.390625 6.007812 0.144531 4.875 -0.34375 C 3.75 -0.84375 2.859375 -1.59375 2.203125 -2.59375 C 1.554688 -3.59375 1.234375 -4.847656 1.234375 -6.359375 C 1.234375 -7.628906 1.457031 -8.703125 1.90625 -9.578125 C 2.351562 -10.453125 2.96875 -11.160156 3.75 -11.703125 C 4.539062 -12.253906 5.445312 -12.671875 6.46875 -12.953125 C 7.5 -13.234375 8.59375 -13.425781 9.75 -13.53125 C 11.050781 -13.644531 12.097656 -13.769531 12.890625 -13.90625 C 13.691406 -14.039062 14.273438 -14.234375 14.640625 -14.484375 C 15.003906 -14.742188 15.1875 -15.109375 15.1875 -15.578125 L 15.1875 -15.640625 C 15.1875 -16.410156 14.921875 -17.003906 14.390625 -17.421875 C 13.867188 -17.835938 13.160156 -18.046875 12.265625 -18.046875 C 11.296875 -18.046875 10.515625 -17.835938 9.921875 -17.421875 C 9.335938 -17.003906 8.96875 -16.425781 8.8125 -15.6875 L 2.09375 -15.921875 C 2.289062 -17.316406 2.800781 -18.5625 3.625 -19.65625 C 4.457031 -20.757812 5.601562 -21.625 7.0625 -22.25 C 8.519531 -22.882812 10.269531 -23.203125 12.3125 -23.203125 C 13.78125 -23.203125 15.128906 -23.03125 16.359375 -22.6875 C 17.585938 -22.34375 18.660156 -21.84375 19.578125 -21.1875 C 20.492188 -20.539062 21.203125 -19.742188 21.703125 -18.796875 C 22.210938 -17.859375 22.46875 -16.785156 22.46875 -15.578125 L 22.46875 0 L 15.59375 0 L 15.59375 -3.1875 L 15.421875 -3.1875 C 15.015625 -2.414062 14.492188 -1.757812 13.859375 -1.21875 C 13.234375 -0.6875 12.492188 -0.285156 11.640625 -0.015625 C 10.785156 0.253906 9.828125 0.390625 8.765625 0.390625 Z M 11.015625 -4.390625 C 11.804688 -4.390625 12.515625 -4.546875 13.140625 -4.859375 C 13.773438 -5.179688 14.28125 -5.625 14.65625 -6.1875 C 15.039062 -6.75 15.234375 -7.398438 15.234375 -8.140625 L 15.234375 -10.328125 C 15.023438 -10.210938 14.769531 -10.109375 14.46875 -10.015625 C 14.175781 -9.929688 13.851562 -9.847656 13.5 -9.765625 C 13.15625 -9.691406 12.800781 -9.625 12.4375 -9.5625 C 12.070312 -9.5 11.71875 -9.441406 11.375 -9.390625 C 10.6875 -9.285156 10.101562 -9.117188 9.625 -8.890625 C 9.144531 -8.660156 8.773438 -8.363281 8.515625 -8 C 8.265625 -7.632812 8.140625 -7.207031 8.140625 -6.71875 C 8.140625 -5.957031 8.410156 -5.378906 8.953125 -4.984375 C 9.492188 -4.585938 10.179688 -4.390625 11.015625 -4.390625 Z M 11.015625 -4.390625 "/></g></g></g><g fill="#000000" fill-opacity="1"><g transform="translate(179.557289, 210.126154)"><g><path d="M 2.3125 0 L 2.3125 -22.90625 L 9.25 -22.90625 L 9.25 -18.703125 L 9.5 -18.703125 C 9.976562 -20.097656 10.78125 -21.195312 11.90625 -22 C 13.039062 -22.800781 14.394531 -23.203125 15.96875 -23.203125 C 17.5625 -23.203125 18.925781 -22.796875 20.0625 -21.984375 C 21.195312 -21.171875 21.914062 -20.078125 22.21875 -18.703125 L 22.46875 -18.703125 C 22.894531 -20.066406 23.726562 -21.15625 24.96875 -21.96875 C 26.207031 -22.789062 27.671875 -23.203125 29.359375 -23.203125 C 31.535156 -23.203125 33.296875 -22.507812 34.640625 -21.125 C 35.992188 -19.738281 36.671875 -17.835938 36.671875 -15.421875 L 36.671875 0 L 29.375 0 L 29.375 -13.75 C 29.375 -14.894531 29.082031 -15.765625 28.5 -16.359375 C 27.914062 -16.960938 27.15625 -17.265625 26.21875 -17.265625 C 25.21875 -17.265625 24.429688 -16.9375 23.859375 -16.28125 C 23.285156 -15.632812 23 -14.765625 23 -13.671875 L 23 0 L 15.984375 0 L 15.984375 -13.828125 C 15.984375 -14.890625 15.695312 -15.726562 15.125 -16.34375 C 14.550781 -16.957031 13.789062 -17.265625 12.84375 -17.265625 C 12.207031 -17.265625 11.644531 -17.113281 11.15625 -16.8125 C 10.664062 -16.507812 10.285156 -16.078125 10.015625 -15.515625 C 9.742188 -14.960938 9.609375 -14.3125 9.609375 -13.5625 L 9.609375 0 Z M 2.3125 0 "/></g></g></g><g fill="#000000" fill-opacity="1"><g transform="translate(218.454805, 210.126154)"><g><path d="M 8.375 -30.546875 L 8.375 -27.140625 C 8.375 -26.203125 8.1875 -25.25 7.8125 -24.28125 C 7.445312 -23.320312 6.960938 -22.425781 6.359375 -21.59375 C 5.765625 -20.757812 5.132812 -20.054688 4.46875 -19.484375 L 1.375 -21.171875 C 1.832031 -21.929688 2.238281 -22.785156 2.59375 -23.734375 C 2.945312 -24.679688 3.125 -25.8125 3.125 -27.125 L 3.125 -30.546875 Z M 8.375 -30.546875 "/></g></g></g><g fill="#000000" fill-opacity="1"><g transform="translate(225.897218, 210.126154)"><g><path d="M 22.3125 -15.90625 L 15.609375 -15.734375 C 15.546875 -16.210938 15.359375 -16.632812 15.046875 -17 C 14.742188 -17.375 14.34375 -17.664062 13.84375 -17.875 C 13.351562 -18.09375 12.785156 -18.203125 12.140625 -18.203125 C 11.296875 -18.203125 10.578125 -18.035156 9.984375 -17.703125 C 9.390625 -17.367188 9.097656 -16.910156 9.109375 -16.328125 C 9.097656 -15.878906 9.28125 -15.488281 9.65625 -15.15625 C 10.03125 -14.832031 10.695312 -14.570312 11.65625 -14.375 L 16.078125 -13.546875 C 18.367188 -13.109375 20.070312 -12.378906 21.1875 -11.359375 C 22.300781 -10.347656 22.863281 -9.007812 22.875 -7.34375 C 22.863281 -5.769531 22.398438 -4.398438 21.484375 -3.234375 C 20.566406 -2.066406 19.3125 -1.160156 17.71875 -0.515625 C 16.125 0.117188 14.304688 0.4375 12.265625 0.4375 C 8.992188 0.4375 6.414062 -0.234375 4.53125 -1.578125 C 2.644531 -2.929688 1.566406 -4.742188 1.296875 -7.015625 L 8.5 -7.1875 C 8.65625 -6.351562 9.066406 -5.71875 9.734375 -5.28125 C 10.398438 -4.84375 11.253906 -4.625 12.296875 -4.625 C 13.222656 -4.625 13.976562 -4.796875 14.5625 -5.140625 C 15.15625 -5.492188 15.457031 -5.957031 15.46875 -6.53125 C 15.457031 -7.050781 15.226562 -7.46875 14.78125 -7.78125 C 14.332031 -8.09375 13.628906 -8.335938 12.671875 -8.515625 L 8.6875 -9.28125 C 6.382812 -9.695312 4.671875 -10.46875 3.546875 -11.59375 C 2.421875 -12.71875 1.863281 -14.15625 1.875 -15.90625 C 1.863281 -17.4375 2.269531 -18.75 3.09375 -19.84375 C 3.925781 -20.9375 5.101562 -21.769531 6.625 -22.34375 C 8.144531 -22.914062 9.9375 -23.203125 12 -23.203125 C 15.101562 -23.203125 17.550781 -22.550781 19.34375 -21.25 C 21.132812 -19.957031 22.125 -18.175781 22.3125 -15.90625 Z M 22.3125 -15.90625 "/></g></g></g><g fill="#000000" fill-opacity="1"><g transform="translate(250.044101, 210.126154)"><g/></g></g><g fill="#000000" fill-opacity="1"><g transform="translate(259.082404, 210.126154)"><g><path d="M 30.03125 -19.484375 L 22.578125 -19.484375 C 22.484375 -20.242188 22.28125 -20.929688 21.96875 -21.546875 C 21.65625 -22.160156 21.242188 -22.6875 20.734375 -23.125 C 20.234375 -23.5625 19.632812 -23.894531 18.9375 -24.125 C 18.25 -24.363281 17.488281 -24.484375 16.65625 -24.484375 C 15.175781 -24.484375 13.898438 -24.117188 12.828125 -23.390625 C 11.765625 -22.671875 10.945312 -21.625 10.375 -20.25 C 9.800781 -18.882812 9.515625 -17.222656 9.515625 -15.265625 C 9.515625 -13.242188 9.804688 -11.546875 10.390625 -10.171875 C 10.972656 -8.804688 11.789062 -7.78125 12.84375 -7.09375 C 13.90625 -6.40625 15.160156 -6.0625 16.609375 -6.0625 C 17.429688 -6.0625 18.175781 -6.164062 18.84375 -6.375 C 19.507812 -6.582031 20.097656 -6.882812 20.609375 -7.28125 C 21.128906 -7.6875 21.554688 -8.179688 21.890625 -8.765625 C 22.222656 -9.347656 22.453125 -10.003906 22.578125 -10.734375 L 30.03125 -10.6875 C 29.90625 -9.34375 29.515625 -8.015625 28.859375 -6.703125 C 28.210938 -5.390625 27.320312 -4.191406 26.1875 -3.109375 C 25.050781 -2.023438 23.671875 -1.164062 22.046875 -0.53125 C 20.421875 0.101562 18.5625 0.421875 16.46875 0.421875 C 13.695312 0.421875 11.21875 -0.1875 9.03125 -1.40625 C 6.851562 -2.625 5.132812 -4.398438 3.875 -6.734375 C 2.613281 -9.078125 1.984375 -11.921875 1.984375 -15.265625 C 1.984375 -18.628906 2.625 -21.476562 3.90625 -23.8125 C 5.1875 -26.15625 6.921875 -27.929688 9.109375 -29.140625 C 11.296875 -30.359375 13.75 -30.96875 16.46875 -30.96875 C 18.3125 -30.96875 20.019531 -30.707031 21.59375 -30.1875 C 23.164062 -29.675781 24.546875 -28.929688 25.734375 -27.953125 C 26.929688 -26.972656 27.898438 -25.769531 28.640625 -24.34375 C 29.390625 -22.925781 29.851562 -21.304688 30.03125 -19.484375 Z M 30.03125 -19.484375 "/></g></g></g><g fill="#000000" fill-opacity="1"><g transform="translate(291.01476, 210.126154)"><g><path d="M 8.765625 0.390625 C 7.304688 0.390625 6.007812 0.144531 4.875 -0.34375 C 3.75 -0.84375 2.859375 -1.59375 2.203125 -2.59375 C 1.554688 -3.59375 1.234375 -4.847656 1.234375 -6.359375 C 1.234375 -7.628906 1.457031 -8.703125 1.90625 -9.578125 C 2.351562 -10.453125 2.96875 -11.160156 3.75 -11.703125 C 4.539062 -12.253906 5.445312 -12.671875 6.46875 -12.953125 C 7.5 -13.234375 8.59375 -13.425781 9.75 -13.53125 C 11.050781 -13.644531 12.097656 -13.769531 12.890625 -13.90625 C 13.691406 -14.039062 14.273438 -14.234375 14.640625 -14.484375 C 15.003906 -14.742188 15.1875 -15.109375 15.1875 -15.578125 L 15.1875 -15.640625 C 15.1875 -16.410156 14.921875 -17.003906 14.390625 -17.421875 C 13.867188 -17.835938 13.160156 -18.046875 12.265625 -18.046875 C 11.296875 -18.046875 10.515625 -17.835938 9.921875 -17.421875 C 9.335938 -17.003906 8.96875 -16.425781 8.8125 -15.6875 L 2.09375 -15.921875 C 2.289062 -17.316406 2.800781 -18.5625 3.625 -19.65625 C 4.457031 -20.757812 5.601562 -21.625 7.0625 -22.25 C 8.519531 -22.882812 10.269531 -23.203125 12.3125 -23.203125 C 13.78125 -23.203125 15.128906 -23.03125 16.359375 -22.6875 C 17.585938 -22.34375 18.660156 -21.84375 19.578125 -21.1875 C 20.492188 -20.539062 21.203125 -19.742188 21.703125 -18.796875 C 22.210938 -17.859375 22.46875 -16.785156 22.46875 -15.578125 L 22.46875 0 L 15.59375 0 L 15.59375 -3.1875 L 15.421875 -3.1875 C 15.015625 -2.414062 14.492188 -1.757812 13.859375 -1.21875 C 13.234375 -0.6875 12.492188 -0.285156 11.640625 -0.015625 C 10.785156 0.253906 9.828125 0.390625 8.765625 0.390625 Z M 11.015625 -4.390625 C 11.804688 -4.390625 12.515625 -4.546875 13.140625 -4.859375 C 13.773438 -5.179688 14.28125 -5.625 14.65625 -6.1875 C 15.039062 -6.75 15.234375 -7.398438 15.234375 -8.140625 L 15.234375 -10.328125 C 15.023438 -10.210938 14.769531 -10.109375 14.46875 -10.015625 C 14.175781 -9.929688 13.851562 -9.847656 13.5 -9.765625 C 13.15625 -9.691406 12.800781 -9.625 12.4375 -9.5625 C 12.070312 -9.5 11.71875 -9.441406 11.375 -9.390625 C 10.6875 -9.285156 10.101562 -9.117188 9.625 -8.890625 C 9.144531 -8.660156 8.773438 -8.363281 8.515625 -8 C 8.265625 -7.632812 8.140625 -7.207031 8.140625 -6.71875 C 8.140625 -5.957031 8.410156 -5.378906 8.953125 -4.984375 C 9.492188 -4.585938 10.179688 -4.390625 11.015625 -4.390625 Z M 11.015625 -4.390625 "/></g></g></g><g fill="#000000" fill-opacity="1"><g transform="translate(315.609072, 210.126154)"><g><path d="M 9.609375 -30.546875 L 9.609375 0 L 2.3125 0 L 2.3125 -30.546875 Z M 9.609375 -30.546875 "/></g></g></g><g fill="#000000" fill-opacity="1"><g transform="translate(327.525919, 210.126154)"><g><path d="M 9.609375 -30.546875 L 9.609375 0 L 2.3125 0 L 2.3125 -30.546875 Z M 9.609375 -30.546875 "/></g></g></g></svg>