<svg xmlns="http://www.w3.org/2000/svg" xmlns:xlink="http://www.w3.org/1999/xlink" width="500" zoomAndPan="magnify" viewBox="0 0 375 374.999991" height="500" preserveAspectRatio="xMidYMid meet" version="1.0"><defs><clipPath id="7e687d66d2"><path d="M 39 105 L 337 105 L 337 258.351562 L 39 258.351562 Z M 39 105 " clip-rule="nonzero"/></clipPath></defs><g clip-path="url(#7e687d66d2)"><path fill="#000000" d="M 50.445312 174.523438 L 55.273438 171.769531 C 54.390625 171.535156 53.484375 171.226562 52.621094 170.839844 C 50.628906 169.921875 49.082031 168.605469 48.191406 167.03125 C 47.515625 165.832031 47.234375 164.46875 47.339844 163.199219 C 46.34375 163.859375 45.367188 164.542969 44.421875 165.28125 C 44.246094 166.527344 44.449219 167.917969 45.089844 169.195312 C 45.871094 170.8125 47.265625 172.300781 49.324219 173.78125 C 49.683594 174.03125 50.070312 174.273438 50.445312 174.523438 Z M 62.457031 158.914062 C 63.046875 157.957031 63.210938 156.875 62.960938 155.996094 C 60.164062 156.847656 57.351562 157.882812 54.59375 159.15625 C 54.480469 159.320312 54.324219 159.449219 54.121094 159.503906 C 53.484375 159.71875 52.96875 160.261719 52.785156 160.917969 C 52.613281 161.566406 52.804688 162.308594 53.25 162.8125 C 53.859375 163.460938 54.960938 163.730469 56.09375 163.492188 C 57.292969 163.238281 58.394531 162.511719 59.34375 161.847656 C 60.734375 160.890625 61.789062 160.027344 62.457031 158.914062 Z M 63.910156 180.695312 C 63.832031 180.695312 63.761719 180.695312 63.6875 180.695312 C 58.117188 180.636719 52.5625 178.820312 48.039062 175.589844 C 46.761719 174.691406 45.726562 173.75 44.867188 172.773438 C 45.667969 174.320312 46.742188 175.917969 48.125 177.5625 C 50.714844 180.667969 53.445312 183.664062 56.25 186.535156 C 58.742188 184.507812 61.289062 182.5625 63.910156 180.695312 Z M 65.136719 194.855469 L 74.132812 185.6875 C 74.054688 185.648438 73.964844 185.597656 73.910156 185.539062 C 73.695312 185.316406 73.589844 185.019531 73.589844 184.726562 C 73.65625 182.996094 71.886719 181.527344 70.214844 181.054688 C 69.285156 180.792969 68.308594 180.695312 67.285156 180.6875 C 63.957031 182.949219 60.734375 185.367188 57.632812 187.902344 C 60.058594 190.308594 62.5625 192.628906 65.136719 194.855469 Z M 78.617188 171.488281 C 79.371094 171.074219 80.109375 170.65625 80.882812 170.261719 C 79.585938 169.535156 78.484375 168.566406 77.699219 167.445312 C 76.683594 165.984375 76.210938 164.214844 76.289062 162.53125 C 72.882812 164.300781 69.519531 166.21875 66.25 168.085938 L 52.699219 175.800781 C 56.105469 177.503906 59.914062 178.433594 63.714844 178.480469 C 64.265625 178.480469 64.816406 178.480469 65.359375 178.460938 C 65.949219 178.453125 66.53125 178.453125 67.121094 178.453125 C 70.621094 176.109375 74.226562 173.914062 77.914062 171.875 C 78.078125 171.664062 78.300781 171.515625 78.578125 171.488281 C 78.597656 171.488281 78.597656 171.488281 78.617188 171.488281 Z M 75.996094 183.78125 L 82.621094 177.011719 C 82.050781 177 81.480469 176.921875 80.949219 176.710938 C 79.691406 176.226562 78.65625 175.191406 78.125 173.964844 C 75.417969 175.484375 72.765625 177.089844 70.175781 178.769531 C 70.398438 178.820312 70.601562 178.847656 70.824219 178.925781 C 73.046875 179.5625 75.261719 181.351562 75.726562 183.722656 C 75.8125 183.730469 75.902344 183.761719 75.996094 183.78125 Z M 84.449219 193.683594 C 84.238281 193.539062 84.074219 193.316406 84.003906 193.066406 C 83.472656 191.082031 82.285156 189.292969 80.667969 188.027344 C 79.488281 187.109375 77.933594 186.429688 76.402344 186.101562 L 66.605469 196.113281 C 69.535156 198.605469 72.574219 200.957031 75.707031 203.210938 C 78.628906 199.652344 81.480469 196.527344 84.449219 193.683594 Z M 84.867188 174.339844 C 84.933594 174.273438 85.019531 174.226562 85.117188 174.1875 C 84.429688 173.460938 83.8125 172.667969 83.25 171.816406 C 83.144531 171.652344 83.097656 171.46875 83.085938 171.296875 C 81.992188 171.855469 80.910156 172.425781 79.828125 173.015625 C 80.136719 173.878906 80.792969 174.601562 81.644531 174.921875 C 82.699219 175.328125 84.003906 175.105469 84.867188 174.339844 Z M 94.238281 185.519531 C 92.84375 185.308594 91.492188 184.765625 90.359375 183.972656 C 87.863281 182.222656 86.238281 179.273438 86.046875 176.257812 L 78.183594 184.292969 C 79.574219 184.738281 80.921875 185.40625 82.03125 186.285156 C 83.78125 187.648438 85.128906 189.507812 85.871094 191.613281 C 86.125 191.59375 86.382812 191.613281 86.636719 191.625 C 89.023438 189.476562 91.539062 187.484375 94.238281 185.519531 Z M 94.324219 152.417969 C 90.164062 152.328125 85.988281 152.359375 81.867188 152.640625 C 76.839844 152.976562 70.902344 153.78125 64.816406 155.453125 C 65.214844 156.847656 64.972656 158.488281 64.113281 159.910156 C 63.210938 161.390625 61.820312 162.484375 60.457031 163.433594 C 59.34375 164.207031 58.027344 165.046875 56.492188 165.375 C 56.09375 165.464844 55.679688 165.511719 55.292969 165.511719 C 53.917969 165.511719 52.652344 165 51.828125 164.097656 C 51.085938 163.289062 50.746094 162.175781 50.851562 161.082031 C 50.476562 161.277344 50.125 161.46875 49.769531 161.683594 C 49.75 161.757812 49.738281 161.847656 49.691406 161.921875 C 49.023438 163.09375 49.101562 164.71875 49.875 166.074219 C 50.746094 167.628906 52.285156 168.558594 53.425781 169.082031 C 54.769531 169.699219 56.25 170.066406 57.710938 170.394531 L 65.15625 166.140625 C 69.121094 163.894531 73.222656 161.566406 77.398438 159.46875 C 77.410156 159.46875 77.429688 159.449219 77.4375 159.449219 C 77.710938 159.320312 77.980469 159.167969 78.242188 159.03125 C 83.425781 156.480469 88.8125 154.265625 94.324219 152.417969 Z M 98.726562 201.460938 C 97.582031 199.339844 95.910156 197.523438 93.851562 196.246094 C 91.597656 194.855469 89.257812 194.042969 87.050781 193.859375 C 83.707031 196.960938 80.535156 200.367188 77.292969 204.304688 C 80.386719 206.46875 83.570312 208.539062 86.847656 210.464844 C 88.355469 211.351562 89.816406 212.164062 91.257812 212.910156 C 93.511719 208.953125 95.996094 205.136719 98.726562 201.460938 Z M 99.488281 181.921875 C 99.460938 181.835938 99.460938 181.75 99.460938 181.644531 C 95.773438 180.851562 91.597656 179.398438 88.058594 176.789062 C 88.386719 179.011719 89.613281 181.113281 91.453125 182.386719 C 92.671875 183.230469 94.152344 183.703125 95.609375 183.730469 L 95.921875 183.730469 C 96.171875 183.75 96.441406 183.75 96.714844 183.761719 C 97.613281 183.160156 98.542969 182.53125 99.488281 181.921875 Z M 101.789062 179.84375 C 102.835938 180.019531 103.8125 180.132812 104.761719 180.222656 C 103.386719 179.929688 102.042969 179.457031 100.941406 178.460938 C 99.507812 177.144531 98.726562 175.132812 98.628906 172.457031 C 98.542969 170.28125 98.890625 168.113281 99.625 166.003906 L 99.789062 165.550781 C 100.011719 164.941406 100.234375 164.292969 100.496094 163.675781 C 98.339844 164.457031 96.171875 165.296875 94.042969 166.1875 C 91.152344 167.753906 88.375 169.515625 85.707031 171.441406 C 89.777344 176.789062 96.636719 178.964844 101.789062 179.84375 Z M 107.089844 191.390625 C 106.144531 191.402344 105.261719 191.34375 104.449219 191.179688 C 102.671875 190.8125 101.132812 189.980469 99.980469 188.769531 C 99.574219 188.335938 99.265625 187.863281 98.976562 187.425781 C 98.667969 186.960938 98.386719 186.515625 98.039062 186.207031 C 97.785156 185.964844 97.527344 185.839844 97.214844 185.761719 C 94.335938 187.765625 91.714844 189.796875 89.21875 191.953125 C 91.152344 192.367188 93.144531 193.179688 95.019531 194.371094 C 97.121094 195.667969 98.890625 197.464844 100.175781 199.554688 C 102.363281 196.738281 104.664062 194.011719 107.089844 191.390625 Z M 109.101562 189.320312 C 109.90625 188.492188 110.71875 187.6875 111.550781 186.90625 C 107.730469 186.886719 103.910156 185.617188 100.871094 183.316406 C 100.242188 183.722656 99.644531 184.136719 99.035156 184.535156 C 99.152344 184.621094 99.257812 184.699219 99.363281 184.804688 C 99.867188 185.28125 100.214844 185.820312 100.570312 186.351562 C 100.84375 186.757812 101.09375 187.144531 101.382812 187.457031 C 102.265625 188.375 103.445312 189.003906 104.835938 189.292969 C 106.054688 189.535156 107.398438 189.554688 109.09375 189.320312 Z M 112.785156 208.492188 C 112.730469 208.453125 112.660156 208.394531 112.613281 208.335938 C 109.632812 204.894531 105.058594 203.160156 100.679688 203.808594 C 100.292969 203.878906 99.90625 203.722656 99.671875 203.433594 C 97.253906 206.757812 95.019531 210.210938 92.988281 213.761719 C 98.144531 216.265625 102.902344 217.824219 107.285156 218.441406 C 108.984375 215.066406 110.824219 211.742188 112.785156 208.492188 Z M 113.734375 184.835938 C 115.425781 183.289062 117.160156 181.777344 118.917969 180.347656 C 115.910156 181.546875 112.953125 182.28125 110.097656 182.523438 C 109.324219 182.582031 108.550781 182.609375 107.757812 182.609375 C 106.125 182.609375 104.390625 182.445312 102.574219 182.195312 C 105.785156 184.417969 109.886719 185.40625 113.734375 184.835938 Z M 116.578125 168.25 C 116.578125 167.976562 116.570312 167.726562 116.539062 167.464844 C 116.433594 166.710938 116.152344 165.996094 115.738281 165.40625 C 114.171875 163.230469 111.675781 162.589844 109.855469 162.425781 C 109.683594 162.417969 109.5 162.417969 109.335938 162.417969 C 108.183594 162.417969 107.160156 162.734375 106.480469 163.324219 C 105.804688 163.953125 105.339844 164.882812 104.914062 165.890625 C 104.390625 167.089844 103.917969 168.277344 103.851562 169.476562 C 103.726562 171.429688 104.761719 173.402344 106.453125 174.378906 C 107.902344 175.230469 109.875 175.472656 112.46875 175.085938 C 113.28125 174.96875 114.101562 174.804688 114.625 174.339844 C 115.148438 173.90625 115.4375 173.140625 115.707031 172.386719 C 116.164062 171.042969 116.578125 169.640625 116.578125 168.25 Z M 120.332031 174.941406 C 121.125 173.492188 121.367188 171.605469 121.007812 169.652344 C 120.707031 168.054688 120.050781 166.351562 118.878906 164.320312 C 118.191406 163.101562 116.125 159.46875 113.929688 159.496094 C 112.902344 159.757812 111.886719 160.046875 110.882812 160.328125 C 113.753906 160.734375 116.046875 162.03125 117.527344 164.097656 C 118.164062 164.988281 118.582031 166.054688 118.726562 167.164062 C 119.003906 169.265625 118.414062 171.351562 117.796875 173.132812 C 117.457031 174.109375 117.011719 175.230469 116.074219 176.035156 C 115.117188 176.867188 113.871094 177.125 112.777344 177.292969 C 111.886719 177.425781 111.046875 177.484375 110.242188 177.484375 C 108.300781 177.484375 106.683594 177.089844 105.332031 176.304688 C 102.941406 174.894531 101.441406 172.097656 101.625 169.339844 C 101.714844 167.785156 102.292969 166.351562 102.882812 165 C 103.28125 164.070312 103.746094 163.101562 104.421875 162.292969 C 104.035156 162.425781 103.65625 162.570312 103.25 162.707031 C 102.515625 163.617188 102.082031 164.84375 101.605469 166.1875 L 101.441406 166.644531 C 100.773438 168.507812 100.484375 170.453125 100.542969 172.378906 C 100.601562 173.859375 100.929688 175.859375 102.246094 177.039062 C 103.328125 178.015625 104.972656 178.363281 106.558594 178.617188 C 108.957031 178.984375 111.742188 179.351562 114.375 178.847656 C 117.050781 178.324219 119.277344 176.875 120.332031 174.941406 Z M 125.242188 214.699219 C 123.734375 212.582031 122.265625 211.054688 120.699219 210.046875 C 118.878906 208.867188 116.859375 208.316406 115.089844 208.433594 C 113.027344 211.777344 111.105469 215.183594 109.324219 218.664062 C 112.59375 218.917969 115.660156 218.625 118.550781 217.773438 C 120.929688 217.078125 123.144531 216.035156 125.242188 214.699219 Z M 124.460938 191.867188 C 123.210938 192.03125 121.957031 192.457031 120.648438 192.921875 C 120.167969 193.09375 119.664062 193.269531 119.160156 193.421875 C 115.792969 194.515625 113.007812 194.304688 111.132812 192.863281 C 110.699219 192.53125 110.40625 192.15625 110.136719 191.835938 C 109.964844 191.613281 109.855469 191.5 109.75 191.402344 C 106.703125 194.574219 103.832031 197.921875 101.164062 201.410156 C 101.179688 201.441406 101.210938 201.46875 101.230469 201.519531 C 105.863281 201.121094 110.574219 202.929688 113.820312 206.363281 C 113.929688 206.34375 114.035156 206.335938 114.140625 206.316406 C 117.292969 201.316406 120.738281 196.488281 124.460938 191.867188 Z M 126.085938 189.882812 C 126.5 189.378906 126.925781 188.878906 127.363281 188.375 C 123.078125 189.246094 118.464844 188.722656 114.335938 186.886719 C 113.230469 187.910156 112.148438 188.945312 111.105469 190.007812 C 111.308594 190.222656 111.480469 190.425781 111.636719 190.617188 C 111.859375 190.890625 112.0625 191.148438 112.304688 191.332031 C 114.015625 192.660156 116.664062 192.203125 118.582031 191.59375 C 119.054688 191.429688 119.539062 191.277344 120.011719 191.09375 C 121.945312 190.414062 123.9375 189.71875 126.085938 189.882812 Z M 128.203125 154.574219 C 127.3125 154.535156 126.421875 154.484375 125.535156 154.429688 C 121.761719 154.207031 117.933594 153.894531 114.207031 153.617188 C 109.828125 153.257812 105.367188 152.917969 100.910156 152.679688 C 100.871094 152.695312 100.851562 152.726562 100.8125 152.746094 C 93.386719 154.835938 86.132812 157.609375 79.21875 161.035156 C 78.9375 161.167969 78.675781 161.3125 78.386719 161.46875 C 77.941406 163.035156 78.261719 164.875 79.277344 166.351562 C 80.136719 167.582031 81.472656 168.558594 83.039062 169.148438 C 85.589844 167.863281 88.144531 166.644531 90.765625 165.511719 C 102.101562 158.847656 115.070312 155.066406 128.203125 154.574219 Z M 134.867188 167.445312 C 134.199219 166.421875 133.96875 165.242188 133.785156 164.1875 L 133.714844 163.769531 C 133.25 161.3125 132.382812 158.933594 131.152344 156.757812 C 131.046875 156.757812 130.960938 156.757812 130.871094 156.757812 C 129.207031 156.757812 127.554688 156.816406 125.890625 156.933594 C 122.902344 157.4375 119.925781 158.046875 116.964844 158.75 C 118.695312 160.113281 119.953125 162.308594 120.554688 163.355469 C 121.820312 165.597656 122.566406 167.476562 122.902344 169.3125 C 123.328125 171.703125 123.019531 174.03125 122.011719 175.871094 C 121.847656 176.167969 121.675781 176.46875 121.472656 176.730469 C 122.121094 176.402344 122.769531 176.054688 123.433594 175.667969 C 127.476562 173.304688 131.238281 170.347656 134.867188 167.445312 Z M 136.867188 203.878906 C 136.316406 202.773438 135.417969 201.710938 134.113281 200.6875 C 133.359375 200.085938 132.554688 199.554688 131.714844 198.984375 C 130.757812 198.34375 129.761719 197.6875 128.820312 196.933594 C 127.46875 195.792969 126.460938 194.542969 125.824219 193.238281 C 122.476562 197.417969 119.34375 201.757812 116.460938 206.246094 C 118.28125 206.402344 120.175781 207.058594 121.90625 208.179688 C 124.179688 209.652344 125.863281 211.722656 127.082031 213.441406 C 130.542969 210.890625 133.714844 207.589844 136.867188 203.878906 Z M 138.203125 202.292969 C 138.851562 201.488281 139.519531 200.65625 140.1875 199.835938 C 138.433594 196.488281 135.234375 193.953125 132.382812 191.703125 C 131.636719 191.121094 130.929688 190.367188 130.234375 189.640625 C 129.984375 189.359375 129.730469 189.109375 129.480469 188.847656 C 128.707031 189.726562 127.953125 190.636719 127.214844 191.535156 C 127.699219 193.199219 128.988281 194.542969 130.050781 195.433594 C 130.902344 196.140625 131.820312 196.75 132.777344 197.386719 C 133.609375 197.949219 134.480469 198.527344 135.292969 199.175781 C 136.558594 200.152344 137.515625 201.207031 138.203125 202.292969 Z M 143.851562 171.875 C 142.671875 171.285156 141.441406 170.761719 140.1875 170.394531 L 139.664062 170.25 C 139.015625 170.046875 138.328125 169.863281 137.679688 169.59375 C 137.660156 169.921875 137.507812 170.210938 137.1875 170.394531 C 129.566406 174.523438 122.429688 179.632812 115.910156 185.453125 C 120.011719 187.078125 124.566406 187.328125 128.617188 186.09375 C 128.839844 186.035156 129.082031 186.0625 129.296875 186.160156 C 133.832031 181.074219 138.707031 176.277344 143.851562 171.875 Z M 141.480469 198.199219 L 154.375 182.058594 C 154.355469 182.050781 154.324219 182.03125 154.316406 182.019531 C 152.351562 178.269531 149.277344 175.085938 145.648438 172.863281 C 145.628906 172.882812 145.621094 172.902344 145.601562 172.910156 C 140.351562 177.367188 135.371094 182.222656 130.765625 187.40625 C 131.066406 187.707031 131.347656 188.015625 131.636719 188.324219 C 132.304688 189.023438 132.941406 189.691406 133.582031 190.191406 C 136.257812 192.292969 139.46875 194.84375 141.480469 198.199219 Z M 155.832031 180.222656 L 159.875 175.164062 C 157.789062 170.6875 154.054688 167.03125 149.480469 165.132812 L 148.996094 164.941406 C 148.046875 164.5625 146.964844 164.128906 146.09375 163.324219 C 144.894531 162.222656 144.363281 160.667969 143.929688 159.417969 L 142.363281 154.785156 C 139.015625 154.890625 135.726562 154.863281 132.527344 154.777344 C 134.171875 157.386719 135.339844 160.328125 135.890625 163.375 L 135.980469 163.800781 C 136.144531 164.765625 136.308594 165.6875 136.78125 166.332031 C 137.476562 167.308594 138.839844 167.699219 140.273438 168.113281 L 140.804688 168.257812 C 147.160156 170.125 152.574219 174.476562 155.832031 180.222656 Z M 170.359375 142.863281 C 163.433594 142.492188 156.617188 143.859375 149.441406 145.308594 C 143.039062 146.59375 136.421875 147.949219 129.710938 147.898438 C 127.023438 147.878906 124.304688 147.851562 121.597656 147.824219 C 112.429688 147.707031 102.960938 147.589844 93.6875 148.238281 L 92.175781 148.34375 C 80 149.1875 67.417969 150.058594 56.714844 155.210938 L 55.96875 155.570312 C 53.394531 156.796875 49.429688 158.691406 46.625 160.996094 C 55.929688 154.980469 67.894531 151.363281 81.714844 150.433594 C 92.632812 149.6875 103.6875 150.550781 114.390625 151.390625 C 118.085938 151.691406 121.90625 151.992188 125.667969 152.222656 C 138.929688 153.027344 154.382812 153.152344 168.628906 148.101562 C 168.675781 148.074219 168.734375 148.09375 168.773438 148.074219 C 168.996094 146.304688 169.546875 144.535156 170.359375 142.863281 Z M 161.386719 173.25 L 172.496094 159.332031 C 170.242188 157.050781 168.851562 153.839844 168.707031 150.414062 C 160.824219 153.132812 152.632812 154.3125 144.671875 154.699219 L 146.035156 158.691406 C 146.40625 159.757812 146.820312 160.964844 147.605469 161.683594 C 148.164062 162.222656 148.976562 162.53125 149.828125 162.871094 L 150.339844 163.09375 C 155.078125 165.058594 159.007812 168.730469 161.386719 173.25 Z M 178.859375 247.496094 C 180.582031 247.554688 182.089844 247.601562 183.289062 247.097656 C 179.839844 246.226562 176.210938 246.101562 172.730469 246.789062 C 171.5 247.011719 170.253906 247.351562 169.074219 247.679688 C 167.3125 248.152344 165.484375 248.636719 163.609375 248.859375 C 162.882812 248.9375 162.140625 248.976562 161.386719 248.976562 C 158.675781 248.976562 155.71875 248.460938 152.207031 247.386719 C 144.769531 245.125 138.542969 241.664062 133.714844 237.070312 C 128.511719 232.175781 125.109375 226.015625 123.988281 219.632812 C 122.824219 220.171875 121.644531 220.667969 120.417969 221.0625 C 118.144531 229.121094 122.476562 237.679688 127.777344 242.621094 C 134.382812 248.773438 143.261719 251.664062 150.28125 253.492188 C 154.460938 254.59375 158.820312 255.40625 162.515625 253.992188 C 164.082031 253.394531 165.5625 252.378906 167.121094 251.316406 C 169.375 249.75 171.722656 248.132812 174.652344 247.648438 C 176.074219 247.386719 177.488281 247.457031 178.859375 247.496094 Z M 180.273438 228.839844 C 181.839844 228.886719 183.289062 229.234375 184.527344 229.84375 C 183.289062 228.617188 181.761719 227.609375 180.332031 226.75 C 179.894531 226.5 179.46875 226.246094 179.035156 225.996094 C 176.878906 224.738281 174.625 223.433594 172.835938 221.539062 C 169.800781 218.355469 168.230469 213.644531 168.398438 208.257812 C 168.453125 206.449219 168.6875 204.660156 169.027344 202.902344 C 168.859375 202.542969 168.707031 202.109375 168.542969 201.652344 C 167.863281 199.640625 167.324219 196.710938 167.457031 193.460938 C 167.59375 190.203125 168.367188 187.328125 169.210938 185.394531 C 170.050781 183.441406 170.890625 182.417969 171.203125 182.550781 C 171.859375 182.84375 170.15625 187.550781 169.945312 193.566406 C 169.855469 195.433594 169.933594 197.183594 170.039062 198.703125 C 170.410156 197.367188 170.804688 196.042969 171.203125 194.71875 L 175.6875 179.855469 C 175.707031 179.777344 175.757812 179.71875 175.796875 179.660156 C 175.011719 176.875 174.539062 173.992188 174.09375 171.035156 C 173.726562 168.539062 173.445312 165.832031 174.015625 163.355469 L 166.472656 172.824219 C 166.09375 173.800781 164.914062 175.484375 163.9375 177.621094 C 162.554688 180.511719 162.050781 183.160156 161.347656 183.171875 C 161.019531 183.160156 160.6875 182.425781 160.648438 181.199219 C 160.628906 180.859375 160.660156 180.464844 160.6875 180.066406 L 143.570312 201.519531 C 138.800781 207.503906 134.21875 212.910156 128.839844 216.742188 C 130.515625 223.074219 135.148438 228.675781 141.085938 231.441406 C 143.472656 232.554688 146.183594 233.296875 149.140625 233.65625 C 151.714844 233.972656 154.324219 233.972656 156.898438 233.683594 C 159.953125 233.335938 163 232.554688 165.929688 231.789062 L 173.011719 229.960938 C 175.339844 229.371094 177.75 228.734375 180.273438 228.839844 Z M 184.710938 131.421875 C 185.300781 130.703125 185.246094 128.460938 185.226562 127.359375 L 185.214844 126.875 C 185.214844 125.925781 185.109375 125.007812 184.964844 124.089844 C 184.875 124.148438 184.789062 124.234375 184.710938 124.292969 C 183.996094 124.785156 183.347656 124.980469 182.855469 125.039062 C 181.839844 125.125 181.480469 124.785156 181.480469 124.503906 C 181.460938 124.175781 181.761719 123.945312 182.351562 123.539062 C 182.84375 123.171875 183.714844 122.589844 184.285156 121.449219 C 184.210938 121.238281 184.132812 120.996094 184.046875 120.773438 C 183.824219 120.191406 183.570312 119.632812 183.289062 119.089844 C 182.769531 120.414062 182.128906 121.304688 181.644531 121.863281 C 180.84375 122.726562 180.332031 122.84375 180.109375 122.667969 C 179.855469 122.464844 179.945312 121.992188 180.3125 121.023438 C 180.648438 120.105469 181.316406 118.730469 181.675781 116.527344 C 181.289062 115.996094 180.871094 115.472656 180.417969 114.980469 C 180.195312 116.46875 179.839844 117.542969 179.507812 118.265625 C 178.976562 119.464844 178.523438 119.816406 178.242188 119.707031 C 177.941406 119.601562 177.863281 119.070312 178 117.871094 C 178.078125 116.835938 178.339844 115.289062 178.367188 113.046875 C 177.855469 112.601562 177.292969 112.195312 176.734375 111.816406 C 176.742188 112.386719 176.734375 112.917969 176.683594 113.394531 C 176.570312 114.535156 176.355469 115.394531 176.164062 116.035156 C 175.757812 117.289062 175.378906 117.726562 175.089844 117.667969 C 174.769531 117.621094 174.617188 117.066406 174.597656 115.800781 C 174.617188 115.164062 174.625 114.339844 174.625 113.296875 C 174.625 112.464844 174.566406 111.476562 174.324219 110.40625 C 173.929688 110.210938 173.53125 110.039062 173.117188 109.871094 C 173.289062 111.035156 173.320312 111.953125 173.28125 112.582031 C 173.175781 113.625 172.902344 114.023438 172.59375 114.03125 C 172.285156 114.050781 172.003906 113.683594 171.703125 112.746094 C 171.441406 111.960938 171.171875 110.742188 170.71875 109.058594 C 170.097656 108.886719 169.460938 108.730469 168.804688 108.617188 C 169.042969 110.171875 169.042969 111.3125 168.957031 112.078125 C 168.839844 113.132812 168.550781 113.527344 168.242188 113.546875 C 167.933594 113.546875 167.652344 113.179688 167.382812 112.195312 C 167.148438 111.371094 166.90625 110.085938 166.511719 108.285156 C 165.039062 108.152344 163.550781 108.191406 162.070312 108.335938 C 162.382812 109.175781 162.855469 109.863281 163.308594 110.367188 C 163.96875 111.042969 164.632812 111.457031 165.148438 111.757812 C 166.222656 112.328125 166.714844 112.542969 166.703125 112.878906 C 166.695312 113.152344 166.125 113.527344 164.617188 113.238281 C 164.007812 113.101562 163.222656 112.804688 162.390625 112.214844 C 162.71875 112.996094 163.105469 113.75 163.53125 114.476562 C 165.398438 115.289062 166.589844 115.445312 167.449219 115.355469 C 168.453125 115.277344 168.929688 115.113281 169.132812 115.367188 C 169.324219 115.539062 169.191406 116.273438 167.84375 116.875 C 167.292969 117.117188 166.53125 117.261719 165.613281 117.222656 C 165.804688 117.425781 165.988281 117.628906 166.203125 117.824219 C 166.203125 117.84375 166.222656 117.84375 166.222656 117.851562 C 168.859375 118.140625 170.273438 117.976562 171.203125 117.726562 C 172.140625 117.484375 172.566406 117.320312 172.808594 117.5625 C 173.011719 117.734375 172.972656 118.355469 171.898438 119.148438 C 171.367188 119.515625 170.582031 119.871094 169.546875 120.046875 C 169.382812 120.074219 169.179688 120.054688 168.996094 120.074219 C 169.578125 120.492188 170.167969 120.886719 170.777344 121.304688 C 170.863281 121.363281 170.960938 121.421875 171.046875 121.476562 C 172.640625 121.199219 173.726562 120.742188 174.449219 120.519531 C 175.273438 120.222656 175.707031 120.191406 175.910156 120.445312 C 176.09375 120.664062 176.019531 121.140625 175.273438 121.855469 C 174.875 122.222656 174.238281 122.695312 173.339844 123.09375 C 173.726562 123.382812 174.113281 123.691406 174.488281 124.003906 C 176.105469 123.789062 176.886719 123.5 177.457031 123.199219 C 178.058594 122.910156 178.386719 122.714844 178.6875 122.832031 C 178.949219 122.9375 179.140625 123.453125 178.523438 124.359375 C 178.214844 124.785156 177.679688 125.257812 176.886719 125.617188 C 176.742188 125.683594 176.570312 125.714844 176.40625 125.773438 C 176.578125 125.957031 176.761719 126.148438 176.9375 126.324219 C 178.242188 126.121094 179.082031 125.761719 179.664062 125.617188 C 180.28125 125.453125 180.640625 125.492188 180.84375 125.734375 C 181.039062 125.964844 181.027344 126.371094 180.515625 126.953125 C 180.167969 127.328125 179.527344 127.824219 178.523438 128.191406 C 178.695312 128.433594 178.890625 128.65625 179.074219 128.886719 C 180.195312 128.933594 180.980469 128.722656 181.511719 128.683594 C 182.089844 128.605469 182.449219 128.664062 182.625 128.933594 C 182.796875 129.167969 182.769531 129.574219 182.226562 130.085938 C 181.898438 130.367188 181.347656 130.695312 180.582031 130.898438 C 180.59375 130.917969 180.59375 130.917969 180.613281 130.925781 C 181.257812 131.894531 181.289062 131.941406 182.148438 131.902344 L 182.679688 131.875 C 183.40625 131.847656 184.414062 131.789062 184.710938 131.421875 Z M 186.132812 240.164062 C 186.132812 240.125 186.132812 240.097656 186.132812 240.066406 C 181.539062 238.558594 176.40625 239.3125 172.84375 240.066406 C 171.519531 240.347656 170.195312 240.65625 168.859375 240.984375 C 165.332031 241.835938 161.675781 242.71875 157.921875 242.832031 C 157.613281 242.851562 157.3125 242.863281 157.003906 242.863281 C 150.167969 242.863281 143.144531 240.328125 137.121094 235.695312 C 133.800781 233.132812 130.792969 229.960938 128.117188 226.238281 C 129.742188 229.652344 132.070312 232.882812 135.03125 235.675781 C 139.652344 240.046875 145.621094 243.382812 152.769531 245.5625 C 156.996094 246.847656 160.371094 247.273438 163.40625 246.953125 C 165.136719 246.742188 166.792969 246.296875 168.570312 245.820312 C 169.800781 245.484375 171.074219 245.144531 172.363281 244.894531 C 176.550781 244.089844 180.902344 244.332031 184.992188 245.589844 C 185.796875 244.195312 186.027344 242.195312 186.132812 240.164062 Z M 186.277344 236.625 C 186.230469 235.578125 186.191406 234.515625 186.164062 233.441406 C 186.019531 233.382812 185.882812 233.308594 185.777344 233.179688 C 184.605469 231.730469 182.574219 230.839844 180.207031 230.753906 C 177.972656 230.675781 175.6875 231.265625 173.503906 231.828125 L 166.425781 233.65625 C 163.417969 234.4375 160.3125 235.242188 157.121094 235.609375 C 155.804688 235.753906 154.46875 235.832031 153.15625 235.832031 C 151.734375 235.832031 150.3125 235.746094 148.910156 235.5625 C 145.757812 235.171875 142.84375 234.378906 140.28125 233.191406 C 134.035156 230.289062 129.121094 224.46875 127.167969 217.863281 C 126.714844 218.152344 126.238281 218.433594 125.757812 218.695312 C 125.777344 218.714844 125.777344 218.722656 125.777344 218.722656 C 129.199219 225.191406 133.386719 230.394531 138.289062 234.167969 C 144.226562 238.742188 151.183594 241.140625 157.863281 240.917969 C 161.40625 240.800781 164.972656 239.941406 168.425781 239.121094 C 169.769531 238.789062 171.105469 238.460938 172.449219 238.179688 C 176.105469 237.417969 181.335938 236.625 186.222656 238.066406 C 186.230469 237.589844 186.25 237.097656 186.277344 236.625 Z M 186.25 210.191406 C 186.25 210 186.269531 209.796875 186.277344 209.601562 C 186.203125 208.007812 186.144531 206.402344 186.054688 204.804688 C 185.796875 203.945312 185.515625 203.074219 185.128906 202.203125 C 184.046875 199.730469 182.421875 197.84375 181.027344 196.777344 C 179.644531 195.6875 178.523438 195.28125 178.582031 194.914062 C 178.609375 194.601562 179.984375 194.371094 181.945312 195.269531 C 183.15625 195.800781 184.488281 196.835938 185.632812 198.25 C 185.523438 196.796875 185.417969 195.347656 185.28125 193.898438 C 185.273438 193.644531 185.300781 193.402344 185.378906 193.179688 C 182.148438 191.390625 179.363281 188.308594 177.527344 184.390625 C 177.273438 183.847656 177.042969 183.308594 176.820312 182.753906 L 173.039062 195.28125 C 171.773438 199.507812 170.445312 203.878906 170.320312 208.316406 C 170.226562 211.132812 170.632812 216.429688 174.230469 220.222656 C 175.824219 221.90625 177.855469 223.09375 180.003906 224.34375 C 180.445312 224.59375 180.871094 224.84375 181.316406 225.105469 C 182.566406 225.851562 183.871094 226.691406 185.050781 227.71875 C 184.433594 226.082031 183.378906 224.148438 181.839844 222.234375 C 180.058594 220.078125 178.105469 218.308594 176.734375 216.945312 C 175.351562 215.589844 174.558594 214.621094 174.761719 214.34375 C 174.964844 214.082031 176.125 214.527344 177.828125 215.558594 C 179.5 216.59375 181.78125 218.21875 183.773438 220.667969 C 184.742188 221.835938 185.476562 223.09375 186.019531 224.3125 C 186.019531 224.101562 186.019531 223.898438 186.019531 223.703125 C 185.582031 222.058594 184.945312 220.164062 183.898438 218.238281 C 181.183594 212.976562 176.917969 210.320312 177.273438 209.679688 C 177.421875 209.398438 178.746094 209.679688 180.5625 210.851562 C 182.101562 211.828125 183.929688 213.558594 185.390625 215.851562 C 185.003906 213.945312 184.355469 211.554688 183.066406 209.15625 C 180.195312 203.683594 175.574219 200.964844 175.929688 200.347656 C 176.074219 200.066406 177.457031 200.335938 179.363281 201.535156 C 181.277344 202.707031 183.628906 204.894531 185.273438 207.988281 C 185.660156 208.714844 185.988281 209.457031 186.25 210.191406 Z M 188.136719 132.484375 C 188.308594 132.40625 188.503906 132.367188 188.695312 132.367188 C 188.378906 131.652344 188.203125 130.839844 188.136719 130.007812 C 188.058594 130.839844 187.882812 131.652344 187.554688 132.367188 C 187.757812 132.367188 187.953125 132.40625 188.136719 132.484375 Z M 199.546875 158.015625 C 202.496094 156.285156 204.238281 152.417969 203.832031 148.625 C 203.425781 145.085938 201.328125 141.574219 198.039062 138.984375 C 194.894531 136.496094 192.863281 136.070312 188.734375 136.070312 C 188.511719 136.070312 188.320312 136.003906 188.136719 135.9375 C 187.941406 136.003906 187.730469 136.070312 187.527344 136.070312 C 183.398438 136.070312 181.367188 136.496094 178.222656 138.984375 C 174.933594 141.574219 172.816406 145.085938 172.429688 148.625 C 172.023438 152.417969 173.765625 156.285156 176.703125 158.015625 C 176.878906 158.113281 177.015625 158.269531 177.148438 158.402344 C 178.417969 157.40625 180.042969 156.699219 181.878906 156.351562 C 183.996094 155.957031 186.085938 156.0625 188.136719 156.160156 C 190.15625 156.0625 192.265625 155.957031 194.382812 156.351562 C 196.222656 156.699219 197.828125 157.40625 199.121094 158.402344 C 199.25 158.269531 199.382812 158.113281 199.546875 158.015625 Z M 202.035156 220.222656 C 205.632812 216.429688 206.039062 211.132812 205.949219 208.316406 C 205.816406 203.878906 204.488281 199.507812 203.222656 195.28125 L 199.433594 182.753906 C 199.21875 183.308594 198.988281 183.847656 198.734375 184.390625 C 196.898438 188.308594 194.113281 191.390625 190.882812 193.179688 C 190.960938 193.402344 190.988281 193.644531 190.960938 193.898438 C 190.84375 195.347656 190.738281 196.796875 190.621094 198.25 C 191.773438 196.835938 193.105469 195.800781 194.324219 195.269531 C 196.277344 194.371094 197.644531 194.601562 197.660156 194.914062 C 197.738281 195.28125 196.617188 195.6875 195.226562 196.777344 C 193.832031 197.84375 192.21875 199.730469 191.132812 202.203125 C 190.746094 203.074219 190.457031 203.945312 190.207031 204.804688 C 190.117188 206.402344 190.042969 208.007812 189.984375 209.601562 C 189.984375 209.796875 190.003906 210 190.011719 210.191406 C 190.273438 209.457031 190.601562 208.714844 190.988281 207.988281 C 192.625 204.894531 194.984375 202.707031 196.878906 201.535156 C 198.792969 200.335938 200.1875 200.066406 200.332031 200.347656 C 200.6875 200.964844 196.066406 203.683594 193.195312 209.15625 C 191.90625 211.554688 191.257812 213.945312 190.851562 215.851562 C 192.332031 213.558594 194.160156 211.828125 195.699219 210.851562 C 197.507812 209.679688 198.84375 209.398438 198.96875 209.679688 C 199.34375 210.320312 195.058594 212.976562 192.351562 218.238281 C 191.296875 220.164062 190.679688 222.058594 190.246094 223.703125 C 190.246094 223.898438 190.246094 224.101562 190.246094 224.3125 C 190.785156 223.09375 191.519531 221.835938 192.488281 220.667969 C 194.480469 218.21875 196.761719 216.59375 198.4375 215.558594 C 200.128906 214.527344 201.277344 214.082031 201.492188 214.34375 C 201.695312 214.621094 200.910156 215.589844 199.519531 216.945312 C 198.15625 218.308594 196.203125 220.078125 194.421875 222.234375 C 192.863281 224.148438 191.832031 226.082031 191.210938 227.71875 C 192.390625 226.691406 193.695312 225.851562 194.945312 225.105469 C 195.371094 224.84375 195.816406 224.59375 196.25 224.34375 C 198.398438 223.09375 200.417969 221.90625 202.035156 220.222656 Z M 212.730469 114.476562 C 213.15625 113.75 213.542969 112.996094 213.871094 112.214844 C 213.039062 112.804688 212.257812 113.101562 211.628906 113.238281 C 210.136719 113.527344 209.558594 113.152344 209.558594 112.878906 C 209.527344 112.542969 210.050781 112.328125 211.09375 111.757812 C 211.628906 111.457031 212.285156 111.042969 212.933594 110.367188 C 213.40625 109.863281 213.878906 109.175781 214.191406 108.335938 C 212.699219 108.191406 211.222656 108.152344 209.75 108.285156 C 209.335938 110.085938 209.113281 111.371094 208.878906 112.195312 C 208.601562 113.179688 208.328125 113.546875 208.019531 113.546875 C 207.710938 113.527344 207.421875 113.132812 207.292969 112.078125 C 207.21875 111.3125 207.207031 110.171875 207.441406 108.617188 C 206.800781 108.730469 206.164062 108.886719 205.542969 109.058594 C 205.070312 110.742188 204.800781 111.960938 204.558594 112.746094 C 204.257812 113.683594 203.957031 114.050781 203.648438 114.03125 C 203.359375 114.023438 203.085938 113.625 202.980469 112.582031 C 202.941406 111.953125 202.972656 111.035156 203.144531 109.871094 C 202.730469 110.039062 202.332031 110.210938 201.9375 110.40625 C 201.675781 111.476562 201.636719 112.464844 201.617188 113.296875 C 201.636719 114.339844 201.648438 115.164062 201.648438 115.800781 C 201.648438 117.066406 201.472656 117.621094 201.171875 117.667969 C 200.863281 117.726562 200.496094 117.289062 200.097656 116.035156 C 199.90625 115.394531 199.691406 114.535156 199.578125 113.394531 C 199.527344 112.917969 199.519531 112.386719 199.527344 111.816406 C 198.957031 112.195312 198.40625 112.601562 197.875 113.046875 C 197.921875 115.289062 198.175781 116.835938 198.261719 117.871094 C 198.378906 119.070312 198.300781 119.601562 198.011719 119.707031 C 197.730469 119.816406 197.285156 119.464844 196.734375 118.265625 C 196.425781 117.542969 196.058594 116.46875 195.835938 114.980469 C 195.390625 115.472656 194.972656 115.996094 194.566406 116.527344 C 194.945312 118.730469 195.613281 120.105469 195.929688 121.023438 C 196.316406 121.992188 196.394531 122.464844 196.152344 122.667969 C 195.921875 122.84375 195.398438 122.726562 194.605469 121.863281 C 194.132812 121.304688 193.472656 120.414062 192.972656 119.089844 C 192.691406 119.632812 192.421875 120.191406 192.207031 120.773438 C 192.109375 120.996094 192.054688 121.238281 191.984375 121.449219 C 192.546875 122.589844 193.40625 123.171875 193.890625 123.539062 C 194.480469 123.945312 194.800781 124.175781 194.78125 124.503906 C 194.78125 124.785156 194.414062 125.125 193.40625 125.039062 C 192.914062 124.980469 192.246094 124.785156 191.550781 124.292969 C 191.460938 124.234375 191.386719 124.148438 191.296875 124.089844 C 191.132812 125.007812 191.046875 125.925781 191.039062 126.875 L 191.039062 127.359375 C 191 128.460938 190.960938 130.703125 191.539062 131.421875 C 191.832031 131.789062 192.835938 131.847656 193.582031 131.875 L 194.113281 131.902344 C 194.972656 131.941406 194.984375 131.894531 195.652344 130.925781 C 195.652344 130.917969 195.667969 130.917969 195.667969 130.898438 C 194.914062 130.695312 194.363281 130.367188 194.046875 130.085938 C 193.472656 129.574219 193.464844 129.167969 193.640625 128.933594 C 193.8125 128.664062 194.160156 128.605469 194.75 128.683594 C 195.28125 128.722656 196.066406 128.933594 197.199219 128.886719 C 197.371094 128.65625 197.546875 128.433594 197.738281 128.191406 C 196.734375 127.824219 196.09375 127.328125 195.746094 126.953125 C 195.226562 126.371094 195.226562 125.964844 195.417969 125.734375 C 195.621094 125.492188 195.980469 125.453125 196.589844 125.617188 C 197.179688 125.761719 198.019531 126.121094 199.324219 126.324219 C 199.488281 126.148438 199.664062 125.957031 199.847656 125.773438 C 199.691406 125.714844 199.519531 125.683594 199.375 125.617188 C 198.582031 125.257812 198.050781 124.785156 197.738281 124.359375 C 197.121094 123.453125 197.3125 122.9375 197.574219 122.832031 C 197.875 122.714844 198.203125 122.910156 198.8125 123.199219 C 199.375 123.5 200.136719 123.789062 201.773438 124.003906 C 202.140625 123.691406 202.535156 123.382812 202.921875 123.09375 C 202.023438 122.695312 201.386719 122.222656 200.96875 121.855469 C 200.246094 121.140625 200.167969 120.664062 200.351562 120.445312 C 200.554688 120.191406 200.988281 120.222656 201.8125 120.519531 C 202.535156 120.742188 203.609375 121.199219 205.207031 121.476562 C 205.3125 121.421875 205.398438 121.363281 205.484375 121.304688 C 206.09375 120.886719 206.683594 120.492188 207.265625 120.074219 C 207.082031 120.054688 206.878906 120.074219 206.714844 120.046875 C 205.660156 119.871094 204.875 119.515625 204.363281 119.148438 C 203.289062 118.355469 203.253906 117.734375 203.457031 117.5625 C 203.695312 117.320312 204.121094 117.484375 205.042969 117.726562 C 205.980469 117.976562 207.390625 118.140625 210.03125 117.851562 C 210.050781 117.84375 210.0625 117.84375 210.0625 117.824219 C 210.273438 117.628906 210.449219 117.425781 210.640625 117.222656 C 209.722656 117.261719 208.96875 117.117188 208.40625 116.875 C 207.054688 116.273438 206.9375 115.539062 207.109375 115.367188 C 207.332031 115.113281 207.796875 115.277344 208.8125 115.355469 C 209.671875 115.445312 210.863281 115.289062 212.730469 114.476562 Z M 230.214844 158.691406 L 231.589844 154.699219 C 223.628906 154.3125 215.4375 153.132812 207.554688 150.414062 C 207.410156 153.839844 206.019531 157.050781 203.753906 159.332031 L 214.859375 173.25 C 217.246094 168.730469 221.164062 165.058594 225.921875 163.09375 L 226.433594 162.871094 C 227.285156 162.53125 228.089844 162.222656 228.660156 161.683594 C 229.441406 160.964844 229.859375 159.757812 230.214844 158.691406 Z M 243.734375 154.777344 C 240.523438 154.863281 237.238281 154.890625 233.898438 154.785156 L 232.3125 159.417969 C 231.890625 160.667969 231.355469 162.222656 230.15625 163.324219 C 229.296875 164.128906 228.214844 164.5625 227.265625 164.941406 L 226.761719 165.132812 C 222.207031 167.03125 218.457031 170.6875 216.386719 175.164062 L 220.429688 180.222656 C 223.6875 174.476562 229.101562 170.125 235.457031 168.257812 L 235.980469 168.113281 C 237.429688 167.699219 238.773438 167.308594 239.480469 166.332031 C 239.953125 165.6875 240.117188 164.765625 240.285156 163.800781 L 240.359375 163.375 C 240.921875 160.328125 242.09375 157.386719 243.734375 154.777344 Z M 241.230469 235.675781 C 244.191406 232.882812 246.519531 229.652344 248.144531 226.238281 C 245.46875 229.960938 242.460938 233.132812 239.140625 235.695312 C 233.117188 240.328125 226.085938 242.863281 219.257812 242.863281 C 218.949219 242.863281 218.640625 242.851562 218.339844 242.832031 C 214.597656 242.71875 210.929688 241.835938 207.382812 240.984375 C 206.066406 240.65625 204.730469 240.347656 203.417969 240.066406 C 199.847656 239.3125 194.722656 238.558594 190.128906 240.066406 C 190.128906 240.097656 190.128906 240.125 190.128906 240.164062 C 190.234375 242.195312 190.457031 244.195312 191.269531 245.589844 C 195.339844 244.332031 199.710938 244.089844 203.898438 244.894531 C 205.1875 245.144531 206.464844 245.484375 207.691406 245.820312 C 209.453125 246.296875 211.125 246.742188 212.855469 246.953125 C 215.882812 247.292969 219.257812 246.847656 223.492188 245.5625 C 230.640625 243.382812 236.609375 240.046875 241.230469 235.675781 Z M 235.15625 231.441406 C 241.113281 228.675781 245.746094 223.074219 247.421875 216.742188 C 242.042969 212.910156 237.460938 207.503906 232.671875 201.519531 L 215.554688 180.066406 C 215.601562 180.484375 215.632812 180.859375 215.613281 181.199219 C 215.574219 182.425781 215.246094 183.160156 214.90625 183.171875 C 214.191406 183.160156 213.6875 180.511719 212.3125 177.621094 C 211.347656 175.484375 210.167969 173.800781 209.800781 172.824219 L 202.226562 163.355469 C 202.808594 165.832031 202.535156 168.539062 202.167969 171.035156 C 201.722656 173.992188 201.25 176.875 200.464844 179.660156 C 200.496094 179.71875 200.542969 179.777344 200.574219 179.855469 L 205.0625 194.71875 C 205.457031 196.042969 205.855469 197.367188 206.222656 198.703125 C 206.328125 197.183594 206.40625 195.433594 206.296875 193.566406 C 206.105469 187.550781 204.394531 182.84375 205.0625 182.550781 C 205.351562 182.417969 206.191406 183.441406 207.042969 185.394531 C 207.894531 187.328125 208.667969 190.203125 208.804688 193.460938 C 208.9375 196.710938 208.40625 199.640625 207.71875 201.652344 C 207.554688 202.109375 207.390625 202.542969 207.238281 202.902344 C 207.574219 204.660156 207.808594 206.449219 207.867188 208.257812 C 208.03125 213.644531 206.453125 218.355469 203.425781 221.539062 C 201.636719 223.433594 199.382812 224.738281 197.226562 225.996094 C 196.78125 226.246094 196.347656 226.5 195.929688 226.75 C 194.5 227.609375 192.972656 228.617188 191.714844 229.84375 C 192.972656 229.234375 194.421875 228.886719 195.980469 228.839844 C 198.492188 228.734375 200.910156 229.371094 203.234375 229.960938 L 210.3125 231.789062 C 213.261719 232.554688 216.308594 233.335938 219.363281 233.683594 C 221.9375 233.972656 224.546875 233.972656 227.121094 233.65625 C 230.070312 233.296875 232.777344 232.554688 235.15625 231.441406 Z M 244.625 188.324219 C 244.90625 188.015625 245.195312 187.707031 245.496094 187.40625 C 240.875 182.222656 235.910156 177.367188 230.660156 172.910156 C 230.640625 172.902344 230.632812 172.882812 230.613281 172.863281 C 226.984375 175.085938 223.910156 178.269531 221.957031 182.019531 C 221.9375 182.03125 221.90625 182.050781 221.898438 182.058594 L 234.78125 198.199219 C 236.792969 194.84375 240.003906 192.292969 242.683594 190.191406 C 243.320312 189.691406 243.957031 189.023438 244.625 188.324219 Z M 249.046875 191.535156 C 248.292969 190.636719 247.535156 189.726562 246.78125 188.847656 C 246.53125 189.109375 246.28125 189.359375 246.019531 189.640625 C 245.332031 190.367188 244.625 191.121094 243.871094 191.703125 C 241.007812 193.953125 237.828125 196.488281 236.066406 199.835938 C 236.734375 200.65625 237.402344 201.488281 238.058594 202.292969 C 238.746094 201.207031 239.703125 200.152344 240.949219 199.175781 C 241.78125 198.527344 242.644531 197.949219 243.484375 197.386719 C 244.441406 196.75 245.351562 196.140625 246.191406 195.433594 C 247.277344 194.542969 248.5625 193.199219 249.046875 191.535156 Z M 250.488281 218.722656 C 250.488281 218.722656 250.488281 218.714844 250.488281 218.695312 C 250.011719 218.433594 249.546875 218.152344 249.09375 217.863281 C 247.140625 224.46875 242.226562 230.289062 235.980469 233.191406 C 233.417969 234.378906 230.503906 235.171875 227.351562 235.5625 C 225.941406 235.746094 224.527344 235.832031 223.105469 235.832031 C 221.773438 235.832031 220.457031 235.753906 219.140625 235.609375 C 215.949219 235.242188 212.847656 234.4375 209.839844 233.65625 L 202.757812 231.828125 C 200.574219 231.265625 198.269531 230.675781 196.058594 230.753906 C 193.6875 230.839844 191.65625 231.730469 190.484375 233.179688 C 190.378906 233.308594 190.234375 233.382812 190.097656 233.441406 C 190.070312 234.515625 190.03125 235.578125 189.984375 236.625 C 190.003906 237.097656 190.03125 237.589844 190.042969 238.066406 C 194.925781 236.625 200.15625 237.417969 203.8125 238.179688 C 205.15625 238.460938 206.492188 238.789062 207.835938 239.121094 C 211.289062 239.941406 214.859375 240.800781 218.398438 240.917969 C 225.082031 241.140625 232.023438 238.742188 237.972656 234.167969 C 242.875 230.394531 247.0625 225.191406 250.488281 218.722656 Z M 247.644531 186.09375 C 251.6875 187.328125 256.25 187.078125 260.351562 185.453125 C 253.832031 179.632812 246.6875 174.523438 239.054688 170.394531 C 238.753906 170.210938 238.601562 169.921875 238.582031 169.59375 C 237.914062 169.863281 237.238281 170.046875 236.597656 170.25 L 236.078125 170.394531 C 234.808594 170.761719 233.589844 171.285156 232.390625 171.875 C 237.554688 176.277344 242.429688 181.074219 246.964844 186.160156 C 247.167969 186.0625 247.410156 186.015625 247.644531 186.09375 Z M 254.355469 208.179688 C 256.085938 207.058594 257.980469 206.402344 259.789062 206.246094 C 256.910156 201.757812 253.773438 197.417969 250.429688 193.238281 C 249.808594 194.542969 248.804688 195.792969 247.421875 196.933594 C 246.503906 197.6875 245.515625 198.34375 244.546875 198.984375 C 243.707031 199.554688 242.902344 200.085938 242.148438 200.6875 C 240.84375 201.710938 239.945312 202.773438 239.382812 203.878906 C 242.535156 207.589844 245.707031 210.890625 249.179688 213.441406 C 250.378906 211.722656 252.074219 209.652344 254.355469 208.179688 Z M 255.699219 163.355469 C 256.308594 162.308594 257.566406 160.113281 259.296875 158.75 C 256.335938 158.046875 253.359375 157.4375 250.371094 156.933594 C 248.707031 156.816406 247.054688 156.757812 245.390625 156.757812 C 245.304688 156.757812 245.195312 156.757812 245.109375 156.757812 C 243.882812 158.933594 242.992188 161.3125 242.546875 163.769531 L 242.480469 164.1875 C 242.285156 165.242188 242.0625 166.421875 241.394531 167.445312 C 245.023438 170.347656 248.765625 173.304688 252.828125 175.667969 C 253.476562 176.054688 254.132812 176.402344 254.78125 176.730469 C 254.585938 176.46875 254.394531 176.167969 254.230469 175.871094 C 253.222656 174.03125 252.914062 171.703125 253.359375 169.3125 C 253.6875 167.496094 254.441406 165.597656 255.699219 163.355469 Z M 248.476562 242.621094 C 253.792969 237.679688 258.097656 229.121094 255.84375 221.0625 C 254.617188 220.667969 253.417969 220.171875 252.277344 219.632812 C 251.132812 226.015625 247.75 232.175781 242.546875 237.070312 C 237.710938 241.664062 231.492188 245.125 224.054688 247.386719 C 220.542969 248.460938 217.566406 248.976562 214.875 248.976562 C 214.101562 248.976562 213.367188 248.9375 212.644531 248.859375 C 210.777344 248.636719 208.949219 248.152344 207.1875 247.679688 C 205.988281 247.351562 204.761719 247.011719 203.53125 246.789062 C 200.03125 246.121094 196.425781 246.226562 192.972656 247.097656 C 194.171875 247.601562 195.679688 247.554688 197.402344 247.496094 C 198.765625 247.457031 200.1875 247.386719 201.609375 247.648438 C 204.539062 248.132812 206.878906 249.75 209.140625 251.316406 C 210.699219 252.378906 212.167969 253.394531 213.746094 253.992188 C 217.421875 255.40625 221.800781 254.59375 225.980469 253.492188 C 232.980469 251.664062 241.890625 248.773438 248.476562 242.621094 Z M 264.617188 190.617188 C 264.78125 190.425781 264.953125 190.222656 265.15625 190.007812 C 264.09375 188.945312 263.03125 187.910156 261.917969 186.886719 C 257.796875 188.722656 253.183594 189.246094 248.902344 188.382812 C 249.335938 188.878906 249.761719 189.378906 250.175781 189.882812 C 252.324219 189.726562 254.308594 190.414062 256.25 191.09375 C 256.722656 191.277344 257.207031 191.429688 257.683594 191.59375 C 259.597656 192.203125 262.226562 192.660156 263.949219 191.332031 C 264.199219 191.148438 264.402344 190.890625 264.617188 190.617188 Z M 257.710938 217.773438 C 260.582031 218.625 263.667969 218.917969 266.9375 218.664062 C 265.15625 215.183594 263.234375 211.777344 261.164062 208.433594 C 259.402344 208.296875 257.382812 208.867188 255.554688 210.046875 C 253.976562 211.054688 252.527344 212.582031 251.019531 214.699219 C 253.109375 216.035156 255.332031 217.078125 257.710938 217.773438 Z M 273.6875 182.195312 C 271.871094 182.445312 270.121094 182.609375 268.503906 182.609375 C 267.710938 182.609375 266.925781 182.582031 266.171875 182.523438 C 263.3125 182.28125 260.351562 181.546875 257.324219 180.347656 C 259.105469 181.777344 260.824219 183.289062 262.507812 184.835938 C 266.355469 185.40625 270.476562 184.417969 273.6875 182.195312 Z M 269.808594 174.378906 C 271.484375 173.402344 272.535156 171.429688 272.421875 169.476562 C 272.34375 168.277344 271.871094 167.089844 271.335938 165.890625 C 270.902344 164.882812 270.46875 163.953125 269.761719 163.324219 C 268.976562 162.648438 267.769531 162.308594 266.40625 162.425781 C 264.585938 162.589844 262.09375 163.230469 260.523438 165.40625 C 260.109375 165.996094 259.828125 166.710938 259.722656 167.464844 C 259.511719 169.101562 259.992188 170.792969 260.554688 172.386719 C 260.824219 173.140625 261.117188 173.90625 261.617188 174.339844 C 262.160156 174.804688 262.980469 174.96875 263.804688 175.085938 C 266.386719 175.472656 268.359375 175.230469 269.808594 174.378906 Z M 275.042969 201.519531 C 275.050781 201.46875 275.070312 201.441406 275.082031 201.410156 C 272.421875 197.921875 269.546875 194.574219 266.492188 191.402344 C 266.40625 191.5 266.289062 191.613281 266.125 191.835938 C 265.855469 192.15625 265.542969 192.53125 265.128906 192.863281 C 263.234375 194.304688 260.46875 194.515625 257.09375 193.421875 C 256.597656 193.269531 256.097656 193.09375 255.59375 192.921875 C 254.289062 192.457031 253.03125 192.03125 251.792969 191.867188 C 255.523438 196.488281 258.96875 201.316406 262.128906 206.316406 C 262.226562 206.335938 262.332031 206.34375 262.441406 206.363281 C 265.699219 202.929688 270.398438 201.121094 275.042969 201.519531 Z M 275.699219 172.378906 C 275.777344 170.453125 275.46875 168.507812 274.820312 166.644531 L 274.65625 166.1875 C 274.179688 164.84375 273.746094 163.617188 273.011719 162.707031 C 272.605469 162.570312 272.226562 162.425781 271.820312 162.292969 C 272.507812 163.101562 272.980469 164.070312 273.378906 165 C 273.957031 166.351562 274.539062 167.785156 274.636719 169.339844 C 274.800781 172.097656 273.320312 174.894531 270.941406 176.304688 C 269.578125 177.089844 267.960938 177.484375 266.007812 177.484375 C 265.226562 177.484375 264.375 177.425781 263.476562 177.292969 C 262.390625 177.125 261.132812 176.867188 260.167969 176.035156 C 259.25 175.230469 258.804688 174.109375 258.464844 173.132812 C 257.953125 171.664062 257.460938 169.960938 257.460938 168.230469 C 257.460938 167.871094 257.480469 167.523438 257.515625 167.164062 C 257.671875 166.054688 258.089844 164.988281 258.71875 164.117188 C 260.214844 162.039062 262.507812 160.734375 265.378906 160.328125 C 264.363281 160.046875 263.320312 159.746094 262.304688 159.476562 C 260.128906 159.476562 258.070312 163.101562 257.371094 164.320312 C 256.222656 166.351562 255.535156 168.054688 255.253906 169.652344 C 254.898438 171.605469 255.136719 173.492188 255.921875 174.941406 C 256.984375 176.875 259.210938 178.324219 261.871094 178.847656 C 264.511719 179.351562 267.296875 178.984375 269.695312 178.617188 C 271.289062 178.363281 272.933594 178.015625 274.015625 177.039062 C 275.324219 175.859375 275.660156 173.859375 275.699219 172.378906 Z M 276.890625 184.804688 C 277.003906 184.699219 277.113281 184.621094 277.226562 184.535156 C 276.617188 184.136719 276.019531 183.722656 275.378906 183.316406 C 272.363281 185.617188 268.523438 186.886719 264.714844 186.90625 C 265.542969 187.6875 266.355469 188.492188 267.160156 189.320312 C 268.851562 189.554688 270.214844 189.535156 271.425781 189.292969 C 272.796875 189.003906 273.996094 188.375 274.878906 187.457031 C 275.15625 187.144531 275.410156 186.757812 275.691406 186.351562 C 276.027344 185.820312 276.40625 185.28125 276.890625 184.804688 Z M 283.273438 213.761719 C 281.242188 210.210938 279.007812 206.757812 276.589844 203.433594 C 276.335938 203.722656 275.96875 203.878906 275.582031 203.808594 C 271.183594 203.179688 266.628906 204.894531 263.648438 208.335938 C 263.589844 208.394531 263.53125 208.453125 263.457031 208.492188 C 265.429688 211.742188 267.277344 215.066406 268.976562 218.441406 C 273.367188 217.824219 278.109375 216.265625 283.273438 213.761719 Z M 281.230469 194.371094 C 283.128906 193.179688 285.089844 192.367188 287.035156 191.953125 C 284.546875 189.796875 281.929688 187.765625 279.054688 185.761719 C 278.738281 185.839844 278.476562 185.964844 278.222656 186.207031 C 277.886719 186.515625 277.605469 186.960938 277.285156 187.425781 C 276.996094 187.863281 276.6875 188.335938 276.269531 188.769531 C 275.128906 189.980469 273.589844 190.8125 271.8125 191.179688 C 270.980469 191.34375 270.109375 191.402344 269.171875 191.390625 C 271.597656 194.011719 273.902344 196.738281 276.078125 199.554688 C 277.382812 197.464844 279.140625 195.667969 281.230469 194.371094 Z M 290.554688 171.441406 C 287.894531 169.515625 285.089844 167.753906 282.207031 166.1875 C 280.070312 165.296875 277.925781 164.457031 275.746094 163.675781 C 276.027344 164.292969 276.25 164.941406 276.472656 165.550781 L 276.617188 166.003906 C 277.363281 168.113281 277.703125 170.28125 277.625 172.457031 C 277.535156 175.132812 276.753906 177.144531 275.324219 178.460938 C 274.21875 179.457031 272.875 179.929688 271.484375 180.222656 C 272.449219 180.132812 273.425781 180.019531 274.460938 179.84375 C 279.625 178.964844 286.484375 176.789062 290.554688 171.441406 Z M 284.800781 182.386719 C 286.628906 181.113281 287.875 179.011719 288.203125 176.789062 C 284.644531 179.398438 280.476562 180.851562 276.800781 181.644531 C 276.800781 181.75 276.78125 181.835938 276.773438 181.921875 C 277.722656 182.53125 278.648438 183.160156 279.558594 183.761719 C 279.820312 183.75 280.070312 183.75 280.339844 183.730469 L 280.632812 183.730469 C 282.121094 183.703125 283.601562 183.230469 284.800781 182.386719 Z M 289.414062 210.464844 C 292.691406 208.539062 295.855469 206.46875 298.96875 204.304688 C 295.710938 200.367188 292.539062 196.960938 289.191406 193.859375 C 287.003906 194.042969 284.644531 194.855469 282.390625 196.246094 C 280.351562 197.523438 278.679688 199.339844 277.535156 201.460938 C 280.253906 205.136719 282.742188 208.953125 284.984375 212.910156 C 286.445312 212.164062 287.90625 211.351562 289.414062 210.464844 Z M 294.617188 174.921875 C 295.457031 174.601562 296.125 173.878906 296.433594 173.015625 C 295.351562 172.425781 294.269531 171.855469 293.175781 171.296875 C 293.164062 171.46875 293.117188 171.652344 293.011719 171.816406 C 292.449219 172.667969 291.8125 173.460938 291.144531 174.1875 C 291.242188 174.226562 291.328125 174.273438 291.40625 174.339844 C 292.257812 175.105469 293.542969 175.328125 294.617188 174.921875 Z M 296.964844 166.351562 C 297.992188 164.875 298.320312 163.035156 297.875 161.46875 C 297.59375 161.3125 297.304688 161.167969 297.023438 161.035156 C 290.128906 157.609375 282.875 154.835938 275.457031 152.746094 C 275.410156 152.726562 275.378906 152.695312 275.351562 152.679688 C 270.875 152.917969 266.433594 153.257812 262.054688 153.617188 C 258.328125 153.894531 254.5 154.207031 250.71875 154.429688 C 249.847656 154.484375 248.957031 154.535156 248.078125 154.574219 C 261.242188 155.039062 274.191406 158.847656 285.527344 165.519531 C 288.128906 166.664062 290.691406 167.871094 293.222656 169.148438 C 294.789062 168.558594 296.125 167.582031 296.964844 166.351562 Z M 298.078125 184.292969 L 290.207031 176.257812 C 290.003906 179.273438 288.398438 182.222656 285.902344 183.972656 C 284.75 184.765625 283.417969 185.308594 282.023438 185.519531 C 284.722656 187.484375 287.226562 189.476562 289.605469 191.625 C 289.878906 191.613281 290.128906 191.59375 290.378906 191.613281 C 291.136719 189.507812 292.46875 187.648438 294.230469 186.285156 C 295.34375 185.40625 296.6875 184.738281 298.078125 184.292969 Z M 305.4375 178.925781 C 305.640625 178.847656 305.863281 178.820312 306.085938 178.769531 C 303.484375 177.089844 300.835938 175.484375 298.136719 173.964844 C 297.59375 175.191406 296.570312 176.226562 295.3125 176.710938 C 294.78125 176.921875 294.199219 177 293.640625 177 L 300.253906 183.78125 C 300.34375 183.761719 300.449219 183.730469 300.527344 183.722656 C 301 181.351562 303.203125 179.5625 305.4375 178.925781 Z M 309.65625 196.113281 L 299.839844 186.101562 C 298.332031 186.429688 296.773438 187.109375 295.59375 188.027344 C 293.976562 189.292969 292.789062 191.082031 292.257812 193.066406 C 292.1875 193.316406 292.023438 193.539062 291.8125 193.683594 C 294.78125 196.527344 297.632812 199.652344 300.554688 203.210938 C 303.679688 200.957031 306.714844 198.605469 309.65625 196.113281 Z M 311.125 194.855469 C 313.699219 192.628906 316.203125 190.308594 318.628906 187.902344 C 315.527344 185.367188 312.296875 182.949219 308.976562 180.6875 C 307.953125 180.695312 306.976562 180.792969 306.046875 181.054688 C 304.355469 181.527344 302.59375 182.996094 302.652344 184.726562 C 302.671875 185.019531 302.566406 185.316406 302.363281 185.539062 C 302.296875 185.597656 302.207031 185.648438 302.140625 185.6875 Z M 323 162.8125 C 323.457031 162.308594 323.640625 161.566406 323.476562 160.917969 C 323.300781 160.261719 322.78125 159.71875 322.121094 159.503906 C 321.9375 159.449219 321.78125 159.320312 321.667969 159.15625 C 318.910156 157.882812 316.097656 156.847656 313.300781 155.996094 C 313.050781 156.875 313.214844 157.957031 313.792969 158.914062 C 314.472656 160.027344 315.527344 160.890625 316.898438 161.847656 C 317.855469 162.511719 318.96875 163.238281 320.160156 163.492188 C 321.28125 163.730469 322.410156 163.460938 323 162.8125 Z M 323.5625 175.800781 L 310.003906 168.085938 C 306.726562 166.21875 303.378906 164.300781 299.972656 162.53125 C 300.050781 164.214844 299.578125 165.984375 298.554688 167.445312 C 297.769531 168.566406 296.675781 169.535156 295.378906 170.261719 C 296.136719 170.65625 296.898438 171.074219 297.652344 171.488281 C 297.664062 171.488281 297.664062 171.488281 297.683594 171.488281 C 297.945312 171.515625 298.183594 171.664062 298.332031 171.875 C 302.035156 173.914062 305.632812 176.109375 309.125 178.453125 C 309.714844 178.453125 310.3125 178.453125 310.902344 178.460938 C 311.453125 178.480469 311.996094 178.480469 312.546875 178.480469 C 316.347656 178.433594 320.160156 177.503906 323.5625 175.800781 Z M 329.617188 160.996094 C 326.820312 158.691406 322.867188 156.796875 320.292969 155.570312 L 319.550781 155.210938 C 308.84375 150.058594 296.242188 149.1875 284.074219 148.34375 L 282.574219 148.238281 C 273.3125 147.589844 263.832031 147.707031 254.644531 147.824219 C 251.957031 147.851562 249.238281 147.878906 246.53125 147.898438 C 239.914062 147.957031 233.222656 146.59375 226.820312 145.308594 C 219.644531 143.859375 212.816406 142.492188 205.882812 142.863281 C 206.714844 144.535156 207.265625 146.304688 207.488281 148.074219 C 207.527344 148.09375 207.574219 148.074219 207.632812 148.101562 C 221.878906 153.152344 237.332031 153.027344 250.574219 152.222656 C 254.335938 151.992188 258.175781 151.691406 261.871094 151.390625 C 272.566406 150.550781 283.628906 149.6875 294.539062 150.433594 C 308.367188 151.363281 320.332031 154.980469 329.617188 160.996094 Z M 326.394531 166.074219 C 327.160156 164.71875 327.238281 163.09375 326.570312 161.921875 C 326.523438 161.847656 326.511719 161.757812 326.484375 161.683594 C 326.125 161.46875 325.769531 161.277344 325.410156 161.082031 C 325.515625 162.175781 325.179688 163.289062 324.421875 164.097656 C 323.589844 165 322.335938 165.511719 320.972656 165.511719 C 320.574219 165.511719 320.167969 165.464844 319.753906 165.375 C 318.214844 165.046875 316.917969 164.207031 315.804688 163.433594 C 314.441406 162.484375 313.050781 161.390625 312.152344 159.910156 C 311.289062 158.488281 311.046875 156.847656 311.433594 155.453125 C 305.363281 153.78125 299.421875 152.976562 294.394531 152.640625 C 290.265625 152.359375 286.097656 152.328125 281.9375 152.417969 C 287.449219 154.265625 292.816406 156.480469 298.019531 159.03125 C 298.28125 159.167969 298.542969 159.320312 298.804688 159.449219 C 298.832031 159.449219 298.851562 159.46875 298.863281 159.46875 C 303.039062 161.566406 307.140625 163.894531 311.097656 166.140625 L 318.5625 170.394531 C 320.011719 170.066406 321.472656 169.699219 322.835938 169.082031 C 323.980469 168.558594 325.515625 167.628906 326.394531 166.074219 Z M 331.378906 172.773438 C 330.535156 173.75 329.5 174.691406 328.222656 175.589844 C 323.699219 178.820312 318.148438 180.636719 312.574219 180.695312 C 312.5 180.695312 312.429688 180.695312 312.355469 180.695312 C 314.972656 182.5625 317.519531 184.507812 319.992188 186.535156 C 322.816406 183.664062 325.535156 180.667969 328.128906 177.5625 C 329.5 175.917969 330.59375 174.320312 331.378906 172.773438 Z M 331.175781 169.195312 C 331.8125 167.917969 332.015625 166.527344 331.820312 165.28125 C 330.875 164.542969 329.898438 163.859375 328.910156 163.199219 C 329.027344 164.46875 328.746094 165.832031 328.058594 167.03125 C 327.160156 168.605469 325.632812 169.921875 323.640625 170.839844 C 322.78125 171.226562 321.871094 171.535156 320.988281 171.769531 L 325.816406 174.523438 C 326.183594 174.273438 326.570312 174.03125 326.9375 173.78125 C 328.996094 172.300781 330.390625 170.8125 331.175781 169.195312 Z M 336.523438 165.046875 C 337.257812 169.621094 335.382812 174.640625 330.972656 179.929688 C 319.742188 193.402344 306.394531 204.746094 291.300781 213.664062 C 281.300781 219.554688 272.519531 222.476562 264.730469 222.476562 C 263.058594 222.476562 261.425781 222.320312 259.847656 222.039062 C 261.222656 230 257.90625 238.90625 251.007812 245.339844 C 243.804688 252.039062 234.34375 255.136719 226.90625 257.078125 C 224.054688 257.832031 221.09375 258.453125 218.175781 258.453125 C 216.222656 258.453125 214.296875 258.171875 212.429688 257.464844 C 210.429688 256.691406 208.714844 255.511719 207.042969 254.351562 C 205.03125 252.960938 203.117188 251.644531 200.988281 251.285156 C 199.933594 251.113281 198.765625 251.152344 197.535156 251.199219 C 195.148438 251.285156 192.441406 251.375 190.15625 249.75 C 189.285156 249.128906 188.640625 248.375 188.136719 247.523438 C 187.613281 248.375 186.976562 249.128906 186.105469 249.75 C 183.824219 251.375 181.113281 251.285156 178.726562 251.199219 C 177.488281 251.152344 176.316406 251.113281 175.261719 251.285156 C 173.144531 251.644531 171.230469 252.960938 169.21875 254.351562 C 167.546875 255.511719 165.832031 256.691406 163.832031 257.464844 C 161.964844 258.171875 160.039062 258.453125 158.085938 258.453125 C 155.167969 258.453125 152.207031 257.832031 149.355469 257.078125 C 141.917969 255.136719 132.457031 252.039062 125.253906 245.339844 C 118.359375 238.90625 115.039062 230 116.402344 222.039062 C 114.816406 222.320312 113.203125 222.476562 111.53125 222.476562 C 103.726562 222.476562 94.960938 219.554688 84.960938 213.664062 C 69.867188 204.746094 56.511719 193.402344 45.28125 179.929688 C 40.871094 174.640625 39.003906 169.621094 39.730469 165.046875 C 40.734375 158.742188 49.277344 154.671875 54.371094 152.222656 L 55.117188 151.882812 C 66.453125 146.421875 79.402344 145.519531 91.925781 144.660156 L 93.425781 144.535156 C 102.835938 143.886719 112.398438 144.003906 121.65625 144.128906 C 124.355469 144.15625 127.050781 144.1875 129.742188 144.195312 C 129.816406 144.195312 129.90625 144.195312 129.992188 144.195312 C 136.230469 144.195312 142.566406 142.929688 148.714844 141.679688 C 156.472656 140.113281 164.5 138.5 172.660156 139.332031 C 173.609375 138.152344 174.683594 137.050781 175.929688 136.082031 C 177.101562 135.152344 178.183594 134.464844 179.246094 133.933594 C 178.8125 133.539062 178.472656 133.074219 178.164062 132.601562 C 177.992188 132.367188 177.808594 132.097656 177.605469 131.816406 C 176.296875 130.132812 174.964844 128.382812 173.425781 126.980469 C 172.121094 125.792969 170.660156 124.804688 169.121094 123.75 C 167.429688 122.621094 165.679688 121.441406 164.140625 119.96875 C 160.6875 116.652344 158.542969 112.019531 158.261719 107.242188 C 158.222656 106.496094 158.734375 105.832031 159.460938 105.695312 C 165.039062 104.660156 170.796875 105.386719 175.632812 107.753906 C 180.757812 110.257812 184.828125 114.613281 186.8125 119.707031 C 187.585938 121.671875 188.011719 123.75 188.136719 125.867188 C 188.25 123.75 188.675781 121.671875 189.449219 119.707031 C 191.414062 114.613281 195.484375 110.257812 200.613281 107.753906 C 205.476562 105.386719 211.222656 104.660156 216.800781 105.695312 C 217.527344 105.832031 218.039062 106.496094 218 107.242188 C 217.71875 112.019531 215.574219 116.652344 212.101562 119.96875 C 210.582031 121.441406 208.832031 122.621094 207.140625 123.75 C 205.59375 124.804688 204.140625 125.792969 202.835938 126.980469 C 201.296875 128.382812 199.945312 130.132812 198.660156 131.816406 C 198.4375 132.097656 198.261719 132.367188 198.097656 132.601562 C 197.789062 133.074219 197.449219 133.539062 197.015625 133.933594 C 198.066406 134.464844 199.152344 135.152344 200.332031 136.082031 C 201.578125 137.058594 202.652344 138.152344 203.609375 139.332031 C 211.761719 138.5 219.789062 140.113281 227.546875 141.679688 C 233.765625 142.9375 240.195312 144.253906 246.519531 144.195312 C 249.210938 144.1875 251.910156 144.15625 254.605469 144.128906 C 263.84375 144.003906 273.40625 143.886719 282.847656 144.535156 L 284.335938 144.660156 C 296.851562 145.519531 309.808594 146.421875 321.15625 151.882812 L 321.890625 152.222656 C 326.984375 154.671875 335.527344 158.742188 336.523438 165.046875 Z M 181.480469 170.210938 C 181.511719 170.183594 181.570312 170.125 181.617188 170.039062 C 181.695312 169.875 181.644531 169.960938 181.675781 169.949219 C 181.703125 169.960938 181.78125 169.960938 181.945312 169.875 C 182.238281 169.699219 182.660156 169.175781 182.980469 168.761719 C 183.609375 167.863281 184.027344 166.894531 184.355469 166.074219 C 185.003906 164.398438 185.417969 163.296875 185.726562 163.355469 C 186.019531 163.421875 186.164062 164.542969 185.890625 166.480469 C 185.746094 167.425781 185.464844 168.625 184.800781 169.875 C 184.433594 170.492188 184.082031 171.121094 183.289062 171.769531 C 182.855469 172.125 182.101562 172.40625 181.335938 172.320312 C 181.125 172.746094 180.921875 173.179688 180.699219 173.617188 C 180.253906 174.449219 179.800781 175.230469 179.304688 175.976562 L 178.917969 176.527344 C 178.8125 176.652344 178.726562 176.816406 178.503906 177.070312 C 178.714844 177.785156 178.96875 178.519531 179.285156 179.320312 C 179.335938 179.265625 179.363281 179.214844 179.414062 179.15625 C 179.800781 178.769531 180.371094 178.703125 180.84375 178.925781 C 181.027344 179.011719 181.203125 179.128906 181.335938 179.265625 C 181.65625 179.574219 181.8125 179.875 181.90625 180.105469 C 182.070312 179.882812 182.226562 179.660156 182.371094 179.4375 C 183.097656 178.316406 183.609375 177.183594 183.988281 176.207031 C 184.710938 174.253906 184.933594 172.902344 185.28125 172.902344 C 185.613281 172.882812 186.046875 174.320312 185.6875 176.652344 C 185.515625 177.824219 185.097656 179.1875 184.355469 180.597656 C 184.179688 180.945312 183.96875 181.296875 183.746094 181.644531 L 183.378906 182.183594 C 183.203125 182.386719 182.992188 182.699219 182.476562 182.9375 C 181.957031 183.199219 181.152344 183.113281 180.71875 182.785156 C 180.5625 182.917969 180.398438 183.027344 180.195312 183.105469 C 180.195312 183.113281 180.195312 183.132812 180.207031 183.132812 C 182.035156 187.039062 184.90625 189.941406 188.136719 191.226562 C 191.355469 189.941406 194.21875 187.039062 196.058594 183.132812 C 196.058594 183.132812 196.058594 183.113281 196.066406 183.105469 C 195.863281 183.027344 195.679688 182.917969 195.535156 182.785156 C 195.109375 183.113281 194.285156 183.199219 193.785156 182.9375 C 193.269531 182.699219 193.050781 182.386719 192.882812 182.183594 L 192.515625 181.644531 C 192.292969 181.296875 192.082031 180.945312 191.886719 180.597656 C 191.152344 179.1875 190.746094 177.824219 190.5625 176.652344 C 190.207031 174.320312 190.652344 172.882812 190.960938 172.902344 C 191.328125 172.902344 191.539062 174.253906 192.273438 176.207031 C 192.652344 177.183594 193.164062 178.316406 193.890625 179.4375 C 194.027344 179.660156 194.191406 179.882812 194.355469 180.105469 C 194.453125 179.875 194.605469 179.574219 194.914062 179.265625 C 195.058594 179.128906 195.226562 179.011719 195.417969 178.925781 C 195.902344 178.683594 196.480469 178.789062 196.839844 179.15625 C 196.898438 179.214844 196.925781 179.265625 196.957031 179.320312 C 197.292969 178.519531 197.546875 177.785156 197.757812 177.070312 C 197.535156 176.816406 197.429688 176.652344 197.324219 176.527344 L 196.957031 175.976562 C 196.460938 175.230469 195.988281 174.449219 195.5625 173.617188 C 195.339844 173.179688 195.117188 172.746094 194.925781 172.320312 C 194.160156 172.40625 193.386719 172.125 192.972656 171.769531 C 192.160156 171.121094 191.832031 170.492188 191.460938 169.875 C 190.785156 168.625 190.515625 167.425781 190.371094 166.480469 C 190.097656 164.542969 190.246094 163.421875 190.535156 163.355469 C 190.84375 163.296875 191.257812 164.398438 191.886719 166.074219 C 192.238281 166.894531 192.652344 167.863281 193.28125 168.761719 C 193.582031 169.175781 194.007812 169.699219 194.324219 169.875 C 194.480469 169.960938 194.546875 169.960938 194.566406 169.949219 C 194.558594 169.960938 194.507812 169.980469 194.46875 170.046875 L 196.675781 170.171875 C 197.015625 170.90625 197.371094 171.683594 197.769531 172.464844 C 198.019531 172.9375 198.289062 173.375 198.542969 173.820312 C 198.660156 173.382812 198.746094 173.074219 198.871094 172.957031 C 198.996094 172.175781 199.121094 171.382812 199.238281 170.597656 C 199.710938 167.425781 200.050781 163.878906 198.234375 161.59375 C 197.292969 160.445312 195.746094 159.613281 193.84375 159.273438 C 192.042969 158.933594 190.097656 159.023438 188.222656 159.128906 C 188.203125 159.128906 188.195312 159.136719 188.175781 159.136719 C 188.164062 159.136719 188.144531 159.128906 188.136719 159.128906 C 188.117188 159.128906 188.097656 159.136719 188.085938 159.136719 C 188.066406 159.136719 188.058594 159.128906 188.039062 159.128906 C 186.164062 159.023438 184.21875 158.933594 182.421875 159.273438 C 180.515625 159.613281 178.96875 160.445312 178.03125 161.59375 C 176.191406 163.878906 176.550781 167.425781 177.023438 170.597656 C 177.148438 171.382812 177.265625 172.175781 177.390625 172.957031 C 177.515625 173.074219 177.605469 173.382812 177.710938 173.820312 C 177.972656 173.375 178.222656 172.9375 178.472656 172.464844 C 178.890625 171.683594 179.246094 170.90625 179.585938 170.171875 L 179.914062 169.417969 C 180.109375 168.972656 180.621094 168.78125 181.066406 168.972656 C 181.511719 169.167969 181.703125 169.679688 181.511719 170.125 C 181.5 170.152344 181.480469 170.183594 181.480469 170.210938 " fill-opacity="1" fill-rule="nonzero"/></g><path fill="#000000" d="M 266.539062 171.769531 C 267.691406 171.371094 268.496094 170.113281 268.273438 169.011719 C 268.058594 167.96875 266.984375 166.886719 266.039062 166.363281 C 266.007812 166.351562 265.960938 166.332031 265.914062 166.332031 C 265.652344 166.332031 265.042969 166.585938 263.609375 167.804688 L 263.3125 168.066406 C 262.886719 168.414062 262.316406 168.925781 262.257812 169.449219 C 262.199219 169.84375 262.46875 170.375 262.941406 170.839844 C 263.929688 171.796875 265.378906 172.183594 266.539062 171.769531 Z M 270.449219 168.566406 C 270.875 170.734375 269.453125 173.105469 267.277344 173.878906 C 266.734375 174.0625 266.171875 174.15625 265.59375 174.15625 C 264.085938 174.15625 262.535156 173.546875 261.394531 172.4375 C 260.390625 171.46875 259.90625 170.28125 260.050781 169.167969 C 260.214844 167.890625 261.117188 166.992188 261.890625 166.351562 L 262.167969 166.109375 C 263.359375 165.105469 265.324219 163.433594 267.101562 164.410156 C 268.40625 165.132812 270.0625 166.664062 270.449219 168.566406 " fill-opacity="1" fill-rule="nonzero"/><path fill="#000000" d="M 233.367188 216.625 C 233.726562 214.652344 233.570312 212.4375 232.921875 210.210938 C 232.390625 208.363281 231.609375 206.816406 230.601562 205.648438 C 229.441406 204.324219 227.980469 203.460938 226.472656 203.210938 C 224.675781 202.929688 222.855469 203.5 221.316406 204.089844 C 221.046875 204.214844 220.746094 204.304688 220.457031 204.390625 C 220.089844 204.496094 219.761719 204.582031 219.488281 204.71875 C 219.140625 204.914062 218.707031 205.578125 218.425781 206.023438 L 218.308594 206.199219 C 217.855469 206.925781 217.449219 207.726562 217.121094 208.605469 C 216.589844 210.046875 216.25 211.722656 216.019531 213.847656 C 215.882812 215.097656 215.835938 216.101562 216.046875 217.078125 C 216.386719 218.75 217.566406 220.355469 219.304688 221.46875 C 220.738281 222.398438 222.515625 223.035156 224.894531 223.453125 C 225.902344 223.625 226.984375 223.761719 227.960938 223.539062 C 228.824219 223.347656 229.691406 222.863281 230.496094 222.097656 C 231.964844 220.753906 232.980469 218.800781 233.367188 216.625 Z M 234.78125 209.679688 C 235.515625 212.214844 235.679688 214.671875 235.265625 216.960938 C 234.808594 219.554688 233.570312 221.875 231.800781 223.519531 C 230.738281 224.496094 229.597656 225.15625 228.398438 225.414062 C 227.855469 225.542969 227.34375 225.578125 226.820312 225.578125 C 226.058594 225.578125 225.300781 225.472656 224.558594 225.347656 C 221.925781 224.882812 219.90625 224.15625 218.253906 223.074219 C 216.105469 221.691406 214.605469 219.640625 214.152344 217.464844 C 213.878906 216.1875 213.96875 214.875 214.101562 213.664062 C 214.355469 211.351562 214.742188 209.542969 215.320312 207.949219 C 215.6875 206.941406 216.144531 205.996094 216.695312 205.164062 L 216.800781 204.980469 C 217.21875 204.332031 217.789062 203.433594 218.640625 202.996094 C 219.035156 202.792969 219.480469 202.660156 219.90625 202.542969 C 220.148438 202.464844 220.398438 202.386719 220.621094 202.300781 C 222.292969 201.652344 224.519531 200.9375 226.78125 201.316406 C 228.734375 201.625 230.601562 202.71875 232.054688 204.390625 C 233.234375 205.78125 234.152344 207.542969 234.78125 209.679688 " fill-opacity="1" fill-rule="nonzero"/><path fill="#000000" d="M 230.921875 215.964844 C 231.5 214.207031 231.394531 212.136719 230.632812 210.164062 C 230.265625 209.214844 229.828125 208.546875 229.296875 208.152344 C 228.714844 207.699219 227.847656 207.445312 226.878906 207.476562 C 226.453125 207.484375 226.027344 207.542969 225.613281 207.601562 C 225.0625 207.699219 224.5 207.765625 223.917969 207.765625 C 223.273438 207.785156 222.902344 207.863281 222.351562 208.171875 C 220.855469 209.042969 219.617188 210.375 218.863281 211.914062 C 218.339844 212.96875 218.070312 214.082031 218.097656 215.117188 C 218.117188 216.226562 218.476562 217.261719 219.113281 218.027344 C 219.925781 219.050781 221.269531 219.75 223.125 220.117188 C 224.691406 220.414062 226.066406 220.367188 227.199219 219.980469 C 228.898438 219.390625 230.320312 217.851562 230.921875 215.964844 Z M 232.421875 209.46875 C 233.339844 211.855469 233.476562 214.371094 232.757812 216.566406 C 231.976562 219.003906 230.082031 221.023438 227.828125 221.808594 C 226.984375 222.089844 226.066406 222.234375 225.082031 222.234375 C 224.335938 222.234375 223.570312 222.15625 222.75 222 C 220.4375 221.554688 218.707031 220.617188 217.59375 219.246094 C 216.714844 218.132812 216.210938 216.683594 216.183594 215.144531 C 216.183594 215.085938 216.183594 215.027344 216.183594 214.980469 C 216.183594 213.695312 216.5 212.339844 217.140625 211.054688 C 218.058594 209.1875 219.566406 207.570312 221.386719 206.507812 C 222.21875 206.023438 223 205.832031 223.9375 205.839844 C 224.394531 205.839844 224.839844 205.773438 225.332031 205.714844 C 225.835938 205.636719 226.335938 205.558594 226.839844 205.550781 C 227.847656 205.550781 229.277344 205.695312 230.476562 206.625 C 231.296875 207.253906 231.9375 208.179688 232.421875 209.46875 " fill-opacity="1" fill-rule="nonzero"/><path fill="#000000" d="M 229.152344 214.253906 C 229.191406 213.113281 228.648438 212.109375 227.613281 211.5 C 226.425781 210.792969 224.925781 210.773438 223.785156 211.46875 C 222.613281 212.183594 222.277344 213.511719 222.332031 214.535156 C 222.402344 215.542969 222.902344 216.816406 224.132812 217.359375 C 225.109375 217.792969 226.335938 217.71875 227.3125 217.175781 C 228.367188 216.566406 229.09375 215.425781 229.152344 214.253906 Z M 228.601562 209.84375 C 230.234375 210.820312 231.144531 212.503906 231.078125 214.34375 C 230.980469 216.160156 229.878906 217.929688 228.261719 218.847656 C 227.410156 219.324219 226.453125 219.574219 225.503906 219.574219 C 224.75 219.574219 224.027344 219.417969 223.339844 219.109375 C 221.667969 218.375 220.542969 216.652344 220.410156 214.652344 C 220.292969 212.640625 221.191406 210.792969 222.796875 209.824219 C 224.527344 208.769531 226.8125 208.769531 228.601562 209.84375 " fill-opacity="1" fill-rule="nonzero"/><path fill="#000000" d="M 212.3125 184.253906 C 213.070312 186.816406 213.117188 189.292969 212.816406 191.003906 C 212.507812 192.726562 211.976562 193.683594 211.648438 193.625 C 210.929688 193.480469 211.316406 189.496094 209.914062 184.960938 C 208.601562 180.414062 206.074219 177.292969 206.597656 176.789062 C 206.820312 176.554688 207.808594 177.058594 209.007812 178.324219 C 210.195312 179.59375 211.53125 181.671875 212.3125 184.253906 " fill-opacity="1" fill-rule="nonzero"/><path fill="#000000" d="M 169.664062 176.789062 C 170.1875 177.292969 167.660156 180.414062 166.347656 184.960938 C 164.945312 189.496094 165.332031 193.480469 164.617188 193.625 C 164.285156 193.683594 163.746094 192.726562 163.445312 191.003906 C 163.144531 189.292969 163.183594 186.816406 163.949219 184.253906 C 164.722656 181.671875 166.054688 179.59375 167.253906 178.324219 C 168.453125 177.058594 169.429688 176.554688 169.664062 176.789062 " fill-opacity="1" fill-rule="nonzero"/><path fill="#000000" d="M 160.214844 217.078125 C 160.425781 216.121094 160.371094 215.097656 160.234375 213.867188 C 160.011719 211.722656 159.652344 210.046875 159.140625 208.605469 C 158.8125 207.726562 158.417969 206.925781 157.953125 206.199219 L 157.835938 206.023438 C 157.554688 205.578125 157.121094 204.914062 156.753906 204.71875 C 156.5 204.582031 156.164062 204.496094 155.804688 204.390625 C 155.515625 204.304688 155.214844 204.214844 154.933594 204.089844 C 153.6875 203.605469 152.234375 203.132812 150.765625 203.132812 C 150.445312 203.132812 150.117188 203.160156 149.800781 203.210938 C 148.28125 203.460938 146.820312 204.324219 145.660156 205.648438 C 144.652344 206.816406 143.871094 208.363281 143.339844 210.210938 C 142.691406 212.4375 142.527344 214.652344 142.875 216.625 C 143.261719 218.800781 144.285156 220.753906 145.757812 222.097656 C 146.570312 222.863281 147.4375 223.347656 148.300781 223.539062 C 149.277344 223.761719 150.359375 223.625 151.367188 223.453125 C 153.746094 223.035156 155.523438 222.398438 156.957031 221.46875 C 158.675781 220.355469 159.867188 218.75 160.214844 217.078125 Z M 162.160156 213.664062 C 162.292969 214.875 162.363281 216.1875 162.101562 217.464844 C 161.65625 219.640625 160.15625 221.691406 158.011719 223.074219 C 156.335938 224.15625 154.335938 224.882812 151.683594 225.347656 C 150.960938 225.472656 150.207031 225.578125 149.421875 225.578125 C 148.917969 225.578125 148.386719 225.542969 147.863281 225.414062 C 146.664062 225.15625 145.515625 224.496094 144.449219 223.519531 C 142.691406 221.875 141.441406 219.554688 140.988281 216.960938 C 140.582031 214.699219 140.757812 212.183594 141.480469 209.679688 C 142.089844 207.542969 143.007812 205.78125 144.207031 204.390625 C 145.648438 202.71875 147.527344 201.625 149.480469 201.316406 C 151.753906 200.9375 153.96875 201.652344 155.640625 202.300781 C 155.863281 202.386719 156.105469 202.464844 156.355469 202.542969 C 156.773438 202.660156 157.21875 202.792969 157.621094 202.996094 C 158.472656 203.433594 159.042969 204.332031 159.460938 204.980469 L 159.566406 205.164062 C 160.097656 205.996094 160.574219 206.941406 160.941406 207.949219 C 161.519531 209.542969 161.90625 211.351562 162.160156 213.664062 " fill-opacity="1" fill-rule="nonzero"/><path fill="#000000" d="M 158.164062 215.117188 C 158.175781 214.082031 157.921875 212.976562 157.390625 211.914062 C 156.636719 210.375 155.410156 209.042969 153.898438 208.171875 C 153.367188 207.863281 152.980469 207.753906 152.34375 207.765625 C 151.78125 207.765625 151.183594 207.699219 150.648438 207.601562 C 150.234375 207.542969 149.808594 207.484375 149.382812 207.476562 C 149.355469 207.476562 149.304688 207.476562 149.277344 207.476562 C 148.339844 207.476562 147.527344 207.707031 146.945312 208.152344 C 146.433594 208.546875 146 209.214844 145.628906 210.164062 C 144.867188 212.136719 144.761719 214.207031 145.320312 215.964844 C 145.929688 217.851562 147.363281 219.390625 149.0625 219.980469 C 150.195312 220.367188 151.558594 220.414062 153.136719 220.117188 C 154.992188 219.75 156.335938 219.050781 157.148438 218.027344 C 157.777344 217.261719 158.136719 216.226562 158.164062 215.117188 Z M 159.121094 211.054688 C 159.769531 212.40625 160.117188 213.808594 160.089844 215.144531 C 160.050781 216.683594 159.539062 218.132812 158.648438 219.246094 C 157.535156 220.617188 155.804688 221.554688 153.511719 222 C 152.699219 222.15625 151.90625 222.234375 151.183594 222.234375 C 150.195312 222.234375 149.277344 222.089844 148.433594 221.808594 C 146.183594 221.023438 144.285156 219.003906 143.503906 216.566406 C 142.789062 214.371094 142.902344 211.855469 143.820312 209.46875 C 144.324219 208.179688 144.964844 207.253906 145.785156 206.625 C 146.984375 205.695312 148.40625 205.511719 149.421875 205.550781 C 149.925781 205.558594 150.425781 205.636719 150.929688 205.714844 C 151.421875 205.773438 151.867188 205.839844 152.324219 205.839844 C 153.289062 205.832031 154.023438 206.023438 154.875 206.507812 C 156.695312 207.570312 158.203125 209.1875 159.121094 211.054688 " fill-opacity="1" fill-rule="nonzero"/><path fill="#000000" d="M 153.929688 214.535156 C 153.988281 213.511719 153.628906 212.183594 152.476562 211.46875 C 151.90625 211.132812 151.257812 210.964844 150.59375 210.964844 C 149.925781 210.964844 149.246094 211.140625 148.636719 211.5 C 147.613281 212.109375 147.050781 213.113281 147.109375 214.253906 C 147.160156 215.425781 147.882812 216.566406 148.949219 217.175781 C 149.925781 217.71875 151.144531 217.792969 152.128906 217.359375 C 153.347656 216.816406 153.851562 215.542969 153.929688 214.535156 Z M 153.464844 209.824219 C 155.050781 210.792969 155.96875 212.640625 155.832031 214.652344 C 155.71875 216.652344 154.597656 218.375 152.902344 219.109375 C 152.234375 219.417969 151.5 219.574219 150.757812 219.574219 C 149.808594 219.574219 148.851562 219.324219 148 218.847656 C 146.375 217.929688 145.28125 216.160156 145.1875 214.34375 C 145.097656 212.503906 146.035156 210.820312 147.660156 209.84375 C 149.441406 208.769531 151.714844 208.769531 153.464844 209.824219 " fill-opacity="1" fill-rule="nonzero"/><path fill="#000000" d="M 113.308594 170.839844 C 113.792969 170.375 114.0625 169.84375 114.003906 169.449219 C 113.949219 168.925781 113.375 168.414062 112.953125 168.066406 L 112.660156 167.804688 C 111.21875 166.585938 110.609375 166.332031 110.351562 166.332031 C 110.28125 166.332031 110.253906 166.351562 110.222656 166.363281 C 109.265625 166.886719 108.203125 167.96875 107.988281 169.011719 C 107.769531 170.113281 108.550781 171.371094 109.710938 171.769531 C 110.882812 172.183594 112.3125 171.796875 113.308594 170.839844 Z M 116.210938 169.167969 C 116.347656 170.28125 115.851562 171.46875 114.867188 172.4375 C 113.726562 173.546875 112.167969 174.15625 110.667969 174.15625 C 110.097656 174.15625 109.519531 174.0625 108.984375 173.878906 C 106.789062 173.105469 105.367188 170.734375 105.8125 168.566406 C 106.199219 166.664062 107.855469 165.132812 109.160156 164.410156 C 110.941406 163.433594 112.902344 165.105469 114.09375 166.109375 L 114.375 166.351562 C 115.148438 166.992188 116.046875 167.890625 116.210938 169.167969 " fill-opacity="1" fill-rule="nonzero"/></svg>